<?xml version="1.0" encoding="UTF-8" standalone="no"?>
<!DOCTYPE svg PUBLIC "-//W3C//DTD SVG 20010904//EN"
              "http://www.w3.org/TR/2001/REC-SVG-20010904/DTD/svg10.dtd">

<svg xmlns="http://www.w3.org/2000/svg"
     width="11.1136in" height="5.40401in"
     viewBox="0 0 800 389">
  <path id="Unnamed"
        fill="none" stroke="black" stroke-width="10" stroke-linecap="round"
        d="M 30.00,237.00
           C 30.00,237.00 56.00,194.00 81.00,169.00
             114.00,129.00 133.00,108.00 162.00,65.00
             211.00,-8.00 164.00,35.00 146.00,81.00
             131.00,147.00 198.00,76.00 172.00,142.00
             165.00,173.00 145.00,194.00 133.00,189.00
             125.91,184.57 159.00,159.00 188.00,174.00
             206.00,178.00 232.00,247.00 177.00,335.00
             151.00,371.00 129.00,382.00 135.00,317.00
             146.00,261.00 209.00,183.00 222.00,171.00
             288.00,98.00 208.00,219.00 251.00,186.00
             283.00,167.00 249.00,214.00 329.00,148.00M 376.00,110.00
           C 376.00,110.00 353.00,155.00 353.00,168.00M 376.00,69.00
           C 436.00,18.00 497.00,7.00 453.00,58.00
             430.00,87.00 468.00,88.00 480.00,111.00
             492.00,129.00 467.00,172.00 442.00,188.00
             382.00,214.00 434.00,125.00 492.00,167.00
             510.00,180.00 545.00,166.00 591.00,137.00
             718.00,46.00 591.00,98.00 566.00,139.00
             528.00,182.00 537.00,227.00 655.00,192.00
             678.00,185.00 749.00,158.00 776.00,161.00" />
</svg>
