<svg width="100" height="100" viewBox="0 0 100 100" fill="none" xmlns="http://www.w3.org/2000/svg">
<rect width="100" height="100" rx="20" fill="#E5F8FF"/>
<path d="M37.1751 33.1C36.3596 33.1 35.5774 33.424 35.0007 34.0007C34.4241 34.5773 34.1001 35.3595 34.1001 36.175V56.675C34.1001 57.4905 34.4241 58.2727 35.0007 58.8494C35.5774 59.426 36.3596 59.75 37.1751 59.75H44.3501V63.85H41.2751C41.0033 63.85 40.7425 63.958 40.5503 64.1502C40.3581 64.3424 40.2501 64.6032 40.2501 64.875C40.2501 65.1469 40.3581 65.4076 40.5503 65.5998C40.7425 65.792 41.0033 65.9 41.2751 65.9H59.7251C59.9969 65.9 60.2577 65.792 60.4499 65.5998C60.6421 65.4076 60.7501 65.1469 60.7501 64.875C60.7501 64.6032 60.6421 64.3424 60.4499 64.1502C60.2577 63.958 59.9969 63.85 59.7251 63.85H56.6501V59.75H63.8251C64.6406 59.75 65.4228 59.426 65.9995 58.8494C66.5761 58.2727 66.9001 57.4905 66.9001 56.675V36.175C66.9001 35.3595 66.5761 34.5773 65.9995 34.0007C65.4228 33.424 64.6406 33.1 63.8251 33.1H37.1751ZM54.6001 59.75V63.85H46.4001V59.75H54.6001Z" fill="#71DAFF"/>
</svg>
