<svg width="100" height="100" viewBox="0 0 100 100" fill="none" xmlns="http://www.w3.org/2000/svg">
<rect width="100" height="100" rx="20" fill="#FFFBCC"/>
<path d="M62.6842 37.4H45.8421C45.2838 37.4 44.7483 37.6212 44.3535 38.0151C43.9586 38.4089 43.7368 38.943 43.7368 39.5V66.8H31.1053C30.5469 66.8 30.0114 66.5788 29.6166 66.1849C29.2218 65.7911 29 65.257 29 64.7V31.1C29 30.543 29.2218 30.0089 29.6166 29.6151C30.0114 29.2212 30.5469 29 31.1053 29H60.5789C61.1373 29 61.6728 29.2212 62.0676 29.6151C62.4624 30.0089 62.6842 30.543 62.6842 31.1V37.4ZM50.0526 41.6H66.8947C67.4531 41.6 67.9886 41.8212 68.3834 42.2151C68.7782 42.6089 69 43.143 69 43.7V68.9C69 69.457 68.7782 69.9911 68.3834 70.3849C67.9886 70.7788 67.4531 71 66.8947 71H50.0526C49.4943 71 48.9588 70.7788 48.564 70.3849C48.1692 69.9911 47.9474 69.457 47.9474 68.9V43.7C47.9474 43.143 48.1692 42.6089 48.564 42.2151C48.9588 41.8212 49.4943 41.6 50.0526 41.6Z" fill="#EFE46E"/>
</svg>
