<svg width="100" height="100" viewBox="0 0 100 100" fill="none" xmlns="http://www.w3.org/2000/svg">
<rect width="100" height="100" rx="20" fill="#FCEEFF"/>
<path d="M67.0879 63.6621L64.6621 66.0879C64.342 66.4061 63.909 66.5847 63.4577 66.5847C63.0064 66.5847 62.5734 66.4061 62.2533 66.0879L41.9583 45.8271C41.4028 45.988 40.8283 46.0742 40.25 46.0833C39.1623 46.0825 38.0905 45.8221 37.1237 45.3237C36.1569 44.8253 35.3231 44.1034 34.6915 43.2178C34.0599 42.3323 33.6489 41.3088 33.4925 40.2324C33.3361 39.156 33.439 38.0578 33.7925 37.0292L38.1316 41.3683L39.0371 40.4629L41.4629 38.0371L42.3683 37.1317L38.0291 32.7925C39.0578 32.439 40.156 32.3361 41.2323 32.4925C42.3087 32.6489 43.3323 33.0599 44.2178 33.6915C45.1033 34.3231 45.8253 35.1569 46.3237 36.1237C46.8221 37.0905 47.0825 38.1623 47.0833 39.25C47.0742 39.8283 46.988 40.4028 46.8271 40.9583L67.0879 61.2533C67.4061 61.5734 67.5847 62.0064 67.5847 62.4577C67.5847 62.909 67.4061 63.342 67.0879 63.6621ZM33.9121 61.2533C33.5939 61.5734 33.4153 62.0064 33.4153 62.4577C33.4153 62.909 33.5939 63.342 33.9121 63.6621L36.3379 66.0879C36.658 66.4061 37.0909 66.5847 37.5423 66.5847C37.9936 66.5847 38.4266 66.4061 38.7466 66.0879L48.0912 56.7604L43.2566 51.9258M64.1666 32.4167L57.3333 35.8333V39.25L53.6262 42.9571L57.0429 46.3737L60.75 42.6667H64.1666L67.5833 35.8333L64.1666 32.4167Z" fill="#CE74E2"/>
</svg>
