<svg width="447" height="675" viewBox="0 0 447 675" fill="none" xmlns="http://www.w3.org/2000/svg">
<path d="M357 160V263L268 212L357 160Z" fill="#02D4D8"/>
<path d="M357 263L268 314V212L357 263Z" fill="#0C78A3"/>
<path d="M357.007 263L357 366L268 314L357.007 263Z" fill="#0C78A3"/>
<path d="M447 314L357 366L357 263L447 314Z" fill="#01BBBE"/>
<path d="M447 212V314L357 263L447 212Z" fill="#01BBBE"/>
<path d="M414.301 -9.38426e-05V29.8359L414.283 29.8485L388.441 14.9278L414.301 -9.38426e-05Z" fill="#02D4D8"/>
<path d="M447 108.5L357 160V56.9999L447 108.5Z" fill="#02D4D8"/>
<path d="M357.001 469.025V572L268 520.025L357.001 469.025Z" fill="#A5161C"/>
<path d="M357 572L268 623V520L357 572Z" fill="#EF3239"/>
<path d="M357 572V675L268 623L357 572Z" fill="#01C3C7"/>
<path d="M447 623L357 675L357 572L447 623Z" fill="#01C3C7"/>
<path d="M447 623V520L357 572L447 623Z" fill="#0C78A3"/>
<path d="M447 520L357 572V469L447 520Z" fill="#0C78A3"/>
<path d="M447 314V417L357 366L447 314Z" fill="#EF4D29"/>
<path d="M447 417L357 469L357 366L447 417Z" fill="#EF4D29"/>
<path d="M447 417V520L357 469L447 417Z" fill="#01C3C7"/>
<path d="M357 366V469L268 417L357 366Z" fill="#EF4D29"/>
<path d="M178 160V263L90 212L178 160Z" fill="#FBCB86"/>
<path d="M268 314L178 366V263L268 314Z" fill="#F97211"/>
<path d="M117.791 314.317L76.208 338.326V290.334L76.244 290.318L117.791 314.317Z" fill="#F97211"/>
<path d="M117 168L89 184L89 152L117 168Z" fill="#FBCB86"/>
<path d="M267.999 212L268 314L178 263L267.999 212Z" fill="#F97211"/>
<path d="M268 212L178 263V160L268 212Z" fill="#F7972A"/>
<path d="M178 469V572L90 520L178 469Z" fill="#F36246"/>
<path d="M268 623L178 675L178 572L268 623Z" fill="#EF3239"/>
<path d="M89.3987 623.032L0 675V572L89.3987 623.032Z" fill="#EF3239"/>
<path d="M268 623V520L178 572L268 623Z" fill="#EF3239"/>
<path d="M268 520L178 572V469L268 520Z" fill="#EF3239"/>
<path d="M268 314V417L178 366L268 314Z" fill="#F7972A"/>
<path d="M268 417L178 469V366L268 417Z" fill="#F7972A"/>
<path d="M268 417V520L178 469L268 417Z" fill="#F97211"/>
<path d="M357 469.07L268 520V417L357 469.07Z" fill="#A5161C"/>
<path d="M357.282 365.714L268 417V314L357.282 365.714Z" fill="#F7972A"/>
</svg>
