<svg width="25" height="24" viewBox="0 0 25 24" fill="none" xmlns="http://www.w3.org/2000/svg">
<g clip-path="url(#clip0_218_7)">
<path d="M20.498 0H4.08195C1.82863 0 0.00195312 1.82668 0.00195312 4.08V19.8816C0.00195312 22.1349 1.82863 23.9616 4.08195 23.9616H20.498C22.7513 23.9616 24.578 22.1349 24.578 19.8816V4.08C24.578 1.82668 22.7513 0 20.498 0Z" fill="#470137"/>
<path d="M12.9216 6.30144L9.85504 11.3628L13.1358 16.7374C13.157 16.775 13.1628 16.8192 13.1523 16.8611C13.1473 16.8789 13.1363 16.8833 13.1195 16.884L13.1009 16.8837L13.0782 16.8831C13.0659 16.8831 13.0522 16.8837 13.037 16.8862H10.6715L10.6251 16.8854C10.4976 16.8821 10.4057 16.8638 10.3497 16.7703C10.1309 16.3439 9.91101 15.9181 9.6902 15.4927C9.49269 15.1133 9.28979 14.7367 9.08156 14.363L8.9896 14.1985C8.74055 13.7559 8.49599 13.3107 8.25596 12.8631H8.23945C8.01779 13.306 7.7897 13.7457 7.55526 14.182C7.31881 14.6217 7.08524 15.0587 6.85455 15.4927C6.62373 15.927 6.38743 16.3585 6.14569 16.7868C6.10681 16.8742 6.0422 16.8924 5.95225 16.8954L5.91481 16.896H3.65622L3.64643 16.8963L3.61417 16.8992C3.59622 16.9002 3.58547 16.8964 3.58201 16.8693C3.57582 16.8291 3.58463 16.788 3.60678 16.7539L6.7886 11.5277L3.68915 6.28512C3.65622 6.24134 3.65075 6.20563 3.67263 6.17798C3.6848 6.1639 3.70008 6.15284 3.71726 6.14567C3.73443 6.13851 3.75304 6.13544 3.77161 6.1367H6.09615C6.14685 6.13393 6.19753 6.14238 6.24457 6.16147C6.28393 6.18384 6.31782 6.21485 6.34345 6.25219C6.54131 6.69187 6.76115 7.13155 7.00297 7.57104C7.24292 8.00776 7.48748 8.44192 7.7366 8.87347C7.98191 9.29833 8.21016 9.73282 8.42079 10.1759H8.43731C8.65317 9.73293 8.87576 9.29326 9.10499 8.85706C9.33011 8.42842 9.56099 7.9969 9.79734 7.56278C10.0307 7.13424 10.2588 6.70285 10.4815 6.2687C10.4942 6.228 10.5169 6.19114 10.5475 6.16147C10.5882 6.14085 10.634 6.13226 10.6794 6.1367H12.8391C12.859 6.13175 12.8799 6.13338 12.8987 6.14135C12.9176 6.14932 12.9333 6.16319 12.9436 6.18088C12.9539 6.19857 12.9582 6.21913 12.9558 6.23945C12.9534 6.25977 12.9444 6.27876 12.9303 6.29357L12.9217 6.30163L12.9216 6.30144ZM17.7667 17.0988L17.653 17.1001C16.8942 17.1117 16.1423 16.954 15.452 16.6385C14.809 16.3409 14.2715 15.8551 13.9106 15.2454C13.5466 14.641 13.3598 13.8877 13.3504 12.986L13.35 12.9126C13.3438 12.1559 13.5372 11.411 13.9107 10.7529C14.2844 10.1015 14.8292 9.56478 15.4862 9.20093L15.5427 9.17021C16.257 8.7745 17.1198 8.57664 18.1311 8.57664L18.1753 8.57712L18.2258 8.57875L18.2824 8.58125L18.3454 8.5849L18.4512 8.59238L18.571 8.60198L18.6586 8.60966V5.36179C18.6586 5.28499 18.6916 5.2464 18.7575 5.2464H20.8348C20.8483 5.24447 20.862 5.2457 20.8748 5.24999C20.8877 5.25428 20.8994 5.2615 20.909 5.2711C20.9186 5.2807 20.9258 5.2924 20.9301 5.30527C20.9344 5.31815 20.9356 5.33185 20.9337 5.34528V15.0888C20.9337 15.2524 20.9401 15.4286 20.9527 15.6172L20.9835 16.0449L20.9998 16.2923C21.0018 16.3265 20.9934 16.3606 20.9758 16.39C20.9581 16.4194 20.932 16.4429 20.9008 16.4572C20.3649 16.6807 19.8067 16.8464 19.2357 16.9517C18.7509 17.0412 18.2596 17.0904 17.7667 17.0988ZM18.6586 15.0558V10.555C18.5695 10.5309 18.4785 10.5143 18.3867 10.5056C18.2743 10.4943 18.1615 10.4888 18.0486 10.4891C17.6486 10.4851 17.2532 10.5755 16.8946 10.7529C16.5453 10.9265 16.2471 11.1878 16.0291 11.5113C15.8115 11.8296 15.6988 12.2453 15.6915 12.7583L15.6911 12.8137C15.683 13.1731 15.7417 13.5308 15.8642 13.8687C15.9638 14.1411 16.1214 14.3886 16.3259 14.5942C16.5217 14.7833 16.7587 14.9244 17.0183 15.0063C17.2925 15.0951 17.5791 15.1397 17.8673 15.1383C18.0211 15.1383 18.1639 15.1328 18.2959 15.1217C18.4012 15.1138 18.5056 15.0965 18.6077 15.0699L18.6586 15.0558Z" fill="#FF61F6"/>
</g>
<defs>
<clipPath id="clip0_218_7">
<rect width="24.58" height="24" fill="white"/>
</clipPath>
</defs>
</svg>
