<svg width="25" height="24" viewBox="0 0 25 24" fill="none" xmlns="http://www.w3.org/2000/svg">
<g clip-path="url(#clip0_238_9)">
<path d="M20.498 0H4.08195C1.82863 0 0.00195312 1.82668 0.00195312 4.08V19.8816C0.00195312 22.1349 1.82863 23.9616 4.08195 23.9616H20.498C22.7513 23.9616 24.578 22.1349 24.578 19.8816V4.08C24.578 1.82668 22.7513 0 20.498 0Z" fill="#330000"/>
<path d="M11.9111 14.3799H8.10274L7.32783 16.7869C7.31729 16.8308 7.29176 16.8696 7.25564 16.8967C7.21952 16.9238 7.17508 16.9374 7.12998 16.9353H5.20105C5.09113 16.9353 5.05263 16.8748 5.08566 16.7538L8.38297 7.25771C8.4159 7.15883 8.44892 7.04622 8.48185 6.91979C8.52505 6.69976 8.54713 6.47627 8.5478 6.25211C8.54556 6.23643 8.54699 6.22044 8.552 6.20541C8.557 6.19039 8.56543 6.17673 8.57663 6.16552C8.58783 6.15432 8.60148 6.14587 8.6165 6.14086C8.63152 6.13584 8.64751 6.13439 8.66319 6.13662H11.2846C11.3614 6.13662 11.4053 6.16417 11.4165 6.21918L15.1588 16.7703C15.1919 16.8804 15.1588 16.9354 15.06 16.9353H12.9167C12.8799 16.9394 12.8428 16.9299 12.8125 16.9087C12.7822 16.8874 12.7606 16.8559 12.7518 16.8199L11.9111 14.3799ZM8.69622 12.3026H11.3011L11.2639 12.18L11.2043 11.9859L11.1618 11.8496L11.0939 11.6349L10.9496 11.1831L10.8227 10.7824L10.4931 9.73893C10.4111 9.47952 10.3324 9.21908 10.257 8.95768L10.1967 8.74552L10.1262 8.49467L10.0187 8.10587L9.99855 8.03262H9.98214C9.89965 8.42835 9.79919 8.82011 9.68108 9.2067L9.43647 9.99352L9.30188 10.4282L9.16604 10.8683C9.14146 10.9478 9.11708 11.0264 9.0926 11.104L9.01964 11.3343L8.94706 11.5591L8.87487 11.7783L8.80306 11.9921C8.77926 12.0625 8.75545 12.1319 8.73174 12.2005L8.69622 12.3026ZM17.3843 7.88421C17.2162 7.89096 17.0485 7.86214 16.8922 7.79964C16.736 7.73714 16.5947 7.64237 16.4776 7.52152C16.3608 7.39542 16.2701 7.24748 16.2107 7.08621C16.1512 6.92493 16.1243 6.7535 16.1313 6.58177C16.1253 6.41177 16.1553 6.24241 16.2192 6.08477C16.2831 5.92712 16.3796 5.78473 16.5023 5.66689C16.7389 5.43972 17.0541 5.31259 17.3821 5.31198L17.4172 5.31237C17.813 5.31237 18.1235 5.43045 18.3488 5.6668C18.4625 5.7896 18.5509 5.93363 18.6089 6.09063C18.6669 6.24763 18.6933 6.41453 18.6867 6.58177C18.6937 6.75419 18.6658 6.92623 18.605 7.08768C18.5441 7.24913 18.4514 7.3967 18.3323 7.52161C18.2121 7.64008 18.0695 7.73329 17.9127 7.79578C17.7559 7.85827 17.5883 7.88876 17.4195 7.88545L17.3843 7.88421ZM16.2467 16.7703V8.8899C16.2467 8.79102 16.2905 8.74149 16.3786 8.74149H18.4065C18.4944 8.74149 18.5383 8.79092 18.5384 8.8899V16.7703C18.5384 16.8804 18.4945 16.9354 18.4065 16.9353H16.3951C16.3014 16.9353 16.2521 16.8859 16.2472 16.7872L16.2467 16.7703Z" fill="#FF9A00"/>
</g>
<defs>
<clipPath id="clip0_238_9">
<rect width="24.58" height="24" fill="white"/>
</clipPath>
</defs>
</svg>
