<svg width="24" height="24" viewBox="0 0 24 24" fill="none" xmlns="http://www.w3.org/2000/svg">
<path d="M4.42644 20.4008L2.74194 1.5H21.2579L19.5712 20.3978L11.9887 22.5L4.42644 20.4008Z" fill="#1572B6"/>
<path d="M12 20.8935L18.1275 19.1947L19.569 3.04575H12V20.8935Z" fill="#33A9DC"/>
<path d="M12 9.89326H15.0675L15.279 7.51951H12V5.20126H17.8125L17.757 5.82301L17.1877 12.2115H12V9.89326Z" fill="white"/>
<path d="M12.0142 15.9135L12.0037 15.9165L9.42218 15.219L9.25718 13.3702H6.92993L7.25468 17.01L12.0029 18.3285L12.0142 18.3255V15.9135Z" fill="#EBEBEB"/>
<path d="M14.8704 12.1133L14.5914 15.2175L12.0061 15.915V18.327L16.7581 17.01L16.7934 16.6185L17.1961 12.1133H14.8704Z" fill="white"/>
<path d="M12.0082 5.20126V7.51951H6.40868L6.36218 6.99826L6.25643 5.82301L6.20093 5.20126H12.0082ZM11.9999 9.89326V12.2115H9.45068L9.40418 11.6903L9.29918 10.515L9.24368 9.89326H11.9999Z" fill="#EBEBEB"/>
</svg>
