<svg width="24" height="24" viewBox="0 0 24 24" fill="none" xmlns="http://www.w3.org/2000/svg">
<path d="M4.42646 20.4008L2.74121 1.5H21.2587L19.5712 20.3978L11.9887 22.5L4.42646 20.4008Z" fill="#E44F26"/>
<path d="M12 20.8935L18.1275 19.1947L19.569 3.04575H12V20.8935Z" fill="#F1662A"/>
<path d="M12 10.0553H8.9325L8.721 7.6815H12V5.36325H6.1875L6.243 5.98575L6.81225 12.3735H12V10.0553ZM12 16.0755L11.9895 16.0785L9.408 15.3818L9.243 13.533H6.91575L7.2405 17.172L11.9895 18.4905L12 18.4875V16.0755Z" fill="#EBEBEB"/>
<path d="M11.9917 10.0553V12.3735H14.8462L14.5777 15.3803L11.9917 16.0778V18.4897L16.7444 17.172L16.7789 16.7805L17.3234 10.6778L17.3804 10.0553H11.9917ZM11.9917 5.36325V7.6815H17.5912L17.6377 7.161L17.7434 5.98575L17.7989 5.36325H11.9917Z" fill="white"/>
</svg>
