<svg width="24" height="24" viewBox="0 0 24 24" fill="none" xmlns="http://www.w3.org/2000/svg">
<path d="M1.5 1.5H22.5V22.5H1.5V1.5Z" fill="#F5DE19"/>
<path d="M15.6068 17.9062C15.7857 18.2697 16.0637 18.5752 16.4087 18.7875C16.7537 18.9998 17.1517 19.1103 17.5568 19.1062C18.3743 19.1062 18.8971 18.6975 18.8971 18.1312C18.8971 17.4562 18.3601 17.2147 17.4601 16.821L16.9666 16.6095C15.5416 16.0027 14.5966 15.243 14.5966 13.6365C14.5966 12.1567 15.7216 11.0295 17.4863 11.0295C18.0576 10.9882 18.6284 11.1161 19.1275 11.3971C19.6265 11.6781 20.0318 12.0999 20.2928 12.6097L18.7501 13.596C18.6496 13.3432 18.4746 13.1269 18.2484 12.9758C18.0221 12.8247 17.7553 12.746 17.4833 12.75C17.3646 12.7381 17.2448 12.7511 17.1314 12.7881C17.018 12.8251 16.9136 12.8853 16.8247 12.9649C16.7359 13.0445 16.6646 13.1417 16.6154 13.2503C16.5662 13.359 16.5402 13.4767 16.5391 13.596C16.5391 14.1877 16.9058 14.4277 17.7526 14.796L18.2461 15.0075C19.9231 15.7267 20.8711 16.4595 20.8711 18.1072C20.8711 19.884 19.4753 20.8575 17.6011 20.8575C16.8708 20.904 16.1426 20.7382 15.5045 20.3801C14.8664 20.022 14.3455 19.4868 14.0048 18.8392L15.6068 17.9062ZM8.63555 18.0772C8.9453 18.627 9.2273 19.092 9.9053 19.092C10.5533 19.092 10.9628 18.8385 10.9628 17.8522V11.142H12.9361V17.8785C12.9361 19.9215 11.7361 20.8515 9.9893 20.8515C9.37187 20.8852 8.75867 20.7314 8.23032 20.4101C7.70197 20.0888 7.28319 19.6152 7.02905 19.0515L8.63555 18.0772Z" fill="black"/>
</svg>
