<svg width="22" height="24" viewBox="0 0 22 24" fill="none" xmlns="http://www.w3.org/2000/svg">
<g clip-path="url(#clip0_218_49)">
<path d="M10.63 23.9555C10.2999 23.9555 9.9918 23.8675 9.70571 23.7134L6.77862 21.9748C6.33849 21.7327 6.55856 21.6447 6.6906 21.6007C7.28478 21.4026 7.39482 21.3586 8.01101 21.0064C8.07712 20.9624 8.16514 20.9844 8.23108 21.0284L10.476 22.3709C10.564 22.4149 10.674 22.4149 10.74 22.3709L19.5212 17.2871C19.6092 17.2431 19.6533 17.1551 19.6533 17.0451V6.89937C19.6533 6.78933 19.6092 6.7013 19.5212 6.65729L10.74 1.59545C10.652 1.55144 10.542 1.55144 10.476 1.59545L1.69478 6.65737C1.60675 6.70139 1.56274 6.81142 1.56274 6.89945V17.0451C1.56274 17.1331 1.60675 17.2431 1.69478 17.2871L4.0937 18.6736C5.39219 19.3338 6.20636 18.5635 6.20636 17.7933V7.77964C6.20636 7.6476 6.31648 7.51556 6.47053 7.51556H7.59296C7.72501 7.51556 7.85705 7.62559 7.85705 7.77964V17.7932C7.85705 19.5318 6.91067 20.5442 5.26006 20.5442C4.75391 20.5442 4.35778 20.5442 3.23543 19.994L0.924535 18.6736C0.352355 18.3434 0.000244141 17.7272 0.000244141 17.067V6.92146C0.000244141 6.26125 0.352355 5.64505 0.924535 5.31487L9.70571 0.231103C10.2559 -0.0769937 11.0041 -0.0769937 11.5543 0.231103L20.3355 5.31487C20.9076 5.64497 21.2598 6.26117 21.2598 6.92146V17.0671C21.2598 17.7273 20.9076 18.3435 20.3355 18.6736L11.5543 23.7575C11.2682 23.8895 10.9381 23.9556 10.63 23.9556V23.9555ZM13.3369 16.979C9.48556 16.979 8.69331 15.2184 8.69331 13.7218C8.69331 13.5898 8.80334 13.4578 8.95739 13.4578H10.1018C10.2338 13.4578 10.3439 13.5458 10.3439 13.6778C10.52 14.8442 11.0261 15.4165 13.3589 15.4165C15.2076 15.4165 15.9999 14.9983 15.9999 14.008C15.9999 13.4358 15.7799 13.0176 12.8968 12.7314C10.498 12.4894 9.00141 11.9612 9.00141 10.0466C9.00141 8.26388 10.4979 7.20755 13.0068 7.20755C15.8238 7.20755 17.2103 8.17585 17.3864 10.2886C17.3864 10.3546 17.3644 10.4206 17.3204 10.4867C17.2763 10.5307 17.2103 10.5747 17.1443 10.5747H15.9999C15.8898 10.5747 15.7799 10.4867 15.7578 10.3766C15.4937 9.16625 14.8115 8.77012 13.0068 8.77012C10.9822 8.77012 10.74 9.47434 10.74 10.0025C10.74 10.6408 11.0261 10.8388 13.7551 11.1909C16.4621 11.543 17.7385 12.0492 17.7385 13.9419C17.7165 15.8786 16.132 16.979 13.3369 16.979Z" fill="#539E43"/>
</g>
<defs>
<clipPath id="clip0_218_49">
<rect width="21.26" height="24" fill="white"/>
</clipPath>
</defs>
</svg>
