<svg width="25" height="24" viewBox="0 0 25 24" fill="none" xmlns="http://www.w3.org/2000/svg">
<g clip-path="url(#clip0_218_26)">
<path d="M20.498 0H4.08195C1.82863 0 0.00195312 1.82668 0.00195312 4.08V19.8816C0.00195312 22.1349 1.82863 23.9616 4.08195 23.9616H20.498C22.7513 23.9616 24.578 22.1349 24.578 19.8816V4.08C24.578 1.82668 22.7513 0 20.498 0Z" fill="#001E36"/>
<path d="M5.53589 16.8033V6.2685C5.53589 6.1917 5.56891 6.15311 5.63486 6.15311L5.73922 6.15282L5.91758 6.1509L6.16546 6.146L6.99586 6.12844L7.88626 6.11192C8.19941 6.10655 8.50987 6.10367 8.81765 6.10367C9.65285 6.10367 10.3562 6.20812 10.9279 6.41692C11.4436 6.59135 11.9139 6.87857 12.3046 7.25768C12.6357 7.58632 12.8917 7.9829 13.0547 8.42005C13.2089 8.84545 13.2871 9.29467 13.2856 9.74716C13.2856 10.6266 13.0822 11.352 12.6755 11.9234C12.2778 12.4808 11.723 12.9071 11.0819 13.148L11.0269 13.1681C10.3575 13.4178 9.61618 13.5081 8.80315 13.5137L8.67682 13.5141L8.48933 13.5131L8.39477 13.5118L8.28936 13.5093L8.22581 13.5068L8.18722 13.5048L8.09227 13.5013L7.97621 13.4989L7.80149 13.4977L7.76261 13.4976V16.7868C7.7655 16.807 7.76365 16.8276 7.75722 16.8469C7.75078 16.8662 7.73993 16.8838 7.72553 16.8982C7.71112 16.9126 7.69356 16.9234 7.67424 16.9299C7.65491 16.9363 7.63436 16.9381 7.61419 16.9353H5.65138C5.57429 16.9353 5.53589 16.8915 5.53589 16.8033ZM7.7627 8.13148V11.5675C7.89428 11.5781 8.02622 11.5836 8.15822 11.584H8.70235C9.0775 11.5828 9.45046 11.5269 9.80952 11.4182L9.88114 11.3959C10.2078 11.2988 10.4997 11.11 10.722 10.8517C10.9286 10.6081 11.0356 10.2724 11.043 9.8445L11.0435 9.7966C11.0521 9.47768 10.9692 9.163 10.8044 8.88988C10.6311 8.62574 10.3807 8.42137 10.0872 8.30456C9.70401 8.15562 9.29466 8.08554 8.8837 8.09855L8.67461 8.09912L8.5427 8.10028L8.41685 8.10191L8.23925 8.10536L8.10965 8.10901L8.04235 8.11151L7.9524 8.11573L7.87579 8.12044L7.83211 8.12389L7.79438 8.12754L7.77778 8.12946L7.7627 8.13148ZM19.66 10.9427C19.3724 10.7949 19.0673 10.6839 18.752 10.6123L18.6791 10.5966C18.3322 10.517 17.978 10.4731 17.6222 10.4657L17.5333 10.4647C17.3247 10.459 17.1164 10.484 16.9151 10.5389C16.7869 10.5674 16.6729 10.6404 16.5935 10.7449C16.5397 10.8285 16.5111 10.9258 16.5111 11.0252C16.5141 11.1216 16.5489 11.2143 16.61 11.2889C16.6975 11.3912 16.8027 11.477 16.9205 11.5421L16.9562 11.561C17.1913 11.6875 17.4335 11.8004 17.6816 11.8989C18.2349 12.0841 18.7636 12.336 19.256 12.649C19.5915 12.8608 19.8691 13.1526 20.064 13.4982C20.2277 13.8254 20.3097 14.1874 20.303 14.5532C20.3129 15.0364 20.1748 15.511 19.9073 15.9134C19.6209 16.3219 19.2232 16.6395 18.7614 16.8283C18.2779 17.0409 17.684 17.1506 16.98 17.1578L16.9068 17.1582C16.4703 17.1626 16.0345 17.1244 15.6054 17.0441L15.5136 17.0263C15.1524 16.96 14.8008 16.8492 14.4668 16.6965C14.4332 16.6792 14.4048 16.6532 14.3846 16.6214C14.3643 16.5895 14.3528 16.5528 14.3514 16.5151V14.7181C14.3494 14.7007 14.3522 14.683 14.3595 14.6671C14.3667 14.6511 14.3782 14.6374 14.3927 14.6274C14.4068 14.6194 14.4231 14.6159 14.4393 14.6174C14.4554 14.6189 14.4708 14.6252 14.4833 14.6357C14.8777 14.8683 15.306 15.0379 15.7527 15.1385C16.1464 15.2372 16.5503 15.2898 16.9562 15.2952C17.3408 15.2952 17.6238 15.2457 17.8053 15.1468C17.8872 15.1093 17.9565 15.0488 18.0048 14.9727C18.0531 14.8967 18.0783 14.8082 18.0773 14.7181C18.0773 14.5755 17.9949 14.438 17.83 14.306C17.7609 14.2507 17.6617 14.1905 17.5327 14.1255L17.471 14.0952L17.4051 14.0642L17.3706 14.0484L17.2982 14.0164C17.2856 14.0109 17.2731 14.0055 17.2605 14.0001L17.1817 13.967L17.1408 13.9502L17.0557 13.9161L17.0115 13.8989L16.92 13.8636L16.8243 13.8278C16.3067 13.6477 15.8158 13.3981 15.3652 13.0859C15.043 12.8618 14.7776 12.5654 14.5904 12.2204C14.4283 11.8955 14.3463 11.5366 14.3514 11.1735C14.3505 10.7373 14.4703 10.3094 14.6976 9.93704C14.9568 9.52712 15.3288 9.20072 15.7692 8.9974C16.2528 8.75576 16.8572 8.6348 17.5826 8.63461C18.0075 8.6312 18.432 8.66154 18.8521 8.72533C19.1563 8.76391 19.4538 8.84435 19.7359 8.96437C19.7813 8.97743 19.8179 9.01093 19.8348 9.05509C19.846 9.09532 19.8515 9.13688 19.8513 9.17874V10.8439C19.8537 10.8832 19.8348 10.9209 19.8019 10.9427C19.7798 10.9537 19.7555 10.9594 19.7309 10.9594C19.7063 10.9594 19.682 10.9537 19.66 10.9427Z" fill="#31A8FF"/>
</g>
<defs>
<clipPath id="clip0_218_26">
<rect width="24.58" height="24" fill="white"/>
</clipPath>
</defs>
</svg>
