<svg width="24" height="24" viewBox="0 0 24 24" fill="none" xmlns="http://www.w3.org/2000/svg">
<path d="M12 13.8555C13.0355 13.8555 13.875 13.016 13.875 11.9805C13.875 10.945 13.0355 10.1055 12 10.1055C10.9645 10.1055 10.125 10.945 10.125 11.9805C10.125 13.016 10.9645 13.8555 12 13.8555Z" fill="#007ACC"/>
<path d="M12 16.2795C9.74635 16.334 7.49835 16.0302 5.34 15.3795C4.34297 15.0634 3.41305 14.5655 2.59725 13.911C2.28595 13.6874 2.0267 13.3991 1.83731 13.0658C1.64791 12.7326 1.53284 12.3624 1.5 11.9805C1.5 10.7407 2.862 9.52574 5.1435 8.73074C7.35955 8.0263 9.67494 7.68489 12 7.71974C14.294 7.68769 16.5784 8.02292 18.7665 8.71274C19.7267 9.01885 20.6251 9.49268 21.42 10.1122C21.726 10.3254 21.9813 10.6033 22.168 10.9261C22.3546 11.249 22.468 11.6089 22.5 11.9805C22.5 13.269 20.9775 14.5747 18.525 15.3862C16.4084 16.0158 14.2079 16.317 12 16.2795ZM12 8.61674C9.77559 8.587 7.56062 8.91156 5.43825 9.57824C3.33825 10.311 2.397 11.313 2.397 11.9782C2.397 12.6742 3.40875 13.7685 5.63025 14.5282C7.69505 15.1476 9.84496 15.436 12 15.3825C14.1123 15.4203 16.2179 15.1344 18.2438 14.535C20.55 13.7707 21.6 12.675 21.6 11.9805C21.5622 11.7422 21.4753 11.5143 21.3449 11.3112C21.2145 11.1081 21.0435 10.9343 20.8425 10.8007C20.1313 10.2511 19.3288 9.83117 18.4717 9.56024C16.3785 8.90305 14.1937 8.58454 12 8.61674Z" fill="#007ACC"/>
<path d="M7.73995 21.3323C7.39008 21.3403 7.04433 21.2554 6.73795 21.0863C5.66395 20.4668 5.29195 18.6803 5.7427 16.3065C6.23969 14.0348 7.1008 11.8585 8.2927 9.86176C9.41075 7.85859 10.8421 6.0472 12.5325 4.49626C13.2773 3.81729 14.1366 3.27567 15.0705 2.89651C15.4082 2.73821 15.7767 2.65616 16.1497 2.65616C16.5227 2.65616 16.8912 2.73821 17.229 2.89651C18.3457 3.54001 18.7155 5.51101 18.1942 8.04076C17.6819 10.1892 16.8431 12.2463 15.7072 14.1405C14.6285 16.12 13.2422 17.9157 11.6002 19.4603C10.8283 20.1658 9.93245 20.7225 8.95795 21.102C8.56782 21.2468 8.15602 21.3247 7.73995 21.3323ZM9.0697 10.3073C7.93277 12.2193 7.10745 14.3 6.6247 16.4715C6.20995 18.6578 6.6082 19.9725 7.1872 20.307C7.7872 20.6543 9.2437 20.325 11.0122 18.78C12.5797 17.3002 13.9029 15.5814 14.9325 13.6875C16.0207 11.8766 16.8252 9.90987 17.3182 7.85551C17.8087 5.47426 17.385 4.01626 16.7835 3.66976C16.558 3.58338 16.3171 3.54471 16.076 3.5562C15.8348 3.56769 15.5987 3.62909 15.3825 3.73651C14.5512 4.07952 13.787 4.56648 13.125 5.17501C11.51 6.6606 10.1427 8.39471 9.07495 10.3118L9.0697 10.3073Z" fill="#007ACC"/>
<path d="M16.2578 21.342C15.2415 21.342 13.9508 20.727 12.6068 19.5713C10.8868 18.0062 9.43127 16.1733 8.29653 14.1435C7.11958 12.1743 6.26529 10.0294 5.76603 7.79026C5.54952 6.80513 5.50939 5.78941 5.64753 4.79026C5.67947 4.41962 5.79233 4.06049 5.97816 3.73821C6.16399 3.41593 6.41825 3.13834 6.72303 2.92501C7.83828 2.27926 9.73053 2.94301 11.6618 4.65751C13.2672 6.17415 14.6306 7.92804 15.7043 9.85801C16.8805 11.7813 17.7438 13.8792 18.2618 16.0733C18.4876 17.0945 18.5225 18.1488 18.3645 19.1828C18.327 19.5641 18.2074 19.9327 18.014 20.2635C17.8206 20.5943 17.5579 20.8793 17.244 21.099C16.9427 21.2661 16.6023 21.3499 16.2578 21.342ZM9.07278 13.692C10.1614 15.6318 11.5518 17.386 13.1918 18.8888C14.8785 20.34 16.2165 20.652 16.7918 20.3138C17.3918 19.965 17.8343 18.5415 17.3783 16.2383C16.8787 14.1435 16.0507 12.1409 14.925 10.305C13.9004 8.45786 12.5991 6.77841 11.0663 5.32501C9.24828 3.71101 7.77378 3.35026 7.17303 3.69826C6.98579 3.85043 6.83213 4.03976 6.72176 4.2543C6.61139 4.46885 6.5467 4.70395 6.53178 4.94476C6.41254 5.83583 6.45138 6.74094 6.64653 7.61851C7.12676 9.75987 7.94609 11.8107 9.07353 13.6935L9.07278 13.692Z" fill="#007ACC"/>
</svg>
