<svg width="24" height="24" viewBox="0 0 24 24" fill="none" xmlns="http://www.w3.org/2000/svg">
<path d="M6.08175 3.195L12 2.57475L17.9183 3.19575L22.5 9.3L12 21.4253L1.5 9.3L6.08175 3.195Z" fill="#FDB300"/>
<path d="M5.75325 9.29625L12 21.4252L1.5 9.29625H5.75325ZM18.2468 9.29625L12 21.4252L22.5 9.29625H18.2468Z" fill="#EA6C00"/>
<path d="M5.75317 9.29625H18.2467L11.9999 21.4252L5.75317 9.29625Z" fill="#FDAD00"/>
<path d="M11.9999 2.57475L6.08167 3.195L5.75317 9.29625L11.9999 2.57475ZM11.9999 2.57475L17.9182 3.195L18.2467 9.29625L11.9999 2.57475Z" fill="#FDD231"/>
<path d="M22.5 9.29626L17.9183 3.19501L18.2468 9.29626H22.5ZM1.5 9.29626L6.08175 3.19501L5.75325 9.29626H1.5Z" fill="#FDAD00"/>
<path d="M11.9999 2.57475L5.75317 9.29625H18.2467L11.9999 2.57475Z" fill="#FEEEB7"/>
</svg>
