<svg width="16" height="16" viewBox="0 0 16 16" fill="none" xmlns="http://www.w3.org/2000/svg">
<path d="M9.07075 14.4786L9.58791 14.8724L9.59377 14.8647L9.5994 14.8568L9.07075 14.4786ZM6.92884 14.4786L6.41205 14.8729L6.41261 14.8736L6.92884 14.4786ZM8 8.37637V7.72637H7.9998L8 8.37637ZM8.00041 15.65C8.61922 15.65 9.21101 15.3674 9.58791 14.8724L8.5536 14.0849C8.43075 14.2462 8.22706 14.35 8.00041 14.35V15.65ZM14.15 6.2834C14.15 2.98189 11.3714 0.35 8 0.35V1.65C10.7033 1.65 12.85 3.74865 12.85 6.2834H14.15ZM8 0.35C4.62767 0.35 1.85 2.98195 1.85 6.2834H3.15C3.15 3.74859 5.29599 1.65 8 1.65V0.35ZM1.85 6.2834C1.85 6.9336 2.0647 7.66994 2.36625 8.39994C2.67274 9.1419 3.09314 9.93381 3.55579 10.7116C4.48143 12.2676 5.60563 13.8158 6.41205 14.8729L7.44563 14.0844C6.65206 13.0441 5.56184 11.541 4.67306 10.0469C4.2285 9.2996 3.84169 8.56673 3.56777 7.90361C3.28891 7.22853 3.15 6.67948 3.15 6.2834H1.85ZM6.41261 14.8736C6.79031 15.3672 7.3813 15.65 8.00041 15.65V14.35C7.77406 14.35 7.56956 14.2464 7.44506 14.0836L6.41261 14.8736ZM6.36226 6.17912C6.36226 5.34902 7.07036 4.63187 8 4.63187V3.33187C6.40227 3.33187 5.06226 4.58217 5.06226 6.17912H6.36226ZM8 4.63187C8.92915 4.63187 9.63733 5.34895 9.63733 6.17912H10.9373C10.9373 4.58224 9.5974 3.33187 8 3.33187V4.63187ZM9.63733 6.17912C9.63733 7.00929 8.92915 7.72637 8 7.72637V9.02637C9.5974 9.02637 10.9373 7.776 10.9373 6.17912H9.63733ZM7.9998 7.72637C7.07043 7.72666 6.36226 7.00972 6.36226 6.17912H5.06226C5.06226 7.77636 6.4022 9.02687 8.0002 9.02637L7.9998 7.72637ZM9.5994 14.8568C10.0029 14.2928 10.4734 13.6928 10.9736 13.0367C11.4681 12.388 11.9828 11.6955 12.4478 10.9771C13.3677 9.55598 14.15 7.95006 14.15 6.2834H12.85C12.85 7.56355 12.24 8.90572 11.3565 10.2707C10.9197 10.9455 10.4299 11.6055 9.93976 12.2485C9.45529 12.8841 8.96093 13.515 8.5421 14.1004L9.5994 14.8568Z" fill="#44566C"/>
</svg>
