<svg width="40" height="40" viewBox="0 0 40 40" fill="none" xmlns="http://www.w3.org/2000/svg">
<path d="M5 33C5 33.5523 5.44772 34 6 34C6.55228 34 7 33.5523 7 33H5ZM25 5C24.4477 5 24 5.44772 24 6C24 6.55228 24.4477 7 25 7V5ZM34 7C34.5523 7 35 6.55228 35 6C35 5.44772 34.5523 5 34 5V7ZM25 14C24.4477 14 24 14.4477 24 15C24 15.5523 24.4477 16 25 16V14ZM34 16C34.5523 16 35 15.5523 35 15C35 14.4477 34.5523 14 34 14V16ZM25 9.5C24.4477 9.5 24 9.94772 24 10.5C24 11.0523 24.4477 11.5 25 11.5V9.5ZM34 11.5C34.5523 11.5 35 11.0523 35 10.5C35 9.94772 34.5523 9.5 34 9.5V11.5ZM11 18.5C10.4477 18.5 10 18.9477 10 19.5C10 20.0523 10.4477 20.5 11 20.5V18.5ZM34 20.5C34.5523 20.5 35 20.0523 35 19.5C35 18.9477 34.5523 18.5 34 18.5V20.5ZM11 23C10.4477 23 10 23.4477 10 24C10 24.5523 10.4477 25 11 25V23ZM34 25C34.5523 25 35 24.5523 35 24C35 23.4477 34.5523 23 34 23V25ZM11 27.5C10.4477 27.5 10 27.9477 10 28.5C10 29.0523 10.4477 29.5 11 29.5V27.5ZM34 29.5C34.5523 29.5 35 29.0523 35 28.5C35 27.9477 34.5523 27.5 34 27.5V29.5ZM11 32C10.4477 32 10 32.4477 10 33C10 33.5523 10.4477 34 11 34V32ZM24 34C24.5523 34 25 33.5523 25 33C25 32.4477 24.5523 32 24 32V34ZM8 2H37V0H8V2ZM38 3V37H40V3H38ZM37 38H3V40H37V38ZM2 37V9H0V37H2ZM7 33V7H5V33H7ZM7 7V3H5V7H7ZM3 8H6V6H3V8ZM10 8V13H12V8H10ZM13 16H18V14H13V16ZM21 13V8H19V13H21ZM18 5H13V7H18V5ZM25 7H34V5H25V7ZM25 16H34V14H25V16ZM25 11.5H34V9.5H25V11.5ZM11 20.5H34V18.5H11V20.5ZM11 25H34V23H11V25ZM11 29.5H34V27.5H11V29.5ZM11 34H24V32H11V34ZM21 8C21 6.34315 19.6569 5 18 5V7C18.5523 7 19 7.44772 19 8H21ZM18 16C19.6569 16 21 14.6569 21 13H19C19 13.5523 18.5523 14 18 14V16ZM10 13C10 14.6569 11.3431 16 13 16V14C12.4477 14 12 13.5523 12 13H10ZM12 8C12 7.44772 12.4477 7 13 7V5C11.3431 5 10 6.34315 10 8H12ZM2 9C2 8.44772 2.44772 8 3 8V6C1.34315 6 0 7.34315 0 9H2ZM3 38C2.44771 38 2 37.5523 2 37H0C0 38.6569 1.34314 40 3 40V38ZM38 37C38 37.5523 37.5523 38 37 38V40C38.6569 40 40 38.6569 40 37H38ZM37 2C37.5523 2 38 2.44772 38 3H40C40 1.34315 38.6569 0 37 0V2ZM8 0C6.34315 0 5 1.34315 5 3H7C7 2.44772 7.44772 2 8 2V0Z" fill="white"/>
</svg>
