<svg width="16" height="18" viewBox="0 0 16 18" fill="none" xmlns="http://www.w3.org/2000/svg">
<path d="M7.5 13.85C7.14101 13.85 6.85 14.141 6.85 14.5C6.85 14.859 7.14101 15.15 7.5 15.15V13.85ZM8.5 15.15C8.85898 15.15 9.15 14.859 9.15 14.5C9.15 14.141 8.85898 13.85 8.5 13.85V15.15ZM6.5 2.5H5.85C5.85 2.85899 6.14101 3.15 6.5 3.15V2.5ZM9.5 2.5V3.15C9.85898 3.15 10.15 2.85899 10.15 2.5H9.5ZM4.5 17.15H11.5V15.85H4.5V17.15ZM7.5 15.15H8V13.85H7.5V15.15ZM8 15.15H8.5V13.85H8V15.15ZM6.5 0.85H4.5V2.15H6.5V0.85ZM5.85 1.5V2.5H7.15V1.5H5.85ZM6.5 3.15H9.5V1.85H6.5V3.15ZM11.5 0.85H9.5V2.15H11.5V0.85ZM9.5 0.85H6.5V2.15H9.5V0.85ZM10.15 2.5V1.5H8.85V2.5H10.15ZM13.15 15.5V2.5H11.85V15.5H13.15ZM2.85 2.5V15.5H4.15V2.5H2.85ZM11.5 2.15C11.6933 2.15 11.85 2.3067 11.85 2.5H13.15C13.15 1.58873 12.4113 0.85 11.5 0.85V2.15ZM11.5 17.15C12.4113 17.15 13.15 16.4113 13.15 15.5H11.85C11.85 15.6933 11.6933 15.85 11.5 15.85V17.15ZM4.5 15.85C4.3067 15.85 4.15 15.6933 4.15 15.5H2.85C2.85 16.4113 3.58873 17.15 4.5 17.15V15.85ZM4.5 0.85C3.58873 0.85 2.85 1.58873 2.85 2.5H4.15C4.15 2.3067 4.3067 2.15 4.5 2.15V0.85Z" fill="#44566C"/>
</svg>
