<svg width="18" height="16" viewBox="0 0 18 16" fill="none" xmlns="http://www.w3.org/2000/svg">
<path d="M1.98301 6.95835C1.98301 6.59937 1.69199 6.30835 1.33301 6.30835C0.974023 6.30835 0.683008 6.59937 0.683008 6.95835H1.98301ZM17.3163 6.95835C17.3163 6.59937 17.0253 6.30835 16.6663 6.30835C16.3074 6.30835 16.0163 6.59937 16.0163 6.95835H17.3163ZM8.49347 8.86957L8.16444 9.43014L8.49347 8.86957ZM3.33301 14.9834H14.6663V13.6834H3.33301V14.9834ZM14.7586 1.01669H3.2407V2.31669H14.7586V1.01669ZM1.946 5.78018L8.16444 9.43014L8.82251 8.309L2.60406 4.65904L1.946 5.78018ZM9.83491 9.43014L16.0534 5.78018L15.3953 4.65904L9.17685 8.309L9.83491 9.43014ZM0.683008 6.95835V12.3334H1.98301V6.95835H0.683008ZM17.3163 12.3334V6.95835H16.0163V12.3334H17.3163ZM16.0163 3.57438C16.0163 4.02049 15.78 4.43322 15.3953 4.65904L16.0534 5.78018C16.8358 5.32094 17.3163 4.48161 17.3163 3.57438H16.0163ZM8.16444 9.43014C8.68013 9.73283 9.31922 9.73282 9.83491 9.43014L9.17685 8.309C9.06746 8.37321 8.93189 8.3732 8.82251 8.309L8.16444 9.43014ZM0.683008 3.57438C0.683008 4.48161 1.16359 5.32094 1.946 5.78018L2.60406 4.65904C2.21933 4.43322 1.98301 4.02049 1.98301 3.57438H0.683008ZM14.7586 2.31669C15.4533 2.31669 16.0163 2.87978 16.0163 3.57438H17.3163C17.3163 2.16181 16.1712 1.01669 14.7586 1.01669V2.31669ZM14.6663 14.9834C16.1299 14.9834 17.3163 13.7969 17.3163 12.3334H16.0163C16.0163 13.0789 15.4119 13.6834 14.6663 13.6834V14.9834ZM3.33301 13.6834C2.58742 13.6834 1.98301 13.0789 1.98301 12.3334H0.683008C0.683008 13.7969 1.86945 14.9834 3.33301 14.9834V13.6834ZM3.2407 1.01669C1.82813 1.01669 0.683008 2.16181 0.683008 3.57438H1.98301C1.98301 2.87978 2.5461 2.31669 3.2407 2.31669V1.01669Z" fill="#44566C"/>
</svg>
