<svg width="18" height="16" viewBox="0 0 18 16" fill="none" xmlns="http://www.w3.org/2000/svg">
<path d="M1.33301 5.66667H0.683008C0.683008 6.02565 0.974023 6.31667 1.33301 6.31667L1.33301 5.66667ZM16.6663 5.66667V6.31667C17.0253 6.31667 17.3163 6.02565 17.3163 5.66667H16.6663ZM1.98301 7.66667C1.98301 7.30768 1.69199 7.01667 1.33301 7.01667C0.974023 7.01667 0.683008 7.30768 0.683008 7.66667H1.98301ZM17.3163 7.66667C17.3163 7.30768 17.0253 7.01667 16.6663 7.01667C16.3074 7.01667 16.0163 7.30768 16.0163 7.66667H17.3163ZM4.01634 3.33333C4.01634 3.69232 4.30736 3.98333 4.66634 3.98333C5.02533 3.98333 5.31634 3.69232 5.31634 3.33333H4.01634ZM5.31634 1C5.31634 0.641015 5.02533 0.35 4.66634 0.35C4.30736 0.35 4.01634 0.641015 4.01634 1H5.31634ZM13.983 1C13.983 0.641015 13.692 0.35 13.333 0.35C12.974 0.35 12.683 0.641015 12.683 1H13.983ZM12.683 3.33333C12.683 3.69232 12.974 3.98333 13.333 3.98333C13.692 3.98333 13.983 3.69232 13.983 3.33333H12.683ZM4.66634 8.35C4.30736 8.35 4.01634 8.64102 4.01634 9C4.01634 9.35898 4.30736 9.65 4.66634 9.65V8.35ZM13.333 9.65C13.692 9.65 13.983 9.35898 13.983 9C13.983 8.64102 13.692 8.35 13.333 8.35V9.65ZM4.66634 11.0167C4.30736 11.0167 4.01634 11.3077 4.01634 11.6667C4.01634 12.0257 4.30736 12.3167 4.66634 12.3167V11.0167ZM9.33301 12.3167C9.69199 12.3167 9.98301 12.0257 9.98301 11.6667C9.98301 11.3077 9.69199 11.0167 9.33301 11.0167V12.3167ZM2.33301 15.65H15.6663V14.35H2.33301V15.65ZM15.6663 1.68333H2.33301V2.98333H15.6663V1.68333ZM0.683008 3.33333V5.66667H1.98301V3.33333H0.683008ZM17.3163 5.66667V3.33333H16.0163V5.66667H17.3163ZM1.33301 6.31667H16.6663V5.01667H1.33301V6.31667ZM0.683008 7.66667V14H1.98301V7.66667H0.683008ZM17.3163 14V7.66667H16.0163V14H17.3163ZM5.31634 3.33333V1H4.01634V3.33333H5.31634ZM12.683 1V3.33333H13.983V1H12.683ZM4.66634 9.65H13.333V8.35H4.66634V9.65ZM4.66634 12.3167H9.33301V11.0167H4.66634V12.3167ZM15.6663 2.98333C15.8596 2.98333 16.0163 3.14003 16.0163 3.33333H17.3163C17.3163 2.42206 16.5776 1.68333 15.6663 1.68333V2.98333ZM15.6663 15.65C16.5776 15.65 17.3163 14.9113 17.3163 14H16.0163C16.0163 14.1933 15.8596 14.35 15.6663 14.35V15.65ZM2.33301 14.35C2.13971 14.35 1.98301 14.1933 1.98301 14H0.683008C0.683008 14.9113 1.42174 15.65 2.33301 15.65V14.35ZM2.33301 1.68333C1.42174 1.68333 0.683008 2.42206 0.683008 3.33333H1.98301C1.98301 3.14003 2.13971 2.98333 2.33301 2.98333V1.68333Z" fill="#44566C"/>
</svg>
