<svg width="16" height="16" viewBox="0 0 16 16" fill="none" xmlns="http://www.w3.org/2000/svg">
<path d="M6.15 9.72402C6.15 9.36503 5.85899 9.07402 5.5 9.07402C5.14101 9.07402 4.85 9.36503 4.85 9.72402H6.15ZM9.60686 6.15166C9.60686 6.51064 9.89788 6.80166 10.2569 6.80166C10.6158 6.80166 10.9069 6.51064 10.9069 6.15166H9.60686ZM14.5045 9.16877L13.8651 9.0517C13.838 9.19993 13.8632 9.35298 13.9364 9.48467L14.5045 9.16877ZM14.0948 5.38804L13.4959 5.64075L13.496 5.64102L14.0948 5.38804ZM12.6778 3.28165L12.2174 3.74052L12.2178 3.74088L12.6778 3.28165ZM10.5768 1.8617L10.8307 1.26332L10.8307 1.26331L10.5768 1.8617ZM6.75212 1.45944L6.84114 2.10331C6.85247 2.10174 6.86375 2.09988 6.87498 2.09772L6.75212 1.45944ZM6.74902 1.45986L6.44329 2.03347C6.56418 2.09791 6.70234 2.1225 6.83804 2.10374L6.74902 1.45986ZM2.1463 2.14929L2.60651 2.60832L2.60657 2.60825L2.1463 2.14929ZM1.4924 6.82534L2.13283 6.9365C2.15819 6.79035 2.13281 6.63992 2.06089 6.51018L1.4924 6.82534ZM1.91281 10.5471L2.51184 10.2948L2.51157 10.2941L1.91281 10.5471ZM3.32892 12.6534L2.86866 13.1123L2.86891 13.1126L3.32892 12.6534ZM5.43065 14.0731L5.68486 13.4749L5.68373 13.4744L5.43065 14.0731ZM9.16168 14.4915L9.4823 13.9261C9.3506 13.8514 9.19697 13.8251 9.04791 13.8516L9.16168 14.4915ZM13.8538 13.8513L13.3938 13.392L13.3935 13.3923L13.8538 13.8513ZM8.02131 10.6833C6.46693 10.6833 6.15 9.90428 6.15 9.72402H4.85C4.85 10.9226 6.09172 11.9833 8.02131 11.9833V10.6833ZM6.16664 6.61176C6.16664 6.12838 6.3629 5.83982 6.64732 5.64652C6.96236 5.43242 7.42264 5.31667 7.92038 5.31667V4.01667C7.25399 4.01667 6.51241 4.16641 5.9166 4.57133C5.29018 4.99705 4.86664 5.68104 4.86664 6.61176H6.16664ZM7.92038 5.31667C8.34209 5.31667 8.81205 5.44554 9.16078 5.65103C9.53464 5.87131 9.60686 6.07075 9.60686 6.15166H10.9069C10.9069 5.38417 10.347 4.84111 9.82074 4.531C9.26933 4.20609 8.57104 4.01667 7.92038 4.01667V5.31667ZM9.85 9.66667C9.85 10.0337 9.6991 10.2456 9.424 10.4024C9.10582 10.5837 8.61574 10.6833 8.02131 10.6833V11.9833C8.72068 11.9833 9.46994 11.8724 10.0677 11.5318C10.7084 11.1667 11.15 10.5452 11.15 9.66667H9.85ZM4.86664 6.61176C4.86664 7.04653 4.97165 7.4347 5.19587 7.75946C5.41757 8.08055 5.72048 8.28852 6.03087 8.42674C6.61664 8.68759 7.35948 8.74976 7.9491 8.80369C8.60772 8.86394 9.11205 8.91573 9.46305 9.06772C9.62106 9.13615 9.706 9.20895 9.75482 9.27813C9.80047 9.3428 9.85 9.45397 9.85 9.66667H11.15C11.15 9.23533 11.0438 8.84995 10.8169 8.5285C10.5932 8.21155 10.2888 8.00866 9.97965 7.87477C9.39626 7.62214 8.65475 7.56282 8.06753 7.5091C7.41132 7.44907 6.90832 7.39441 6.5597 7.23917C6.40291 7.16934 6.31649 7.09446 6.26566 7.02084C6.21736 6.95088 6.16664 6.83248 6.16664 6.61176H4.86664ZM15.1439 9.28584C15.2229 8.85412 15.2646 8.41139 15.2646 7.96745H13.9646C13.9646 8.33039 13.9305 8.69475 13.8651 9.0517L15.1439 9.28584ZM15.2646 7.96745C15.2646 6.98694 15.0729 6.03303 14.6935 5.13506L13.496 5.64102C13.807 6.37714 13.9646 7.15883 13.9646 7.96745H15.2646ZM14.6936 5.13532C14.328 4.26883 13.8043 3.49005 13.1378 2.82243L12.2178 3.74088C12.7662 4.29021 13.1955 4.92882 13.4959 5.64075L14.6936 5.13532ZM13.1382 2.82279C12.4724 2.15484 11.6948 1.62993 10.8307 1.26332L10.323 2.46007C11.0326 2.76115 11.67 3.1913 12.2174 3.74052L13.1382 2.82279ZM10.8307 1.26331C9.93488 0.883317 8.98267 0.69091 8.00395 0.69091V1.99091C8.80984 1.99091 9.58926 2.14883 10.323 2.46008L10.8307 1.26331ZM8.00395 0.69091C7.54283 0.69091 7.08041 0.734311 6.62926 0.821154L6.87498 2.09772C7.24372 2.02674 7.62383 1.99091 8.00395 1.99091V0.69091ZM6.6631 0.815561L6.66 0.815989L6.83804 2.10374L6.84114 2.10331L6.6631 0.815561ZM7.05476 0.886255C6.39918 0.536835 5.66177 0.35 4.91368 0.35V1.65C5.44626 1.65 5.97393 1.7833 6.44329 2.03347L7.05476 0.886255ZM4.91368 0.35C3.69544 0.35 2.547 0.826898 1.68603 1.69032L2.60657 2.60825C3.22388 1.98919 4.0412 1.65 4.91368 1.65V0.35ZM1.68609 1.69025C0.82541 2.55314 0.35 3.70353 0.35 4.92335H1.65C1.65 4.0474 1.98913 3.22727 2.60651 2.60832L1.68609 1.69025ZM0.35 4.92335C0.35 5.70124 0.549602 6.4653 0.923915 7.1405L2.06089 6.51018C1.79284 6.02667 1.65 5.47934 1.65 4.92335H0.35ZM0.851976 6.71418C0.780695 7.12486 0.742853 7.54569 0.742853 7.96745H2.04285C2.04285 7.62302 2.0738 7.27659 2.13283 6.9365L0.851976 6.71418ZM0.742853 7.96745C0.742853 8.94824 0.934675 9.90202 1.31405 10.8L2.51157 10.2941C2.20052 9.55783 2.04285 8.77623 2.04285 7.96745H0.742853ZM1.31378 10.7994C1.67904 11.6666 2.20306 12.4449 2.86866 13.1123L3.78917 12.1944C3.24097 11.6447 2.81159 11.0064 2.51184 10.2948L1.31378 10.7994ZM2.86891 13.1126C3.53488 13.7797 4.31148 14.3057 5.17757 14.6718L5.68373 13.4744C4.97435 13.1745 4.33783 12.744 3.78893 12.1941L2.86891 13.1126ZM5.17644 14.6713C6.07252 15.0521 7.02508 15.2446 8.00384 15.2446V13.9446C7.198 13.9446 6.41851 13.7866 5.68486 13.4749L5.17644 14.6713ZM8.00384 15.2446C8.43168 15.2446 8.85908 15.2055 9.27545 15.1315L9.04791 13.8516C8.70421 13.9127 8.35296 13.9446 8.00384 13.9446V15.2446ZM8.84107 15.057C9.52376 15.4441 10.297 15.65 11.0871 15.65V14.35C10.5232 14.35 9.97069 14.203 9.4823 13.9261L8.84107 15.057ZM11.0871 15.65C12.3049 15.65 13.4529 15.174 14.3141 14.3102L13.3935 13.3923C12.7762 14.0114 11.9595 14.35 11.0871 14.35V15.65ZM14.3138 14.3105C15.1752 13.4478 15.65 12.297 15.65 11.0774H14.35C14.35 11.9536 14.0111 12.7737 13.3938 13.392L14.3138 14.3105ZM15.65 11.0774C15.65 10.297 15.4494 9.53053 15.0726 8.85287L13.9364 9.48467C14.2064 9.97022 14.35 10.5194 14.35 11.0774H15.65Z" fill="#44566C"/>
</svg>
