<svg width="34" height="34" viewBox="0 0 34 34" fill="none" xmlns="http://www.w3.org/2000/svg">
<path fill-rule="evenodd" clip-rule="evenodd" d="M9.62644 6.14163L11.0995 7.02315C11.3631 7.18094 11.4232 7.53679 11.2282 7.77423C9.07599 10.3944 7.12216 13.2357 7.12195 16.7563C10.0635 16.7563 13.0949 19.1512 13.0949 22.2173C13.0949 26.5003 9.61052 29.1677 6.12633 28.6712C2.64214 28.1748 0.58078 25.6925 0.153573 22.7138C-0.826376 15.881 2.98832 9.72814 8.60376 6.14885C8.9145 5.95079 9.31024 5.95241 9.62644 6.14163ZM30.5316 6.14241L32.0046 7.02393C32.2683 7.18172 32.3284 7.53757 32.1333 7.77501C29.9811 10.3951 28.0273 13.2365 28.0271 16.7571C30.9687 16.7571 34 19.152 34 22.2181C34 26.5011 30.5157 29.1685 27.0315 28.672C23.5473 28.1756 21.4859 25.6933 21.0587 22.7146C20.0788 15.8818 23.8935 9.72891 29.5089 6.14963C29.8196 5.95156 30.2154 5.95318 30.5316 6.14241Z" fill="#0045FF"/>
</svg>
