<svg width="419" height="464" viewBox="0 0 419 464" fill="none" xmlns="http://www.w3.org/2000/svg">
<path d="M0.00585938 205.813V102.84L89.1239 154.316V154.359L0.00585938 205.813Z" fill="#8B181D"/>
<path d="M0.00585938 102.84V102.761L89.0125 51.3856L89.1239 51.4539V154.316L0.00585938 102.84Z" fill="#8B181D"/>
<path d="M89.124 154.204V51.4542L89.2139 51.4092L178.186 102.795L89.124 154.204Z" fill="#8B181D"/>
<path d="M89.124 154.359V154.204L178.186 102.795L178.253 102.84V205.813L89.124 154.359Z" fill="#EF2E29"/>
<path d="M89.1318 360.174V257.199L178.248 308.675V308.72L89.1318 360.174Z" fill="#16B1B2"/>
<path d="M89.1318 257.199V257.122L178.138 205.746L178.248 205.813V308.675L89.1318 257.199Z" fill="#0F2832"/>
<path d="M118.69 368.622V368.597L148.65 351.304L148.686 351.325V385.949L118.69 368.622Z" fill="#0F2832"/>
<path d="M89.1318 257.122V154.359L178.138 205.747L89.1318 257.122Z" fill="#0F2832"/>
<path d="M0.0908203 205.768L89.1316 154.359V257.122L89.0651 257.154L0.0908203 205.768Z" fill="#0B8A97"/>
<path d="M0 411.738V411.582L89.0641 360.174L89.1306 360.217V463.19L0 411.738Z" fill="#16B1B2"/>
<path d="M0.00585938 205.813V102.84L89.1239 154.316V154.359L0.00585938 205.813Z" fill="#EF2E29"/>
<path d="M0.00585938 102.84V102.761L89.0125 51.3856L89.1239 51.4539V154.316L0.00585938 102.84Z" fill="#EF2E29"/>
<path d="M89.2139 51.4091L178.253 -0.000222246V102.761L178.186 102.795L89.2139 51.4091Z" fill="#EF2E29"/>
<path d="M89.124 154.204V51.4542L89.2139 51.4092L178.186 102.795L89.124 154.204Z" fill="#EF2E29"/>
<path d="M178.253 205.813V102.84L267.371 154.316V154.359L178.253 205.813Z" fill="#EF2E29"/>
<path d="M178.253 102.84V102.761L267.261 51.3856L267.371 51.4539V154.316L178.253 102.84Z" fill="#F2531B"/>
<path d="M89.124 154.359V154.204L178.186 102.795L178.253 102.84V205.813L89.124 154.359Z" fill="#F7972A"/>
<path d="M267.371 154.204V51.4542L267.461 51.4092L356.435 102.795L267.371 154.204Z" fill="#F7972A"/>
<path d="M382.773 123.676V81.9547L382.809 81.9367L418.937 102.802L382.773 123.676Z" fill="#FBCB86"/>
<path d="M267.378 360.174V257.199L356.496 308.675V308.72L267.378 360.174Z" fill="#FBCB86"/>
<path d="M178.338 205.768L267.379 154.359V257.122L267.312 257.154L178.338 205.768Z" fill="#F46B34"/>
<path d="M178.247 308.563V205.813L178.337 205.768L267.311 257.154L178.247 308.563Z" fill="#F46B34"/>
<path d="M178.247 308.72V308.563L267.311 257.154L267.378 257.199V360.174L178.247 308.72Z" fill="#F7972A"/>
<path d="M178.253 205.813V102.84L267.371 154.316V154.359L178.253 205.813Z" fill="#F7972A"/>
<path d="M178.253 102.84V102.761L267.261 51.3856L267.371 51.4539V154.316L178.253 102.84Z" fill="#F7972A"/>
<path d="M178.253 102.761V-0.000250223L267.261 51.3857L178.253 102.761Z" fill="#F2531B"/>
<path d="M89.2139 51.4091L178.253 -0.000222246V102.761L178.186 102.795L89.2139 51.4091Z" fill="#8B181D"/>
<path d="M89.124 154.359V154.204L178.186 102.795L178.253 102.84V205.813L89.124 154.359Z" fill="#F7972A"/>
</svg>
