<svg width="446" height="675" viewBox="0 0 446 675" fill="none" xmlns="http://www.w3.org/2000/svg">
<path d="M445.892 314.269V417.24L356.777 365.765V365.72L445.892 314.269Z" fill="#8B181D"/>
<path d="M445.892 417.241V417.318L356.885 468.693L356.777 468.626V365.765L445.892 417.241Z" fill="#8B181D"/>
<path d="M356.778 365.876V468.626L356.689 468.671L267.718 417.286L356.778 365.876Z" fill="#8B181D"/>
<path d="M356.779 365.72V365.876L267.718 417.285L267.646 417.24V314.269L356.779 365.72Z" fill="#EF2E29"/>
<path d="M356.779 159.908V262.881L267.646 211.406V211.361L356.779 159.908Z" fill="#16B1B2"/>
<path d="M356.779 262.881V262.959L267.772 314.334L267.646 314.269V211.406L356.779 262.881Z" fill="#0F2832"/>
<path d="M356.778 262.959V365.72L267.771 314.334L356.778 262.959Z" fill="#0F2832"/>
<path d="M445.82 314.312L356.777 365.72V262.959L356.831 262.925L445.82 314.312Z" fill="#0B8A97"/>
<path d="M445.893 211.517V314.269L445.821 314.312L356.832 262.924L445.893 211.517Z" fill="#0B8A97"/>
<path d="M414.301 -3.28075e-05V29.836L414.283 29.8486L388.441 14.9279L414.301 -3.28075e-05Z" fill="#0B8A97"/>
<path d="M445.892 108.343V108.499L356.831 159.908L356.777 159.863V56.8901L445.892 108.343Z" fill="#16B1B2"/>
<path d="M356.779 468.626V571.602L267.646 520.124V520.081L356.779 468.626Z" fill="#8B181D"/>
<path d="M356.779 571.602V571.679L267.772 623.054L267.646 622.986V520.124L356.779 571.602Z" fill="#8B181D"/>
<path d="M356.778 571.678V674.44L267.771 623.054L356.778 571.678Z" fill="#01A8AB"/>
<path d="M445.82 623.032L356.777 674.44V571.678L356.831 571.644L445.82 623.032Z" fill="#01A8AB"/>
<path d="M445.893 520.237V622.986L445.821 623.032L356.832 571.644L445.893 520.237Z" fill="#0F2832"/>
<path d="M445.892 520.081V520.237L356.831 571.644L356.777 571.602V468.626L445.892 520.081Z" fill="#0F2832"/>
<path d="M445.892 314.269V417.24L356.777 365.765V365.72L445.892 314.269Z" fill="#EF2E29"/>
<path d="M445.892 417.241V417.318L356.885 468.693L356.777 468.626V365.765L445.892 417.241Z" fill="#EF2E29"/>
<path d="M445.892 417.318V520.08L356.886 468.693L445.892 417.318Z" fill="#01A8AB"/>
<path d="M356.689 468.671L267.646 520.08V417.318L267.718 417.285L356.689 468.671Z" fill="#EF2E29"/>
<path d="M356.778 365.876V468.626L356.689 468.671L267.718 417.286L356.778 365.876Z" fill="#EF2E29"/>
<path d="M267.646 314.269V417.24L178.531 365.765V365.72L267.646 314.269Z" fill="#EF2E29"/>
<path d="M267.646 417.241V417.318L178.639 468.693L178.531 468.626V365.765L267.646 417.241Z" fill="#F2531B"/>
<path d="M356.779 365.72V365.876L267.718 417.285L267.646 417.24V314.269L356.779 365.72Z" fill="#F7972A"/>
<path d="M178.531 159.908V262.881L89.3984 211.406V211.361L178.531 159.908Z" fill="#FBCB86"/>
<path d="M267.574 314.312L178.531 365.72V262.959L178.585 262.925L267.574 314.312Z" fill="#F46B34"/>
<path d="M117.791 314.318L76.208 338.326V290.334L76.244 290.318L117.791 314.318Z" fill="#F46B34"/>
<path d="M117.037 167.846L88.6436 184.247V151.464L88.6616 151.453L117.037 167.846Z" fill="#FBCB86"/>
<path d="M267.646 211.517V314.269L267.574 314.312L178.585 262.924L267.646 211.517Z" fill="#F46B34"/>
<path d="M267.646 211.36V211.517L178.585 262.924L178.531 262.881V159.908L267.646 211.36Z" fill="#F7972A"/>
<path d="M178.531 468.626V571.602L89.3984 520.124V520.081L178.531 468.626Z" fill="#F36246"/>
<path d="M267.574 623.032L178.531 674.44V571.678L178.585 571.644L267.574 623.032Z" fill="#EF3239"/>
<path d="M89.3987 623.032L0.374023 674.44V571.678L0.428075 571.644L89.3987 623.032Z" fill="#EF3239"/>
<path d="M267.646 520.237V622.986L267.574 623.032L178.585 571.644L267.646 520.237Z" fill="#EF3239"/>
<path d="M267.646 520.081V520.237L178.585 571.644L178.531 571.602V468.626L267.646 520.081Z" fill="#EF3239"/>
<path d="M267.646 314.269V417.24L178.531 365.765V365.72L267.646 314.269Z" fill="#F7972A"/>
<path d="M267.646 417.241V417.318L178.639 468.693L178.531 468.626V365.765L267.646 417.241Z" fill="#F7972A"/>
<path d="M267.645 417.318V520.08L178.639 468.693L267.645 417.318Z" fill="#F2531B"/>
<path d="M356.689 468.671L267.646 520.08V417.318L267.718 417.285L356.689 468.671Z" fill="#8B181D"/>
<path d="M356.779 365.72V365.876L267.718 417.285L267.646 417.24V314.269L356.779 365.72Z" fill="#F7972A"/>
</svg>
