<svg width="22" height="22" viewBox="0 0 22 22" fill="none" xmlns="http://www.w3.org/2000/svg">
<path d="M11 21C16.5228 21 21 16.5228 21 11C21 5.47715 16.5228 1 11 1C5.47715 1 1 5.47715 1 11C1 16.5228 5.47715 21 11 21Z" fill="#FFD93B"/>
<path d="M20.9999 10.9999C20.9999 16.5249 16.5218 20.9999 10.9999 20.9999C7.8562 20.9999 5.04995 19.5499 3.21558 17.2781C4.9312 18.6656 7.11557 19.4937 9.4937 19.4937C15.0156 19.4937 19.4937 15.0187 19.4937 9.4937C19.4937 7.11557 18.6656 4.9312 17.2781 3.21558C19.5468 5.04995 20.9999 7.8562 20.9999 10.9999Z" fill="#F4C534"/>
<path d="M11.6424 10.073C10.9955 11.7817 12.0605 13.768 14.0217 14.5111C15.978 15.2517 18.0917 14.4699 18.7386 12.7611C19.3836 11.0567 18.3192 9.07048 16.3624 8.32985C14.4011 7.5861 12.2874 8.3686 11.6424 10.073Z" fill="#F4C534"/>
<path d="M14.7395 13.8949C16.2113 13.8949 17.4045 12.7018 17.4045 11.2299C17.4045 9.7581 16.2113 8.56494 14.7395 8.56494C13.2676 8.56494 12.0745 9.7581 12.0745 11.2299C12.0745 12.7018 13.2676 13.8949 14.7395 13.8949Z" fill="white"/>
<path d="M15.7056 11.3976C15.7106 12.2669 15.0099 12.9676 14.1406 12.9626C13.2762 12.9626 12.5706 12.2669 12.5706 11.3976C12.5706 10.5282 13.2762 9.83255 14.1406 9.83255C15.0099 9.82693 15.7056 10.5326 15.7056 11.3976Z" fill="#3E4347"/>
<path d="M14.8919 10.6458C14.725 10.4789 14.4976 10.4356 14.3841 10.5491C14.2706 10.6626 14.314 10.8899 14.4809 11.0568C14.6479 11.2238 14.8752 11.2671 14.9887 11.1536C15.1022 11.0401 15.0589 10.8128 14.8919 10.6458Z" fill="white"/>
<path d="M10.3574 10.0732C11.0043 11.782 9.9393 13.7682 7.97805 14.5113C6.0218 15.252 3.90806 14.4701 3.26118 12.7613C2.61556 11.057 3.68056 9.07072 5.63681 8.3301C7.59868 7.58635 9.71243 8.36885 10.3574 10.0732Z" fill="#F4C534"/>
<path d="M7.26241 13.8949C8.73425 13.8949 9.92741 12.7018 9.92741 11.2299C9.92741 9.7581 8.73425 8.56494 7.26241 8.56494C5.79057 8.56494 4.59741 9.7581 4.59741 11.2299C4.59741 12.7018 5.79057 13.8949 7.26241 13.8949Z" fill="white"/>
<path d="M9.42943 11.3976C9.43443 12.2669 8.73381 12.9676 7.86443 12.9626C6.99943 12.9626 6.29443 12.2669 6.29443 11.3976C6.29443 10.5282 7.00006 9.83255 7.86443 9.83255C8.73381 9.82693 9.42943 10.5326 9.42943 11.3976Z" fill="#3E4347"/>
<path d="M8.61506 10.6463C8.44812 10.4794 8.22077 10.4361 8.10728 10.5495C7.99378 10.663 8.03712 10.8904 8.20406 11.0573C8.37101 11.2243 8.59835 11.2676 8.71185 11.1541C8.82534 11.0406 8.78201 10.8133 8.61506 10.6463Z" fill="white"/>
<path d="M17.6909 5.99387C16.2478 6.82887 13.2028 8.17949 12.0084 5.58825C11.9509 5.46325 12.0953 5.34262 12.2084 5.41825C12.8809 5.85512 14.4853 6.50075 17.5853 5.74075C17.7415 5.70262 17.829 5.91075 17.6909 5.99387Z" fill="#3E4347"/>
<path d="M4.22751 6.82382C5.88313 7.04444 9.21751 7.13069 9.32188 4.27757C9.32688 4.14007 9.14688 4.08382 9.07126 4.19694C8.61876 4.85757 7.38438 6.06819 4.22688 6.54944C4.06813 6.57382 4.06751 6.80007 4.22751 6.82382Z" fill="#3E4347"/>
<path d="M15.1902 18.3599C15.0083 17.7799 14.3508 16.9887 12.4983 16.3712C11.5489 16.0074 9.58206 15.6406 9.03394 15.5024C9.83706 15.3024 11.4396 14.765 12.8589 15.2506C14.1614 15.7574 15.1902 16.9018 15.1902 18.3599Z" fill="#3E4347"/>
</svg>
