<svg width="22" height="22" viewBox="0 0 22 22" fill="none" xmlns="http://www.w3.org/2000/svg">
<path d="M11 21C16.5228 21 21 16.5228 21 11C21 5.47715 16.5228 1 11 1C5.47715 1 1 5.47715 1 11C1 16.5228 5.47715 21 11 21Z" fill="#FFD93B"/>
<path d="M20.9999 10.9999C20.9999 16.5249 16.5218 20.9999 10.9999 20.9999C7.8562 20.9999 5.04995 19.5499 3.21558 17.2781C4.9312 18.6656 7.11557 19.4937 9.4937 19.4937C15.0156 19.4937 19.4937 15.0187 19.4937 9.4937C19.4937 7.11557 18.6656 4.9312 17.2781 3.21558C19.5468 5.04995 20.9999 7.8562 20.9999 10.9999Z" fill="#F4C534"/>
<path d="M14.4143 17.823C13.8437 18.0674 12.6168 17.0186 10.808 16.2349C8.76429 15.368 7.19867 16.0086 6.8443 15.6061C6.39867 15.3293 7.94992 14.0018 11.3693 14.0718C15.338 14.2674 15.0949 17.6555 14.4143 17.823Z" fill="#3E4347"/>
<path d="M10.4474 9.69625C10.4474 11.2425 9.05862 12.6631 7.34612 12.8694C5.633 13.0756 4.24487 11.9894 4.24487 10.4431C4.24487 8.89687 5.63362 7.47625 7.34612 7.27C9.05862 7.06375 10.4474 8.15 10.4474 9.69625Z" fill="white"/>
<path d="M7.8644 11.1612C8.67039 11.1612 9.32378 10.5078 9.32378 9.70181C9.32378 8.89582 8.67039 8.24243 7.8644 8.24243C7.05841 8.24243 6.40503 8.89582 6.40503 9.70181C6.40503 10.5078 7.05841 11.1612 7.8644 11.1612Z" fill="#3E4347"/>
<path d="M8.75933 9.38381C8.6487 9.49444 8.42808 9.45006 8.2687 9.29069C8.11433 9.13569 8.06995 8.91507 8.18058 8.80444C8.28683 8.69819 8.50745 8.74256 8.66245 8.89756C8.8212 9.05694 8.86558 9.27819 8.75933 9.38381Z" fill="#5A5F63"/>
<path d="M11.5525 9.69625C11.5525 11.2425 12.9412 12.6631 14.6537 12.8694C16.3669 13.0756 17.755 11.9894 17.755 10.4431C17.755 8.89687 16.3662 7.47625 14.6537 7.27C12.9412 7.06375 11.5525 8.15 11.5525 9.69625Z" fill="white"/>
<path d="M14.1369 11.1604C14.9429 11.1604 15.5962 10.5071 15.5962 9.70107C15.5962 8.89508 14.9429 8.2417 14.1369 8.2417C13.3309 8.2417 12.6775 8.89508 12.6775 9.70107C12.6775 10.5071 13.3309 11.1604 14.1369 11.1604Z" fill="#3E4347"/>
<path d="M13.2407 9.38381C13.3514 9.49444 13.572 9.45006 13.7314 9.29069C13.8864 9.13569 13.9301 8.91507 13.8201 8.80444C13.7139 8.69819 13.4932 8.74256 13.3382 8.89756C13.1789 9.05694 13.1345 9.27819 13.2407 9.38381Z" fill="#5A5F63"/>
<path d="M4.85376 7.06945C5.47876 6.75758 6.60001 6.21758 7.33313 5.66633C8.36188 4.96195 8.84126 4.30695 9.46626 3.7832C9.39751 4.7857 8.70126 5.88758 7.87438 6.43195C6.91876 7.1332 5.55938 7.33133 4.85376 7.06945Z" fill="#F4C534"/>
<path d="M16.6727 5.69701C16.187 6.28264 14.907 6.78389 13.7377 6.65389C12.6002 6.58764 11.567 5.94576 11.0352 5.15576C11.6602 5.26576 12.6177 5.62764 13.8239 5.72076C14.7595 5.83451 16.0477 5.73514 16.6727 5.69701Z" fill="#F4C534"/>
</svg>
