<svg width="22" height="22" viewBox="0 0 22 22" fill="none" xmlns="http://www.w3.org/2000/svg">
<path d="M11 21C16.5228 21 21 16.5228 21 11C21 5.47715 16.5228 1 11 1C5.47715 1 1 5.47715 1 11C1 16.5228 5.47715 21 11 21Z" fill="#FFD93B"/>
<path d="M20.9999 10.9999C20.9999 16.5249 16.5218 20.9999 10.9999 20.9999C7.8562 20.9999 5.04995 19.5499 3.21558 17.2781C4.9312 18.6656 7.11557 19.4937 9.4937 19.4937C15.0156 19.4937 19.4937 15.0187 19.4937 9.4937C19.4937 7.11557 18.6656 4.9312 17.2781 3.21558C19.5468 5.04995 20.9999 7.8562 20.9999 10.9999Z" fill="#F4C534"/>
<path d="M17.8482 10.1694C18.2957 11.1325 13.1044 12.1294 12.6294 11.0187C12.5013 10.6625 12.9257 10.0756 14.4357 9.42935C15.5038 8.94685 16.3307 8.59873 16.5219 8.85435C16.6775 9.06248 16.2832 9.67685 15.4407 10.1981C16.6963 10.0206 17.7175 9.87623 17.8482 10.1694Z" fill="#3E4347"/>
<path d="M10.3837 10.3257C10.3837 12.0582 8.98625 13.455 7.25437 13.455C5.52937 13.455 4.125 12.0582 4.125 10.3257C4.125 8.60066 5.52937 7.19629 7.25437 7.19629C8.98625 7.19629 10.3837 8.60066 10.3837 10.3257Z" fill="#F4C534"/>
<path d="M9.95319 10.3257C9.86632 11.7138 8.58944 12.8357 7.09694 12.8357C5.60444 12.8357 4.46882 11.7138 4.5557 10.3257C4.64257 8.93755 5.91944 7.81567 7.41194 7.81567C8.90444 7.81567 10.0401 8.93755 9.95319 10.3257Z" fill="white"/>
<path d="M9.07252 10.24C9.07252 11.0738 8.39564 11.7582 7.55439 11.7657C6.72002 11.7657 6.03564 11.0813 6.03564 10.2475C6.03564 9.3988 6.72002 8.72192 7.56127 8.72192C8.39564 8.72192 9.07252 9.4063 9.07252 10.24Z" fill="#3E4347"/>
<path d="M8.43131 9.94738C8.30319 10.0761 8.06756 10.0543 7.90381 9.8905C7.74694 9.72675 7.71819 9.49113 7.84694 9.363C7.98256 9.23488 8.21756 9.25613 8.38194 9.41988C8.53818 9.58425 8.56631 9.81925 8.43131 9.94738Z" fill="#5A5F63"/>
<path d="M15.7049 13.2537C15.3761 12.9975 14.1205 15.8556 11.5911 16.575C10.313 17.0262 9.0749 16.7962 8.1474 16.5212C7.46115 16.2569 7.3324 16.8581 8.03303 17.455C9.0349 18.1087 10.4343 18.9269 12.0299 18.41C15.2049 17.4144 16.103 13.3831 15.7049 13.2537Z" fill="#3E4347"/>
<path d="M12.0656 6.74448C12.8875 6.27885 14.6019 5.51198 16.4044 5.9376C16.595 5.9826 16.74 5.7276 16.5794 5.61573C14.6737 4.29135 13.0631 4.47635 11.8069 6.49135C11.7094 6.64823 11.905 6.8351 12.0656 6.74448Z" fill="#3E4347"/>
<path d="M9.93438 6.74448C9.1125 6.27885 7.39813 5.51198 5.59563 5.9376C5.405 5.9826 5.26 5.7276 5.42063 5.61573C7.32625 4.29135 8.93688 4.47635 10.1931 6.49135C10.2906 6.64823 10.095 6.8351 9.93438 6.74448Z" fill="#3E4347"/>
</svg>
