<svg width="22" height="22" viewBox="0 0 22 22" fill="none" xmlns="http://www.w3.org/2000/svg">
<path d="M11 21C16.5228 21 21 16.5228 21 11C21 5.47715 16.5228 1 11 1C5.47715 1 1 5.47715 1 11C1 16.5228 5.47715 21 11 21Z" fill="#FFD93B"/>
<path d="M20.9528 11C20.9528 16.525 16.4747 21 10.9528 21C7.80908 21 5.00283 19.55 3.16846 17.2781C4.88408 18.6656 7.06846 19.4937 9.44658 19.4937C14.9685 19.4937 19.4466 15.0187 19.4466 9.4937C19.4466 7.11558 18.6185 4.9312 17.231 3.21558C19.4997 5.04995 20.9528 7.8562 20.9528 11Z" fill="#F4C534"/>
<path d="M12.4525 8.13306C14.4706 7.86931 16.5925 8.31181 17.9037 9.30432C18.2081 9.53807 18.6294 9.24619 18.5212 8.87744C17.7575 6.22556 14.1487 5.33993 12.1237 7.50181C11.8806 7.76869 12.0981 8.17931 12.4525 8.13306Z" fill="#3E4347"/>
<path d="M9.54652 8.13306C7.5284 7.86931 5.40652 8.31181 4.09527 9.30432C3.7909 9.53807 3.36965 9.24619 3.47777 8.87744C4.24152 6.22556 7.85027 5.33993 9.87527 7.50181C10.119 7.76869 9.90152 8.17931 9.54652 8.13306Z" fill="#3E4347"/>
<path d="M17.658 5.51748C17.658 5.51748 16.1918 4.11561 14.9049 3.71936C14.3999 3.51686 14.0124 3.58373 13.4855 3.12311C13.4224 3.05936 14.0174 2.56061 15.2399 2.94873C16.7386 3.42436 17.8443 5.39311 17.658 5.51748Z" fill="#3E4347"/>
<path d="M4.34129 5.51748C4.34129 5.51748 5.80754 4.11561 7.09441 3.71936C7.59941 3.51686 7.98691 3.58373 8.51378 3.12311C8.57691 3.05936 7.98191 2.56061 6.75941 2.94873C5.26066 3.42436 4.15504 5.39311 4.34129 5.51748Z" fill="#3E4347"/>
<path d="M17.2743 13.9088C16.4812 16.6251 13.9787 18.6176 10.9999 18.6176C8.02181 18.6176 5.51181 16.6251 4.72618 13.8951C4.50556 13.1363 4.92618 12.3232 5.66368 12.0332C9.15243 10.6682 12.7031 10.6407 16.3224 12.0401C17.0674 12.3301 17.4949 13.1363 17.2743 13.9088Z" fill="#3E4347"/>
<path d="M15.1132 16.9538C14.7157 15.2644 13.455 14.1882 11.8163 14.8001C10.0225 15.4732 9.02691 14.3369 8.14629 15.4663C7.80691 15.8976 7.56441 16.4026 7.43066 16.9532C9.70816 18.2082 12.2944 18.0957 15.1132 16.9538Z" fill="#E24B4B"/>
<path d="M11 14.395C13.7544 14.395 16.1213 14.1625 17.2069 12.9075C17.0457 12.5231 16.7357 12.2013 16.3232 12.0406C12.7038 10.6406 9.15316 10.6681 5.66441 12.0331C5.25504 12.1944 4.94879 12.5188 4.79004 12.9038C5.87379 14.1613 8.24254 14.395 11 14.395Z" fill="white"/>
<path d="M11 17.1312C8.54129 17.1312 6.38691 15.4199 5.18066 15.0362C6.25879 17.1612 8.45691 18.6174 11.0007 18.6174C13.5488 18.6174 15.7444 17.1568 16.8238 15.0349C15.6175 15.4168 13.4613 17.1312 11 17.1312Z" fill="white"/>
</svg>
