<svg width="22" height="22" viewBox="0 0 22 22" fill="none" xmlns="http://www.w3.org/2000/svg">
<path d="M11 21C16.5228 21 21 16.5228 21 11C21 5.47715 16.5228 1 11 1C5.47715 1 1 5.47715 1 11C1 16.5228 5.47715 21 11 21Z" fill="#FFD93B"/>
<path d="M18.2137 12.5857C17.4887 15.9107 14.5387 18.3982 11.0012 18.3982C7.46369 18.3982 4.50744 15.9107 3.78244 12.5857C3.72619 12.3232 3.95744 12.0857 4.21994 12.1482C8.73868 13.2232 13.2574 13.2232 17.7762 12.1482C18.0449 12.0851 18.2762 12.3232 18.2137 12.5857Z" fill="#3E4347"/>
<path d="M14.5275 17.1144C14.5288 17.0894 14.535 17.0662 14.535 17.0406C14.535 15.7344 13.4788 14.6719 12.1663 14.6719C11.5225 14.6719 10.9413 14.9281 10.5225 15.3406C10.185 15.1469 9.7913 15.0406 9.37255 15.0406C8.16942 15.0406 7.1838 15.9456 7.03442 17.1137H14.5275V17.1144Z" fill="#E24B4B"/>
<path d="M20.9999 10.9999C20.9999 16.5249 16.5218 20.9999 10.9999 20.9999C7.8562 20.9999 5.04995 19.5499 3.21558 17.2781C4.9312 18.6656 7.11557 19.4937 9.4937 19.4937C15.0156 19.4937 19.4937 15.0187 19.4937 9.4937C19.4937 7.11557 18.6656 4.9312 17.2781 3.21558C19.5468 5.04995 20.9999 7.8562 20.9999 10.9999Z" fill="#F4C534"/>
<path d="M4.67676 12.24C5.78051 13.8675 8.16488 14.38 10.9999 14.38C13.8349 14.38 16.2193 13.8675 17.323 12.24C13.1074 13.1731 8.89238 13.1731 4.67676 12.24Z" fill="white"/>
<path d="M5.49634 15.9232C6.84821 17.4375 8.80946 18.3957 11.0001 18.3957C13.2051 18.3957 15.177 17.425 16.5301 15.8938C12.8188 16.955 9.05196 17.0094 5.49634 15.9232Z" fill="white"/>
<g opacity="0.2">
<path opacity="0.2" d="M13.3076 15.6606C13.2514 15.9106 12.8639 16.0293 12.4451 15.9293C12.0326 15.8293 11.7389 15.5481 11.8014 15.2981C11.8576 15.0481 12.2451 14.9293 12.6639 15.0293C13.0764 15.1293 13.3701 15.4106 13.3076 15.6606Z" fill="white"/>
</g>
<path d="M17.3817 8.34011C17.3498 8.39886 17.3123 8.45511 17.2736 8.51198C16.9273 7.68948 15.9792 6.98511 14.8548 6.48323C13.7323 5.99573 12.6454 5.82011 11.6848 5.94948C11.7198 5.90136 11.7554 5.85261 11.7936 5.80761C12.7454 4.80261 14.2198 4.54073 15.5673 5.07886C16.9086 5.66573 18.0554 6.96573 17.3817 8.34011Z" fill="#3E4347"/>
<path d="M4.61803 8.34011C4.64991 8.39886 4.68741 8.45511 4.72616 8.51198C5.0724 7.68948 6.02053 6.98511 7.1449 6.48323C8.2674 5.99573 9.35428 5.82011 10.3149 5.94948C10.2799 5.90136 10.2443 5.85261 10.2062 5.80761C9.25428 4.80261 7.7799 4.54073 6.4324 5.07886C5.09116 5.66573 3.94428 6.96573 4.61803 8.34011Z" fill="#3E4347"/>
<path d="M20.4831 10.8119C20.2263 10.2006 18.3119 8.74438 18.3119 8.74438C18.3119 8.74438 18.0125 11.1313 18.2694 11.7425C18.5263 12.3538 19.23 12.6413 19.8413 12.3844C20.4531 12.1275 20.74 11.4238 20.4831 10.8119Z" fill="#38C0DC"/>
<path d="M1.51689 10.8119C1.77376 10.2006 3.68814 8.74438 3.68814 8.74438C3.68814 8.74438 3.98751 11.1313 3.73064 11.7425C3.47376 12.3538 2.77001 12.6413 2.15876 12.3844C1.54751 12.1275 1.26001 11.4238 1.51689 10.8119Z" fill="#38C0DC"/>
</svg>
