<svg width="22" height="22" viewBox="0 0 22 22" fill="none" xmlns="http://www.w3.org/2000/svg">
<path d="M10.8676 21.0001C16.3173 21.0001 20.7352 16.5822 20.7352 11.1325C20.7352 5.68276 16.3173 1.26489 10.8676 1.26489C5.41787 1.26489 1 5.68276 1 11.1325C1 16.5822 5.41787 21.0001 10.8676 21.0001Z" fill="#FFD93B"/>
<path d="M17.247 13.5718C16.6733 16.5756 14.0339 18.8388 10.8701 18.8388C7.70005 18.8388 5.06065 16.5756 4.49315 13.5718C4.43752 13.2818 4.70877 13.035 4.99253 13.1156C8.90256 14.195 12.8188 14.1887 16.7476 13.1093C17.0314 13.035 17.3026 13.2818 17.247 13.5718Z" fill="#3E4347"/>
<path d="M5.66406 13.2769C6.60345 15.08 8.46596 15.61 10.8447 15.61C13.2148 15.61 15.0691 15.0819 16.0123 13.2912C12.5573 14.1212 9.10722 14.1187 5.66406 13.2769Z" fill="white"/>
<path d="M20.7352 11.1325C20.7352 16.5844 16.3164 21.0001 10.8676 21.0001C7.7657 21.0001 4.9963 19.5694 3.18628 17.3276C4.87942 18.6969 7.03444 19.5138 9.38134 19.5138C14.8301 19.5138 19.2489 15.0982 19.2489 9.64623C19.2489 7.29933 18.432 5.14369 17.0627 3.45117C19.3014 5.26119 20.7352 8.02996 20.7352 11.1325Z" fill="#F4C534"/>
<path d="M9.93412 7.27544C9.93412 9.41796 7.39472 12.078 4.79657 11.0786C3.60906 10.6161 2.74843 9.49234 2.61405 8.21733C2.49092 6.81294 3.2053 5.4848 4.43407 4.82354C6.44159 3.80416 9.93412 4.88417 9.93412 7.27544Z" fill="white"/>
<path d="M16.9438 11.0785C15.6713 11.5679 14.3844 11.2173 13.3569 10.3116C11.7075 8.871 10.9969 6.40661 13.1582 5.08659C14.3926 4.33784 16.1307 4.22658 17.2895 4.82347C19.8832 6.20598 19.717 9.99914 16.9438 11.0785Z" fill="white"/>
<path d="M19.9573 4.23417H19.6298C18.7229 4.23417 17.8042 4.18167 16.9267 3.95916C15.306 3.54354 13.3922 4.04104 12.3216 5.15293C11.9766 5.50418 11.491 5.67356 10.9991 5.67356H10.7535C10.256 5.67356 9.76471 5.50355 9.4197 5.1473C8.33094 4.03542 6.4053 3.54354 4.80216 3.95916C3.93028 4.18167 3.02339 4.23417 2.12839 4.23417H1.77713C1.56088 4.23417 1.38525 4.40979 1.38525 4.6323V5.85543C1.38525 6.01356 1.49025 6.13606 1.63088 6.20669C1.81213 6.29981 1.93526 6.48731 1.93526 6.70419C1.93526 6.74982 1.92963 6.80294 1.91151 6.84982C0.840874 10.8167 5.51029 13.9999 8.81595 10.8111C9.51221 10.1211 10.0153 9.32484 10.2435 8.42421C10.3135 8.14358 10.5772 7.9617 10.8697 7.9617C11.1566 7.9617 11.4253 8.14295 11.4897 8.42421C11.7179 9.32546 12.221 10.1211 12.9172 10.8111C16.206 13.9886 20.8923 10.8461 19.8217 6.84419C19.7517 6.58106 19.8804 6.32356 20.1023 6.20669C20.2429 6.13606 20.3479 6.00731 20.3479 5.84981V4.6323C20.3492 4.40917 20.1736 4.23417 19.9573 4.23417ZM8.18469 10.0911C5.91467 12.098 3.15277 10.5005 2.90714 8.18358C2.79027 6.89607 3.45152 5.68543 4.57466 5.0823C6.35968 4.16917 9.64221 5.10543 9.64221 7.2767C9.64158 8.35921 8.98595 9.39484 8.18469 10.0911ZM18.8279 8.18358C18.5823 10.5005 15.826 12.098 13.5497 10.0911C12.7541 9.39422 12.0985 8.35858 12.0985 7.2767C12.0985 5.10543 15.381 4.16979 17.1542 5.0823C18.2835 5.68543 18.9448 6.89607 18.8279 8.18358Z" fill="#3E4347"/>
<path d="M15.0663 9.50549C15.9044 9.50549 16.5839 8.82607 16.5839 7.98797C16.5839 7.14987 15.9044 6.47046 15.0663 6.47046C14.2282 6.47046 13.5488 7.14987 13.5488 7.98797C13.5488 8.82607 14.2282 9.50549 15.0663 9.50549Z" fill="#3E4347"/>
<path d="M15.8655 7.18599C15.6836 7.00415 15.4333 6.95963 15.3064 7.08655C15.1795 7.21347 15.224 7.46377 15.4059 7.64561C15.5877 7.82744 15.838 7.87196 15.9649 7.74504C16.0918 7.61812 16.0473 7.36783 15.8655 7.18599Z" fill="white"/>
<path d="M6.8139 9.50549C7.652 9.50549 8.33142 8.82607 8.33142 7.98797C8.33142 7.14987 7.652 6.47046 6.8139 6.47046C5.9758 6.47046 5.29639 7.14987 5.29639 7.98797C5.29639 8.82607 5.9758 9.50549 6.8139 9.50549Z" fill="#3E4347"/>
<path d="M7.61304 7.18574C7.4312 7.00391 7.1809 6.95939 7.05398 7.08631C6.92706 7.21323 6.97158 7.46353 7.15342 7.64536C7.33526 7.8272 7.58556 7.87172 7.71248 7.7448C7.8394 7.61788 7.79488 7.36758 7.61304 7.18574Z" fill="white"/>
<path d="M8.46545 2.01295C8.48982 1.93545 4.88666 2.0317 3.81603 4.03359C3.54415 4.02984 6.1823 -1.12521 8.46545 2.01295Z" fill="#3E4347"/>
<path d="M13.2697 2.01295C13.2453 1.93545 16.8484 2.0317 17.9191 4.03359C18.191 4.02984 15.5528 -1.12521 13.2697 2.01295Z" fill="#3E4347"/>
<path d="M10.322 16.7148C8.2601 16.7148 7.36884 15.5973 6.95696 16.7811C6.87759 17.0086 6.85571 17.2367 6.87446 17.4611C7.97635 18.3224 9.36136 18.8386 10.8701 18.8386C12.3783 18.8386 13.7633 18.3205 14.8664 17.4567C14.8845 17.2336 14.862 17.0067 14.7833 16.7805C14.3714 15.5973 12.3839 16.7148 10.322 16.7148Z" fill="#E24B4B"/>
</svg>
