<svg width="22" height="22" viewBox="0 0 22 22" fill="none" xmlns="http://www.w3.org/2000/svg">
<path d="M20.7721 9.6487C21.5809 16.1387 16.1221 21.5875 9.63521 20.77C5.21269 20.2125 1.64143 16.6425 1.08205 12.22C0.26017 5.72306 5.73019 0.256155 12.2283 1.08303C16.6521 1.64616 20.2203 5.22305 20.7721 9.6487Z" fill="#FFD93B"/>
<path d="M20.7847 12.093C20.2666 16.6255 16.5997 20.283 12.0659 20.788C8.48962 21.1862 5.23898 19.6837 3.19897 17.1574C5.17086 18.7524 7.76712 19.6024 10.5634 19.2937C15.1134 18.7912 18.7915 15.1136 19.2934 10.5636C19.6022 7.76736 18.7515 5.1711 17.1572 3.19922C19.6866 5.24423 21.1947 8.50612 20.7847 12.093Z" fill="#F4C534"/>
<path d="M17.1778 17.6332C16.9459 19.492 15.4047 21.0001 13.7353 21.0001C12.0722 21.0001 10.9071 19.492 11.139 17.6332C11.3696 15.7813 12.9109 14.2732 14.574 14.2732C16.2434 14.2732 17.4084 15.7813 17.1778 17.6332Z" fill="#FFD93B"/>
<path d="M16.1557 17.6333C16.002 18.8645 14.9851 19.8608 13.8769 19.8608C12.7757 19.8608 12.0069 18.8645 12.1607 17.6333C12.3132 16.4089 13.3313 15.4058 14.4326 15.4058C15.5401 15.4058 16.3082 16.4083 16.1557 17.6333Z" fill="#3E4347"/>
<path d="M9.57326 10.9863C8.87951 10.7738 8.09826 10.655 7.267 10.655C6.43575 10.655 5.64825 10.7738 4.95449 10.9863C4.68574 11.0675 4.46699 10.7738 4.61699 10.5363C5.17324 9.66753 6.1545 9.09253 7.267 9.09253C8.37326 9.09253 9.35451 9.66753 9.91077 10.5363C10.0608 10.7738 9.84202 11.0675 9.57326 10.9863Z" fill="#3E4347"/>
<path d="M16.8968 10.9863C16.203 10.7738 15.4217 10.655 14.5905 10.655C13.7592 10.655 12.9717 10.7738 12.278 10.9863C12.0092 11.0675 11.7905 10.7738 11.9405 10.5363C12.4967 9.66753 13.478 9.09253 14.5905 9.09253C15.6967 9.09253 16.678 9.66753 17.2343 10.5363C17.3843 10.7738 17.1655 11.0675 16.8968 10.9863Z" fill="#3E4347"/>
<path d="M17.8122 4.42438C17.8122 5.06813 17.2934 5.58688 16.6497 5.58688C16.0122 5.58688 15.4934 5.06813 15.4934 4.42438C15.4934 3.78062 16.6497 1.78687 16.6497 1.78687C16.6497 1.78687 17.8122 3.78062 17.8122 4.42438Z" fill="#65B1EF"/>
<path d="M20.4811 8.00765C20.4811 8.84078 19.8093 9.51266 18.9761 9.51266C18.1511 9.51266 17.4792 8.84078 17.4792 8.00765C17.4792 7.1739 18.9761 4.59326 18.9761 4.59326C18.9761 4.59326 20.4811 7.17452 20.4811 8.00765Z" fill="#65B1EF"/>
</svg>
