<svg width="22" height="22" viewBox="0 0 22 22" fill="none" xmlns="http://www.w3.org/2000/svg">
<path d="M10.597 21.1939C16.4495 21.1939 21.1939 16.4495 21.1939 10.597C21.1939 4.74442 16.4495 0 10.597 0C4.74442 0 0 4.74442 0 10.597C0 16.4495 4.74442 21.1939 10.597 21.1939Z" fill="#FFD93B"/>
<path d="M21.1938 10.5968C21.1938 16.4515 16.4488 21.1938 10.5969 21.1938C7.26531 21.1938 4.29192 19.6573 2.34839 17.2497C4.16611 18.7202 6.48089 19.5975 9.00122 19.5975C14.8524 19.5975 19.5982 14.8551 19.5982 9.00049C19.5982 6.48084 18.7209 4.16538 17.2504 2.34766C19.6539 4.29188 21.1938 7.26527 21.1938 10.5968Z" fill="#F4C534"/>
<path d="M15.1344 20.3002C14.8924 21.4345 13.7437 22.2863 12.4917 21.9096C11.2398 21.5452 9.9549 21.5521 8.68373 21.9096C7.49643 22.2533 6.3167 21.4923 6.06096 20.2933C5.16653 15.9848 7.15544 11.0342 10.5908 11.0342C14.1025 11.0342 16.0137 16.0549 15.1344 20.3002Z" fill="#FFD93B"/>
<path d="M14.2206 20.1112C14.0811 20.7732 13.4128 21.2091 12.7618 21.0173C11.3146 20.5993 9.87364 20.5993 8.43197 21.0173C7.78092 21.2091 7.11268 20.7732 6.97312 20.105C6.17701 16.2578 7.91429 11.9692 10.5934 11.9692C13.2966 11.9692 15.0112 16.275 14.2206 20.1112Z" fill="#3E4347"/>
<path d="M13.23 20.3298C13.5428 19.5048 13.4871 18.5396 12.9007 17.7181C12.5047 17.155 11.7787 16.9446 11.1393 17.1914C10.7083 17.3578 10.2298 17.4101 9.76985 17.3729C7.99613 17.2286 7.41314 18.9136 7.93494 20.3298C9.67979 19.8005 11.4453 19.8266 13.23 20.3298Z" fill="#E24B4B"/>
<path d="M10.5968 19.2256C9.01765 19.2256 7.65848 19.6601 7.03149 20.2871C7.24462 20.8481 7.84342 21.1911 8.43191 21.0172C9.87289 20.5992 11.3146 20.5992 12.7617 21.0172C13.3516 21.1911 13.9511 20.8474 14.1635 20.2884C13.5379 19.6601 12.1774 19.2256 10.5968 19.2256Z" fill="white"/>
<path d="M5.49372 10.2394C3.61275 10.0476 2.46051 8.71657 2.93763 6.8356C3.42094 4.95463 5.34178 3.43115 7.23582 3.43115C9.12366 3.43115 9.87371 4.90788 10.0064 6.84797C10.1652 9.226 7.67237 10.4649 5.49372 10.2394Z" fill="white"/>
<path d="M8.68994 6.84613C8.68994 7.78524 7.93026 8.55592 6.99115 8.55592C6.04654 8.55042 5.28687 7.78524 5.28687 6.84613C5.28687 5.90702 6.04654 5.14185 6.99115 5.14185C7.93026 5.14185 8.68994 5.90702 8.68994 6.84613Z" fill="#3E4347"/>
<path d="M7.81704 6.01181C7.61997 5.81475 7.36294 5.75229 7.24293 5.8723C7.12292 5.99231 7.18538 6.24934 7.38244 6.44641C7.57951 6.64347 7.83654 6.70594 7.95655 6.58593C8.07656 6.46592 8.0141 6.20888 7.81704 6.01181Z" fill="white"/>
<path d="M15.3297 10.3013C17.2362 10.1061 18.5658 8.75036 18.3396 6.83571C18.1065 4.92105 16.3892 3.36938 14.4951 3.36938C12.6073 3.36938 11.6606 4.87292 11.2694 6.84877C10.793 9.26942 13.1202 10.531 15.3297 10.3013Z" fill="white"/>
<path d="M15.9883 6.84613C15.9883 7.78524 15.2286 8.55592 14.2895 8.55592C13.3449 8.55042 12.5852 7.78524 12.5852 6.84613C12.5852 5.90702 13.3449 5.14185 14.2895 5.14185C15.2286 5.14185 15.9883 5.90702 15.9883 6.84613Z" fill="#3E4347"/>
<path d="M15.1146 6.01279C14.9176 5.81573 14.6605 5.75326 14.5405 5.87327C14.4205 5.99328 14.483 6.25032 14.68 6.44738C14.8771 6.64445 15.1342 6.70691 15.2542 6.5869C15.3742 6.46689 15.3117 6.20985 15.1146 6.01279Z" fill="white"/>
</svg>
