<svg width="22" height="22" viewBox="0 0 22 22" fill="none" xmlns="http://www.w3.org/2000/svg">
<path d="M11 21.8049C16.5228 21.8049 21 17.3278 21 11.8049C21 6.28208 16.5228 1.80493 11 1.80493C5.47715 1.80493 1 6.28208 1 11.8049C1 17.3278 5.47715 21.8049 11 21.8049Z" fill="#FFD93B"/>
<path d="M21.0001 11.805C21.0001 17.33 16.5218 21.805 11.0001 21.805C7.85661 21.805 5.0499 20.3552 3.21582 18.0829C4.93157 19.4703 7.11608 20.2986 9.49369 20.2986C15.0154 20.2986 19.4937 15.8236 19.4937 10.2986C19.4937 7.92037 18.6654 5.7365 17.278 4.02075C19.547 5.85548 21.0001 8.66154 21.0001 11.805Z" fill="#F4C534"/>
<path d="M8.02169 1.80686C8.49436 3.01355 6.90993 5.76369 6.90993 5.76369C6.90993 5.76369 3.87892 4.82032 3.40626 3.61429C3.1514 2.96283 3.47453 2.22361 4.12598 1.96875C4.65261 1.76265 5.23644 1.93364 5.57452 2.35104C5.53876 1.81467 5.84954 1.29389 6.37616 1.08779C7.02956 0.831635 7.76684 1.15541 8.02169 1.80686Z" fill="#E24B4B"/>
<path d="M20.8455 4.9497C20.1499 6.40799 16.2945 7.30975 16.2945 7.30975C16.2945 7.30975 14.5696 3.74562 15.2659 2.28733C15.6417 1.49999 16.5896 1.16451 17.3776 1.5403C18.0148 1.84457 18.3568 2.52138 18.2644 3.18584C18.7228 2.69627 19.4614 2.53504 20.0985 2.83866C20.8885 3.2151 21.2213 4.16237 20.8455 4.9497Z" fill="#E24B4B"/>
<path d="M11.5104 10.3752C11.5104 12.6487 9.67111 14.488 7.39753 14.488C5.13045 14.488 3.28467 12.6487 3.28467 10.3752C3.28467 8.10808 5.13045 6.2688 7.39753 6.2688C9.67111 6.26945 11.5104 8.10808 11.5104 10.3752Z" fill="#F4C534"/>
<path d="M10.7738 10.376C10.5404 12.264 8.84287 13.7912 6.97628 13.7912C5.11555 13.7912 3.78859 12.264 4.02199 10.376C4.25475 8.49311 5.95815 6.96655 7.81888 6.96655C9.68547 6.96655 11.0066 8.49376 10.7738 10.376Z" fill="white"/>
<path d="M7.65229 10.3798C8.43039 10.3798 9.06117 9.74899 9.06117 8.97089C9.06117 8.19279 8.43039 7.56201 7.65229 7.56201C6.87419 7.56201 6.24341 8.19279 6.24341 8.97089C6.24341 9.74899 6.87419 10.3798 7.65229 10.3798Z" fill="#3E4347"/>
<path d="M8.36202 8.25883C8.19165 8.08846 7.95619 8.04771 7.8361 8.1678C7.716 8.28789 7.75676 8.52336 7.92712 8.69372C8.09749 8.86409 8.33295 8.90484 8.45304 8.78475C8.57314 8.66465 8.53239 8.42919 8.36202 8.25883Z" fill="white"/>
<path d="M18.7152 10.9388C18.7152 12.7826 17.2238 14.2741 15.38 14.2741C13.542 14.2741 12.0447 12.7826 12.0447 10.9388C12.0447 9.10017 13.5413 7.60938 15.38 7.60938C17.2238 7.60873 18.7152 9.10017 18.7152 10.9388Z" fill="#F4C534"/>
<path d="M18.1173 10.9396C18.2726 12.4349 17.1739 13.6436 15.6603 13.6436C14.1513 13.6436 12.7971 12.4343 12.6417 10.9396C12.4869 9.44879 13.5902 8.2395 15.0993 8.2395C16.6135 8.2395 17.9625 9.44879 18.1173 10.9396Z" fill="white"/>
<path d="M14.893 11.5307C15.6711 11.5307 16.3019 10.8999 16.3019 10.1218C16.3019 9.34367 15.6711 8.71289 14.893 8.71289C14.1149 8.71289 13.4841 9.34367 13.4841 10.1218C13.4841 10.8999 14.1149 11.5307 14.893 11.5307Z" fill="#3E4347"/>
<path d="M15.6025 9.408C15.4321 9.23763 15.1967 9.19688 15.0766 9.31697C14.9565 9.43706 14.9972 9.67253 15.1676 9.84289C15.338 10.0133 15.5734 10.054 15.6935 9.93392C15.8136 9.81382 15.7729 9.57836 15.6025 9.408Z" fill="white"/>
<path d="M4.58423 15.2109C5.08029 15.9638 5.57831 16.4787 6.19921 17.0177C7.48716 18.1028 9.19186 18.7361 10.9889 18.7575C12.8769 18.7315 14.5225 18.0931 15.8007 17.0171C16.4144 16.4846 16.9287 15.9489 17.4156 15.2109C17.0548 16.0048 16.6374 16.6816 16.0393 17.2758C14.6187 18.6684 13.0284 19.3368 11.011 19.3823C8.9344 19.3349 7.35453 18.6405 5.96125 17.2752C5.35921 16.677 4.94116 15.9944 4.58423 15.2109Z" fill="#3E4347"/>
</svg>
