<svg width="22" height="22" viewBox="0 0 22 22" fill="none" xmlns="http://www.w3.org/2000/svg">
<path d="M11 21C16.5228 21 21 16.5228 21 11C21 5.47715 16.5228 1 11 1C5.47715 1 1 5.47715 1 11C1 16.5228 5.47715 21 11 21Z" fill="#FFD93B"/>
<path d="M20.9999 10.9999C20.9999 16.5249 16.5218 20.9999 10.9999 20.9999C7.8562 20.9999 5.04995 19.5499 3.21558 17.2781C4.9312 18.6656 7.11557 19.4937 9.4937 19.4937C15.0156 19.4937 19.4937 15.0187 19.4937 9.4937C19.4937 7.11557 18.6656 4.9312 17.2781 3.21558C19.5468 5.04995 20.9999 7.8562 20.9999 10.9999Z" fill="#F4C534"/>
<path d="M6.83286 12.8024C8.79692 12.8024 10.3891 11.2103 10.3891 9.24619C10.3891 7.28213 8.79692 5.68994 6.83286 5.68994C4.8688 5.68994 3.27661 7.28213 3.27661 9.24619C3.27661 11.2103 4.8688 12.8024 6.83286 12.8024Z" fill="#F4C534"/>
<path d="M6.83304 12.1382C8.43017 12.1382 9.72491 10.8435 9.72491 9.24637C9.72491 7.64923 8.43017 6.35449 6.83304 6.35449C5.2359 6.35449 3.94116 7.64923 3.94116 9.24637C3.94116 10.8435 5.2359 12.1382 6.83304 12.1382Z" fill="white"/>
<path d="M8.31569 8.12127C8.31694 8.97127 7.65632 9.69127 6.83882 9.72314C6.02132 9.75502 5.35257 9.08627 5.35132 8.23564C5.35007 7.38502 6.01694 6.67127 6.83444 6.64002C7.65194 6.60814 8.31444 7.27064 8.31569 8.12127Z" fill="#3E4347"/>
<path d="M7.26564 7.37824C7.26564 7.52761 7.06627 7.65199 6.82314 7.66136C6.58002 7.67074 6.38002 7.56199 6.37939 7.41199C6.37939 7.26261 6.57877 7.13199 6.82252 7.12199C7.06564 7.11386 7.26564 7.22949 7.26564 7.37824Z" fill="white"/>
<path d="M15.1668 12.8024C17.1309 12.8024 18.7231 11.2103 18.7231 9.24619C18.7231 7.28213 17.1309 5.68994 15.1668 5.68994C13.2028 5.68994 11.6106 7.28213 11.6106 9.24619C11.6106 11.2103 13.2028 12.8024 15.1668 12.8024Z" fill="#F4C534"/>
<path d="M15.1668 12.1382C16.7639 12.1382 18.0586 10.8435 18.0586 9.24637C18.0586 7.64923 16.7639 6.35449 15.1668 6.35449C13.5696 6.35449 12.2749 7.64923 12.2749 9.24637C12.2749 10.8435 13.5696 12.1382 15.1668 12.1382Z" fill="white"/>
<path d="M15.1682 9.66382C15.988 9.66382 16.6526 8.99924 16.6526 8.17944C16.6526 7.35965 15.988 6.69507 15.1682 6.69507C14.3484 6.69507 13.6838 7.35965 13.6838 8.17944C13.6838 8.99924 14.3484 9.66382 15.1682 9.66382Z" fill="#3E4347"/>
<path d="M15.1569 7.68184C15.402 7.68184 15.6006 7.56571 15.6006 7.42246C15.6006 7.27921 15.402 7.16309 15.1569 7.16309C14.9118 7.16309 14.7131 7.27921 14.7131 7.42246C14.7131 7.56571 14.9118 7.68184 15.1569 7.68184Z" fill="white"/>
<path d="M13.6749 15.6901C13.6749 16.2276 13.2374 16.6651 12.6999 16.6651H9.29995C8.76245 16.6651 8.32495 16.2276 8.32495 15.6901C8.32495 15.1526 8.76245 14.7151 9.29995 14.7151H12.6999C13.2374 14.7151 13.6749 15.1532 13.6749 15.6901Z" fill="#3E4347"/>
</svg>
