<svg width="22" height="22" viewBox="0 0 22 22" fill="none" xmlns="http://www.w3.org/2000/svg">
<path d="M11 21C16.5228 21 21 16.5228 21 11C21 5.47715 16.5228 1 11 1C5.47715 1 1 5.47715 1 11C1 16.5228 5.47715 21 11 21Z" fill="#FFD93B"/>
<path d="M20.9999 10.9999C20.9999 16.5249 16.5218 20.9999 10.9999 20.9999C7.8562 20.9999 5.04995 19.5499 3.21558 17.2781C4.9312 18.6656 7.11557 19.4937 9.4937 19.4937C15.0156 19.4937 19.4937 15.0187 19.4937 9.4937C19.4937 7.11557 18.6656 4.9312 17.2781 3.21558C19.5468 5.04995 20.9999 7.8562 20.9999 10.9999Z" fill="#F4C534"/>
<path d="M9.15399 4.84437C7.81899 4.32937 6.53962 4.51625 5.73462 5.4275C6.25899 3.94687 7.68899 3.31437 9.01962 3.63562L9.15399 4.84437Z" fill="#3E4347"/>
<path d="M10.6291 9.39745C10.6347 11.3443 9.38408 12.9231 7.83595 12.9231C6.28783 12.9231 5.02908 11.3449 5.02346 9.39745C5.01783 7.45058 6.26846 5.87183 7.81658 5.87183C9.36408 5.87183 10.6235 7.45058 10.6291 9.39745Z" fill="#3E4347"/>
<path d="M10.128 9.39749C10.2574 11.0981 9.33177 12.4769 8.06052 12.4769C6.78927 12.4769 5.65365 11.0981 5.52427 9.39749C5.3949 7.69686 6.32052 6.31812 7.59177 6.31812C8.86302 6.31749 9.99865 7.69624 10.128 9.39749Z" fill="white"/>
<path d="M8.65628 11.288C9.32144 11.288 9.86065 10.6847 9.86065 9.94052C9.86065 9.19631 9.32144 8.59302 8.65628 8.59302C7.99112 8.59302 7.4519 9.19631 7.4519 9.94052C7.4519 10.6847 7.99112 11.288 8.65628 11.288Z" fill="#3E4347"/>
<path d="M9.31115 9.72573C9.1774 9.84823 8.93678 9.79511 8.7674 9.61448C8.59803 9.43448 8.5699 9.18823 8.69678 9.07136C8.83053 8.94886 9.07115 8.99573 9.23428 9.18198C9.40428 9.36261 9.43803 9.60886 9.31115 9.72573Z" fill="#5A5F63"/>
<path d="M12.845 4.84437C14.18 4.32937 15.4593 4.51625 16.2643 5.4275C15.74 3.94687 14.31 3.31437 12.9793 3.63562L12.845 4.84437Z" fill="#3E4347"/>
<path d="M11.3706 9.39745C11.365 11.3443 12.6156 12.9231 14.1637 12.9231C15.7119 12.9231 16.9706 11.3449 16.9762 9.39745C16.9819 7.45058 15.7312 5.87183 14.1831 5.87183C12.6356 5.87183 11.3762 7.45058 11.3706 9.39745Z" fill="#3E4347"/>
<path d="M11.8719 9.39749C11.7426 11.0981 12.6682 12.4769 13.9394 12.4769C15.2107 12.4769 16.3463 11.0981 16.4757 9.39749C16.6051 7.69686 15.6794 6.31812 14.4082 6.31812C13.1369 6.31749 12.0013 7.69624 11.8719 9.39749Z" fill="white"/>
<path d="M13.3438 11.288C14.0089 11.288 14.5482 10.6847 14.5482 9.94052C14.5482 9.19631 14.0089 8.59302 13.3438 8.59302C12.6786 8.59302 12.1394 9.19631 12.1394 9.94052C12.1394 10.6847 12.6786 11.288 13.3438 11.288Z" fill="#3E4347"/>
<path d="M12.6888 9.72573C12.8219 9.84823 13.0632 9.79511 13.2325 9.61448C13.4019 9.43448 13.4294 9.18823 13.3032 9.07136C13.17 8.94886 12.9288 8.99573 12.7657 9.18198C12.5957 9.36261 12.5619 9.60886 12.6888 9.72573Z" fill="#5A5F63"/>
<path d="M16.2505 15.4362C16.2505 15.4362 15.9555 15.0524 15.6005 14.7987C15.563 14.7674 15.5255 14.7424 15.4818 14.7174C14.8662 16.5668 12.9474 17.2943 11.0068 17.3674C8.12868 17.2712 6.75243 15.7218 6.5193 14.7112C6.4818 14.7424 6.43805 14.7674 6.3943 14.7987C6.0618 15.0362 5.75055 15.4362 5.75055 15.4362C5.7093 15.2299 5.8593 14.7981 6.21305 14.5487C6.51118 14.3206 6.96055 14.2606 7.1943 14.3424C6.9893 14.4449 6.7493 14.5612 6.5568 14.6862C6.96118 15.4943 8.4043 16.6899 10.9881 16.7424C13.5024 16.6981 14.9812 15.6174 15.4443 14.6924C15.1843 14.5237 15.0749 14.4843 14.8068 14.3424C15.0405 14.2606 15.4899 14.3206 15.788 14.5487C16.0705 14.7474 16.2505 15.0593 16.2505 15.4362Z" fill="#3E4347"/>
<path d="M9.78198 18.2288C9.99386 18.2619 10.662 18.5644 10.8726 18.5519C11.4289 18.5781 12.0245 18.2288 12.0245 18.2288C11.9176 18.6288 11.4795 19.0125 10.9001 18.995C10.317 18.9706 9.86823 18.5756 9.78198 18.2288Z" fill="#F4C534"/>
</svg>
