<svg width="22" height="22" viewBox="0 0 22 22" fill="none" xmlns="http://www.w3.org/2000/svg">
<path d="M10.9999 20.9998C16.5227 20.9998 20.9998 16.5227 20.9998 10.9999C20.9998 5.47712 16.5227 1 10.9999 1C5.47712 1 1 5.47712 1 10.9999C1 16.5227 5.47712 20.9998 10.9999 20.9998Z" fill="#FFD93B"/>
<path d="M20.9998 10.9999C20.9998 16.5248 16.5217 20.9998 10.9999 20.9998C7.85615 20.9998 5.04993 19.5498 3.21558 17.278C4.93118 18.6655 7.11554 19.4936 9.49364 19.4936C15.0155 19.4936 19.4935 15.0186 19.4935 9.49365C19.4935 7.11555 18.6654 4.93119 17.2779 3.21558C19.5467 5.04994 20.9998 7.85616 20.9998 10.9999Z" fill="#F4C534"/>
<path d="M17.8477 13.6285C17.1102 16.7285 14.329 19.041 10.9978 19.041C7.66657 19.041 4.88534 16.7285 4.14785 13.6223C4.0916 13.3848 4.31035 13.1785 4.5416 13.2473C8.87906 14.541 13.1853 14.566 17.454 13.2535C17.6915 13.1785 17.904 13.391 17.8477 13.6285Z" fill="#3E4347"/>
<path d="M10.5959 16.4187C8.03588 16.4187 6.21215 15.6656 6.56714 17.4456C6.56902 17.455 6.57277 17.4637 6.57464 17.4731C7.78276 18.4525 9.32025 19.04 10.9984 19.04C12.6765 19.04 14.214 18.4518 15.4221 17.4737C15.424 17.4637 15.4277 17.455 15.4296 17.4456C15.7846 15.6656 13.1565 16.4187 10.5959 16.4187Z" fill="#E24B4B"/>
<path d="M4.64185 13.2729C5.01997 14.6292 7.7137 15.6754 10.9855 15.6754C14.2455 15.6754 16.9305 14.6367 17.3242 13.2873C13.1312 14.5498 8.90181 14.5242 4.64185 13.2729Z" fill="white"/>
<path d="M15.1715 13.229C17.2954 13.229 19.0171 11.5073 19.0171 9.38344C19.0171 7.25957 17.2954 5.53784 15.1715 5.53784C13.0477 5.53784 11.3259 7.25957 11.3259 9.38344C11.3259 11.5073 13.0477 13.229 15.1715 13.229Z" fill="#F4C534"/>
<path d="M18.4635 9.38399C18.3622 11.2133 16.8072 12.6952 14.9891 12.6952C13.1716 12.6952 11.7748 11.2127 11.876 9.38399C11.9773 7.55463 13.5385 6.06714 15.356 6.06714C17.1735 6.06714 18.5647 7.55525 18.4635 9.38399Z" fill="white"/>
<path d="M16.7304 9.38192C16.7341 10.2438 16.0322 10.9457 15.1704 10.9419C14.3085 10.9457 13.606 10.2432 13.6104 9.38129C13.6066 8.51942 14.3085 7.81755 15.1704 7.8213C16.0322 7.81755 16.7341 8.52005 16.7304 9.38192Z" fill="#3E4347"/>
<path d="M15.9534 8.59836C15.7715 8.41653 15.5295 8.3637 15.4129 8.48037C15.2962 8.59703 15.349 8.83902 15.5309 9.02086C15.7127 9.20269 15.9547 9.25552 16.0713 9.13885C16.188 9.02218 16.1352 8.7802 15.9534 8.59836Z" fill="white"/>
<path d="M6.8285 13.229C8.95237 13.229 10.6741 11.5073 10.6741 9.38344C10.6741 7.25957 8.95237 5.53784 6.8285 5.53784C4.70464 5.53784 2.98291 7.25957 2.98291 9.38344C2.98291 11.5073 4.70464 13.229 6.8285 13.229Z" fill="#F4C534"/>
<path d="M3.53693 9.38399C3.63818 11.2133 5.19317 12.6952 7.01128 12.6952C8.82877 12.6952 10.2256 11.2127 10.1244 9.38399C10.0231 7.55463 8.46189 6.06714 6.64441 6.06714C4.8263 6.06714 3.43569 7.55525 3.53693 9.38399Z" fill="white"/>
<path d="M5.27003 9.38192C5.26628 10.2438 5.96815 10.9457 6.83002 10.9419C7.69189 10.9457 8.39376 10.2432 8.39001 9.38129C8.39376 8.51942 7.69189 7.81755 6.83002 7.8213C5.96878 7.81755 5.26628 8.52005 5.27003 9.38192Z" fill="#3E4347"/>
<path d="M6.5864 8.4816C6.46973 8.36493 6.22775 8.41776 6.04591 8.59959C5.86407 8.78143 5.81124 9.02341 5.92791 9.14008C6.04458 9.25674 6.28657 9.20391 6.4684 9.02208C6.65024 8.84025 6.70307 8.59826 6.5864 8.4816Z" fill="white"/>
</svg>
