<svg width="22" height="22" viewBox="0 0 22 22" fill="none" xmlns="http://www.w3.org/2000/svg">
<path d="M11 21C16.5228 21 21 16.5228 21 11C21 5.47715 16.5228 1 11 1C5.47715 1 1 5.47715 1 11C1 16.5228 5.47715 21 11 21Z" fill="#FFD93B"/>
<path d="M20.9999 10.9999C20.9999 16.5249 16.5218 20.9999 10.9999 20.9999C7.8562 20.9999 5.04995 19.5499 3.21558 17.2781C4.9312 18.6656 7.11557 19.4937 9.4937 19.4937C15.0156 19.4937 19.4937 15.0187 19.4937 9.4937C19.4937 7.11557 18.6656 4.9312 17.2781 3.21558C19.5468 5.04995 20.9999 7.8562 20.9999 10.9999Z" fill="#F4C534"/>
<path d="M10.612 9.59678C10.612 11.6999 9.14946 13.403 7.34634 13.403C5.53696 13.403 4.07446 11.6999 4.07446 9.59678C4.07446 7.49365 5.53696 5.79053 7.34634 5.79053C9.14946 5.79053 10.612 7.49365 10.612 9.59678Z" fill="white"/>
<path d="M8.31697 11.1588C9.15299 11.1588 9.83072 10.4092 9.83072 9.48443C9.83072 8.5597 9.15299 7.81006 8.31697 7.81006C7.48095 7.81006 6.80322 8.5597 6.80322 9.48443C6.80322 10.4092 7.48095 11.1588 8.31697 11.1588Z" fill="#3E4347"/>
<path d="M9.23369 8.93239C9.14494 9.07114 8.92494 9.09676 8.74619 8.98051C8.56682 8.87051 8.49182 8.66489 8.58057 8.52614C8.66432 8.38114 8.88307 8.36114 9.06244 8.47739C9.24119 8.58801 9.31619 8.79364 9.23369 8.93239Z" fill="#5A5F63"/>
<path d="M11.5745 9.59678C11.5745 11.6999 13.037 13.403 14.8401 13.403C16.6495 13.403 18.112 11.6999 18.112 9.59678C18.112 7.49365 16.6495 5.79053 14.8401 5.79053C13.037 5.79053 11.5745 7.49365 11.5745 9.59678Z" fill="white"/>
<path d="M13.8695 11.1588C14.7055 11.1588 15.3832 10.4092 15.3832 9.48443C15.3832 8.5597 14.7055 7.81006 13.8695 7.81006C13.0334 7.81006 12.3557 8.5597 12.3557 9.48443C12.3557 10.4092 13.0334 11.1588 13.8695 11.1588Z" fill="#3E4347"/>
<path d="M14.7857 8.93239C14.6969 9.07114 14.4769 9.09676 14.2982 8.98051C14.1188 8.87051 14.0438 8.66489 14.1326 8.52614C14.2163 8.38114 14.4351 8.36114 14.6144 8.47739C14.7938 8.58801 14.8688 8.79364 14.7857 8.93239Z" fill="#5A5F63"/>
<path d="M14.097 16.2094C13.5882 15.2912 12.8232 14.4644 11.4295 14.4644C10.0357 14.4644 8.41134 15.2912 7.90259 16.2094C9.44696 15.1681 11.5113 15.1681 14.097 16.2094Z" fill="#3E4347"/>
</svg>
