<svg width="22" height="22" viewBox="0 0 22 22" fill="none" xmlns="http://www.w3.org/2000/svg">
<path d="M11 21C16.5228 21 21 16.5228 21 11C21 5.47715 16.5228 1 11 1C5.47715 1 1 5.47715 1 11C1 16.5228 5.47715 21 11 21Z" fill="#FFD93B"/>
<path d="M20.9999 10.9999C20.9999 16.5249 16.5218 20.9999 10.9999 20.9999C7.8562 20.9999 5.04995 19.5499 3.21558 17.2781C4.9312 18.6656 7.11557 19.4937 9.4937 19.4937C15.0156 19.4937 19.4937 15.0187 19.4937 9.4937C19.4937 7.11557 18.6656 4.9312 17.2781 3.21558C19.5468 5.04995 20.9999 7.8562 20.9999 10.9999Z" fill="#F4C534"/>
<path d="M6.08121 15.782C6.05871 16.6107 6.99621 17.0195 8.18746 17.1882C8.66621 17.2545 9.12371 17.2957 9.54058 17.2657C10.4631 17.2063 11.5206 17.3757 12.4812 17.7688C12.9143 17.9457 13.3987 18.0482 13.8956 18.0026C15.15 17.8882 15.9443 16.6057 15.9156 15.8001C15.8862 14.4051 14.8443 12.2988 13.2981 12.8457C12.3818 13.282 9.63246 14.0526 8.60933 13.6313C7.02621 12.9345 6.17996 14.0607 6.08121 15.782Z" fill="#3E4347"/>
<path d="M8.60931 13.6307C8.39493 13.5363 8.19556 13.4782 8.00806 13.4476C8.01118 13.4607 8.01556 13.4763 8.01868 13.4895C8.39243 14.4582 9.61681 14.6345 10.9993 14.477C12.3599 14.3288 13.5137 13.9638 13.8506 12.7576C13.6749 12.7501 13.4906 12.7763 13.2981 12.8445C12.3818 13.2813 9.63243 14.052 8.60931 13.6307Z" fill="white"/>
<path d="M8.30136 17.0757C8.36386 16.507 8.79198 16.0639 9.38323 15.7695C9.70073 15.612 10.1201 15.587 10.4757 15.7357C10.6814 15.8239 10.9276 15.8845 11.2089 15.892C11.2745 15.8907 11.3414 15.8951 11.4039 15.8889C12.3339 15.8114 13.2764 16.2782 13.6207 17.2082C13.6964 17.4089 13.7445 17.6232 13.7682 17.8482C13.7732 17.9014 13.7732 17.9545 13.7751 18.007C13.3207 18.0314 12.8795 17.9307 12.4814 17.7689C11.5207 17.3776 10.4639 17.2051 9.54073 17.2657C9.15573 17.2939 8.73636 17.2564 8.29761 17.2014C8.29823 17.157 8.29698 17.1195 8.30136 17.0757Z" fill="#E24B4B"/>
<path d="M7.32563 12.2238C9.18269 12.2238 10.6881 10.8255 10.6881 9.10066C10.6881 7.37581 9.18269 5.97754 7.32563 5.97754C5.46858 5.97754 3.96313 7.37581 3.96313 9.10066C3.96313 10.8255 5.46858 12.2238 7.32563 12.2238Z" fill="#F4C534"/>
<path d="M10.1831 9.10058C10.0956 10.5243 8.74559 11.6781 7.16746 11.6781C5.58934 11.6781 4.38059 10.5237 4.46809 9.10058C4.55559 7.67684 5.90559 6.52246 7.48371 6.52246C9.06184 6.52246 10.2706 7.67684 10.1831 9.10058Z" fill="white"/>
<path d="M8.25185 10.5943C9.03196 10.5943 9.66435 9.93116 9.66435 9.11309C9.66435 8.29501 9.03196 7.63184 8.25185 7.63184C7.47175 7.63184 6.83936 8.29501 6.83936 9.11309C6.83936 9.93116 7.47175 10.5943 8.25185 10.5943Z" fill="#3E4347"/>
<path d="M9.10999 8.54937C9.03812 8.66562 8.84999 8.67062 8.68437 8.56562C8.52374 8.46625 8.44687 8.28937 8.51874 8.17875C8.58499 8.06812 8.77874 8.0575 8.93874 8.16187C9.10437 8.26187 9.18187 8.43812 9.10999 8.54937Z" fill="#5A5F63"/>
<path d="M14.6743 11.5026C16.5313 11.5026 18.0368 10.1043 18.0368 8.37947C18.0368 6.65462 16.5313 5.25635 14.6743 5.25635C12.8172 5.25635 11.3118 6.65462 11.3118 8.37947C11.3118 10.1043 12.8172 11.5026 14.6743 11.5026Z" fill="#F4C534"/>
<path d="M17.532 8.37939C17.4445 9.80252 16.0945 10.9569 14.5163 10.9569C12.9382 10.9569 11.7295 9.80252 11.817 8.37939C11.9045 6.95564 13.2545 5.80127 14.8326 5.80127C16.4101 5.80189 17.6188 6.95627 17.532 8.37939Z" fill="white"/>
<path d="M13.7975 9.61191C14.5776 9.61191 15.21 8.94874 15.21 8.13066C15.21 7.31259 14.5776 6.64941 13.7975 6.64941C13.0174 6.64941 12.385 7.31259 12.385 8.13066C12.385 8.94874 13.0174 9.61191 13.7975 9.61191Z" fill="#3E4347"/>
<path d="M14.6556 7.56695C14.5837 7.6832 14.3956 7.68883 14.2299 7.5832C14.0699 7.48383 13.9924 7.30695 14.0643 7.19633C14.1306 7.0857 14.3243 7.07445 14.4843 7.17945C14.6499 7.27945 14.7274 7.45633 14.6556 7.56695Z" fill="#5A5F63"/>
</svg>
