<svg width="22" height="22" viewBox="0 0 22 22" fill="none" xmlns="http://www.w3.org/2000/svg">
<path d="M11 21C16.5228 21 21 16.5228 21 11C21 5.47715 16.5228 1 11 1C5.47715 1 1 5.47715 1 11C1 16.5228 5.47715 21 11 21Z" fill="#FFD93B"/>
<path d="M20.9997 11C20.9997 16.525 16.5216 21 10.9997 21C7.85595 21 5.0497 19.55 3.21533 17.2781C4.93095 18.6656 7.11533 19.4937 9.49345 19.4937C15.0153 19.4937 19.4934 15.0187 19.4934 9.4937C19.4934 7.11558 18.6653 4.9312 17.2778 3.21558C19.5466 5.04995 20.9997 7.8562 20.9997 11Z" fill="#F4C534"/>
<path d="M8.6361 7.32316C7.79109 7.19129 6.95547 7.03566 6.30422 6.43566C6.28172 6.41504 6.26672 6.39004 6.24609 6.36816C5.58922 6.47254 4.98484 6.69129 4.55672 7.02879C3.38922 8.06754 3.38547 10.3332 4.55672 11.3719C5.79734 12.3532 8.50234 12.3532 9.74234 11.3719C10.8423 10.3963 10.9092 8.33941 9.94359 7.23254C9.56735 7.36629 9.12609 7.40004 8.6361 7.32316Z" fill="#F4C534"/>
<path d="M9.06694 7.35939C8.92756 7.35564 8.78506 7.34627 8.63631 7.32314C8.10569 7.24002 7.57881 7.14752 7.09881 6.94189C6.21881 6.95064 5.42131 7.17002 4.98631 7.51127C4.57193 7.88002 4.32506 8.51377 4.32568 9.20564C4.32631 9.89439 4.57318 10.5231 4.95756 10.865C5.43006 11.2388 6.24943 11.4619 7.14943 11.4619C8.04943 11.4619 8.86881 11.2388 9.31381 10.8888C9.72819 10.5213 9.97569 9.89002 9.97569 9.20064C9.97569 8.51064 9.72819 7.87939 9.34194 7.53564C9.26069 7.47189 9.16631 7.41377 9.06694 7.35939Z" fill="white"/>
<path d="M10.0341 5.94304C10.5191 6.40679 10.6266 7.46304 9.48344 7.63866C8.77344 7.76366 7.91656 7.52116 7.24031 7.28366C5.65906 6.65429 4.48969 5.86179 3.82031 5.17554C4.71281 5.33241 6.70969 6.10679 7.55594 6.42616C7.97406 6.58179 8.97531 6.94616 9.43156 6.96054C9.82406 6.97554 10.2078 6.90241 10.0341 5.94304Z" fill="#3E4347"/>
<path d="M8.36653 10.8762C9.0386 10.8762 9.58341 10.2401 9.58341 9.45554C9.58341 8.67095 9.0386 8.03491 8.36653 8.03491C7.69447 8.03491 7.14966 8.67095 7.14966 9.45554C7.14966 10.2401 7.69447 10.8762 8.36653 10.8762Z" fill="#3E4347"/>
<path d="M8.98545 8.68527C8.85501 8.51691 8.63777 8.46681 8.50025 8.57337C8.36272 8.67993 8.35699 8.90279 8.48744 9.07114C8.61788 9.2395 8.83512 9.2896 8.97264 9.18304C9.11017 9.07648 9.1159 8.85362 8.98545 8.68527Z" fill="#5A5F63"/>
<path d="M13.3637 7.32316C14.2093 7.19129 15.0443 7.03566 15.6955 6.43566C15.718 6.41504 15.733 6.39004 15.7537 6.36816C16.4105 6.47316 17.0149 6.69129 17.443 7.02941C18.6105 8.06816 18.6149 10.3338 17.443 11.3725C16.2024 12.3538 13.4974 12.3538 12.2574 11.3725C11.1574 10.3969 11.0905 8.34004 12.0562 7.23316C12.4324 7.36629 12.8737 7.40004 13.3637 7.32316Z" fill="#F4C534"/>
<path d="M12.9337 7.35939C13.073 7.35564 13.2155 7.34627 13.3643 7.32314C13.8949 7.24002 14.4218 7.14752 14.9018 6.94189C15.7818 6.95064 16.5793 7.17002 17.0143 7.51127C17.4287 7.88002 17.6755 8.51377 17.6749 9.20564C17.6743 9.89439 17.4274 10.5231 17.043 10.865C16.5705 11.2388 15.7512 11.4619 14.8512 11.4619C13.9512 11.4619 13.1318 11.2388 12.6868 10.8888C12.2724 10.5213 12.0249 9.89002 12.0249 9.20064C12.0249 8.51064 12.2724 7.87939 12.6587 7.53564C12.7393 7.47189 12.8337 7.41377 12.9337 7.35939Z" fill="white"/>
<path d="M11.9662 5.94304C11.4818 6.40679 11.3737 7.46304 12.5168 7.63866C13.2268 7.76366 14.0837 7.52116 14.76 7.28366C16.3418 6.65429 17.5112 5.86179 18.18 5.17554C17.2875 5.33241 15.2906 6.10679 14.4443 6.42616C14.0262 6.58179 13.0249 6.94616 12.5687 6.96054C12.1762 6.97554 11.7924 6.90241 11.9662 5.94304Z" fill="#3E4347"/>
<path d="M13.6312 10.8762C14.3032 10.8762 14.8481 10.2401 14.8481 9.45554C14.8481 8.67095 14.3032 8.03491 13.6312 8.03491C12.9591 8.03491 12.4143 8.67095 12.4143 9.45554C12.4143 10.2401 12.9591 10.8762 13.6312 10.8762Z" fill="#3E4347"/>
<path d="M13.4998 8.57263C13.3622 8.46607 13.145 8.51617 13.0145 8.68453C12.8841 8.85289 12.8898 9.07575 13.0274 9.18231C13.1649 9.28886 13.3821 9.23876 13.5126 9.07041C13.643 8.90205 13.6373 8.67919 13.4998 8.57263Z" fill="#5A5F63"/>
<path d="M15.9007 14.7575C14.9695 16.5125 13.1401 17.7107 11.0107 17.7107C8.87072 17.7107 7.04072 16.5013 6.09947 14.7357C5.96072 14.4788 6.24947 14.19 6.51697 14.3188C9.60947 15.7094 12.5945 15.6669 15.4838 14.34C15.7507 14.2119 16.0401 14.49 15.9007 14.7575Z" fill="#3E4347"/>
</svg>
