<svg width="22" height="22" viewBox="0 0 22 22" fill="none" xmlns="http://www.w3.org/2000/svg">
<path d="M11 21C16.5228 21 21 16.5228 21 11C21 5.47715 16.5228 1 11 1C5.47715 1 1 5.47715 1 11C1 16.5228 5.47715 21 11 21Z" fill="#FFD93B"/>
<path d="M20.9999 10.9999C20.9999 16.5249 16.5218 20.9999 10.9999 20.9999C7.8562 20.9999 5.04995 19.5499 3.21558 17.2781C4.9312 18.6656 7.11557 19.4937 9.4937 19.4937C15.0156 19.4937 19.4937 15.0187 19.4937 9.4937C19.4937 7.11557 18.6656 4.9312 17.2781 3.21558C19.5468 5.04995 20.9999 7.8562 20.9999 10.9999Z" fill="#F4C534"/>
<path d="M15.8487 16.7413C15.2987 17.6469 14.6831 17.7263 13.8862 17.2101C13.5831 17.0263 12.9731 16.7226 12.2781 16.5232C11.225 16.1944 9.95621 16.2757 8.83683 16.8732C8.11371 17.2619 7.46308 17.5476 7.09246 17.5851C6.11558 17.6519 5.23871 16.7826 5.06746 15.8913C4.88183 15.0219 5.46308 13.5363 6.77246 13.0988C7.24308 12.9488 8.15371 12.9551 9.02371 13.2638C10.3668 13.7163 11.6768 14.0444 12.9506 14.3019C13.7743 14.4713 14.5418 14.7001 14.9506 14.8226C16.0762 15.1357 16.3987 15.8563 15.8487 16.7413Z" fill="#FFD93B"/>
<path d="M15.8487 16.7413C15.2987 17.6469 14.6831 17.7263 13.8862 17.2101C13.5831 17.0263 12.9731 16.7226 12.2781 16.5232C11.225 16.1944 9.95621 16.2757 8.83683 16.8732C8.11371 17.2619 7.46308 17.5476 7.09246 17.5851C6.11558 17.6519 5.23871 16.7826 5.06746 15.8913C4.88183 15.0219 5.46308 13.5363 6.77246 13.0988C7.24308 12.9488 8.15371 12.9551 9.02371 13.2638C10.3668 13.7163 11.6768 14.0444 12.9506 14.3019C13.7743 14.4713 14.5418 14.7001 14.9506 14.8226C16.0762 15.1357 16.3987 15.8563 15.8487 16.7413Z" fill="#3E4347"/>
<path d="M13.4064 15.7657C14.1364 15.8295 14.8307 15.9657 15.5901 16.0145C15.6207 15.6482 15.4051 15.3195 14.8045 15.1195C14.4895 15.0163 13.8039 14.8132 12.9614 14.6682C12.2926 14.5576 11.612 14.4363 10.9207 14.2995C10.2301 14.1626 9.53323 13.9976 8.83261 13.7938C7.95136 13.5288 7.12823 13.567 6.77761 13.6745C6.07073 13.877 5.72011 14.4913 5.61011 15.0063C6.39823 15.0207 7.18323 15.2076 7.93761 15.3776C7.18261 15.5495 6.41886 15.7332 5.63198 15.9382C5.79636 16.5126 6.26698 17.1238 7.01698 17.0276C7.31698 16.9882 7.93573 16.747 8.72073 16.3651C9.33761 16.0726 9.99886 15.9182 10.6439 15.9057C11.2889 15.8926 11.9151 16.0026 12.4782 16.2113C13.2064 16.4707 13.7601 16.7663 14.0082 16.9038C14.6264 17.2582 15.0382 17.082 15.3395 16.6638C14.7189 16.3107 14.0707 16.0145 13.4064 15.7657Z" fill="white"/>
<path d="M7.19181 11.5101C9.04818 11.5101 10.5531 10.0052 10.5531 8.14885C10.5531 6.29248 9.04818 4.7876 7.19181 4.7876C5.33545 4.7876 3.83057 6.29248 3.83057 8.14885C3.83057 10.0052 5.33545 11.5101 7.19181 11.5101Z" fill="#F4C534"/>
<path d="M10.1675 8.14885C10.0781 9.76385 8.67313 11.0726 7.03 11.0726C5.38688 11.0726 4.1275 9.76385 4.21688 8.14885C4.30625 6.53447 5.71125 5.2251 7.35438 5.2251C8.9975 5.2251 10.2569 6.53447 10.1675 8.14885Z" fill="white"/>
<path d="M8.03697 9.8381C8.95998 9.8381 9.70822 9.08986 9.70822 8.16685C9.70822 7.24385 8.95998 6.49561 8.03697 6.49561C7.11397 6.49561 6.36572 7.24385 6.36572 8.16685C6.36572 9.08986 7.11397 9.8381 8.03697 9.8381Z" fill="#3E4347"/>
<path d="M9.03574 7.79996C8.90761 7.92809 8.65824 7.89434 8.48261 7.71871C8.31386 7.54371 8.27386 7.30059 8.40199 7.16621C8.53699 7.03809 8.77949 7.07871 8.95511 7.24684C9.13011 7.42246 9.16386 7.67184 9.03574 7.79996Z" fill="#5A5F63"/>
<path d="M14.7812 11.5101C16.6375 11.5101 18.1424 10.0052 18.1424 8.14885C18.1424 6.29248 16.6375 4.7876 14.7812 4.7876C12.9248 4.7876 11.4199 6.29248 11.4199 8.14885C11.4199 10.0052 12.9248 11.5101 14.7812 11.5101Z" fill="#F4C534"/>
<path d="M11.8031 8.14885C11.8925 9.76385 13.2975 11.0726 14.9406 11.0726C16.5837 11.0726 17.8431 9.76385 17.7537 8.14885C17.6644 6.53385 16.2594 5.2251 14.6162 5.2251C12.9725 5.2251 11.7131 6.53447 11.8031 8.14885Z" fill="white"/>
<path d="M13.933 9.83762C14.856 9.83762 15.6042 9.08937 15.6042 8.16637C15.6042 7.24336 14.856 6.49512 13.933 6.49512C13.01 6.49512 12.2617 7.24336 12.2617 8.16637C12.2617 9.08937 13.01 9.83762 13.933 9.83762Z" fill="#3E4347"/>
<path d="M14.9326 7.79996C14.8044 7.92809 14.5551 7.89434 14.3801 7.71871C14.2113 7.54371 14.1713 7.30059 14.2994 7.16621C14.4344 7.03809 14.6769 7.07871 14.8519 7.24684C15.0269 7.42246 15.0607 7.67184 14.9326 7.79996Z" fill="#5A5F63"/>
<path d="M3.36255 11.3263C5.74255 12.3444 8.0538 12.4138 10.2832 11.3263C7.70755 9.9213 4.69505 10.7519 3.36255 11.2538C3.36255 11.2538 3.36255 11.3263 3.36255 11.3263Z" fill="#FFD93B"/>
<path d="M10.1331 11.2393C9.50805 11.1274 8.65305 10.8386 7.01743 10.858C5.88306 10.8549 4.74806 11.0099 3.85181 11.0824C4.47806 10.6618 5.74806 10.2361 7.01555 10.2336C8.1643 10.2561 9.24055 10.5105 10.1331 11.2393Z" fill="#F4C534"/>
</svg>
