<svg width="22" height="22" viewBox="0 0 22 22" fill="none" xmlns="http://www.w3.org/2000/svg">
<path d="M11 21C16.5228 21 21 16.5228 21 11C21 5.47715 16.5228 1 11 1C5.47715 1 1 5.47715 1 11C1 16.5228 5.47715 21 11 21Z" fill="#FFD93B"/>
<path d="M20.9999 10.9999C20.9999 16.5249 16.5218 20.9999 10.9999 20.9999C7.8562 20.9999 5.04995 19.5499 3.21558 17.2781C4.9312 18.6656 7.11557 19.4937 9.4937 19.4937C15.0156 19.4937 19.4937 15.0187 19.4937 9.4937C19.4937 7.11557 18.6656 4.9312 17.2781 3.21558C19.5468 5.04995 20.9999 7.8562 20.9999 10.9999Z" fill="#F4C534"/>
<path d="M17.6218 14.3149C17.7761 16.4381 15.0493 19.1424 10.9949 19.1399C6.94052 19.1643 4.20615 16.4599 4.3799 14.2943C4.38427 14.0912 4.65177 13.9924 4.90865 14.0724C9.0124 15.3656 12.988 15.3812 17.0968 14.0993C17.3536 14.0187 17.6193 14.1143 17.6218 14.3149Z" fill="#3E4347"/>
<path d="M5.05688 14.123C5.25751 15.3117 7.86376 16.5517 11.1138 16.5017C14.3206 16.5086 16.9194 15.2467 17.1663 14.0886C17.1425 14.0936 17.1206 14.093 17.0969 14.0986C13.0381 15.3674 9.10938 15.363 5.05688 14.123Z" fill="white"/>
<path d="M21 8.51068C21 11.2626 18.7612 13.5013 16.0087 13.5013C13.25 13.5013 11.0112 11.2619 11.0112 8.51068C11.0112 5.75193 13.25 3.51318 16.0087 3.51318C18.7612 3.51318 21 5.75193 21 8.51068Z" fill="#F4C534"/>
<path d="M20.0182 8.51074C20.0182 10.722 18.22 12.5201 16.0088 12.5201C13.7913 12.5201 11.9932 10.722 11.9932 8.51074C11.9932 6.29324 13.7913 4.49512 16.0088 4.49512C18.22 4.49512 20.0182 6.29324 20.0182 8.51074Z" fill="white"/>
<path d="M16.0061 10.6636C17.1977 10.6636 18.1636 9.69769 18.1636 8.50613C18.1636 7.31458 17.1977 6.34863 16.0061 6.34863C14.8146 6.34863 13.8486 7.31458 13.8486 8.50613C13.8486 9.69769 14.8146 10.6636 16.0061 10.6636Z" fill="#3E4347"/>
<path d="M17.082 7.43322C16.8047 7.15595 16.4284 7.08274 16.2414 7.2697C16.0545 7.45666 16.1277 7.83299 16.4049 8.11026C16.6822 8.38753 17.0585 8.46074 17.2455 8.27378C17.4325 8.08682 17.3593 7.71048 17.082 7.43322Z" fill="white"/>
<path d="M13.1562 7.42758C13.1562 10.7763 10.4312 13.5013 7.08187 13.5013C3.725 13.5013 1 10.7763 1 7.42758C1 4.07008 3.725 1.3457 7.08187 1.3457C10.4312 1.3457 13.1562 4.07008 13.1562 7.42758Z" fill="#F4C534"/>
<path d="M11.9613 7.4274C11.9613 10.1186 9.77319 12.3068 7.08194 12.3068C4.38319 12.3068 2.19507 10.1186 2.19507 7.4274C2.19507 4.72865 4.38319 2.54053 7.08194 2.54053C9.77319 2.54053 11.9613 4.72865 11.9613 7.4274Z" fill="white"/>
<path d="M7.07948 10.0506C8.52957 10.0506 9.70511 8.87503 9.70511 7.42494C9.70511 5.97485 8.52957 4.79932 7.07948 4.79932C5.62939 4.79932 4.45386 5.97485 4.45386 7.42494C4.45386 8.87503 5.62939 10.0506 7.07948 10.0506Z" fill="#3E4347"/>
<path d="M8.38802 6.11664C8.05046 5.77908 7.59221 5.69004 7.36449 5.91776C7.13677 6.14549 7.22581 6.60374 7.56336 6.94129C7.90092 7.27885 8.35917 7.36788 8.58689 7.14016C8.81461 6.91244 8.72557 6.45419 8.38802 6.11664Z" fill="white"/>
<path d="M10.9951 19.1399C12.6507 19.1405 14.0794 18.6861 15.1863 18.008C14.4107 17.0117 12.9819 16.5792 11.7732 17.158C11.2788 17.3899 10.7307 17.3992 10.2351 17.1699C9.04693 16.6242 7.60381 17.0017 6.82568 18.0374C7.93006 18.7074 9.35068 19.1499 10.9951 19.1399Z" fill="#E24B4B"/>
</svg>
