<svg xmlns="http://www.w3.org/2000/svg" fill="none" viewBox="0 0 90 23">
  <defs/>
  <path fill="#fff" d="M21.53 11.14v1.44c0 2.88-.95 5.24-2.85 7.08-1.9 1.82-4.38 2.73-7.44 2.73-3.24 0-5.92-1.05-8.04-3.15C1.1 17.14.05 14.56.05 11.5c0-3.04 1.05-5.61 3.15-7.71C5.32 1.67 7.94.609998 11.06.609998c1.96 0 3.75.450002 5.37 1.350002 1.62.9 2.88 2.11 3.78 3.63L17.24 7.3c-.56-1-1.39-1.8-2.49-2.4-1.1-.62-2.33-.93-3.69-.93-2.2 0-4.01.72-5.43 2.16-1.42 1.44-2.13 3.24-2.13 5.4s.71 3.95 2.13 5.37c1.44 1.42 3.32 2.13 5.64 2.13 1.86 0 3.37-.43 4.53-1.29 1.18-.88 1.93-2.05 2.25-3.51h-7.02v-3.09h10.5zm6.004-6.99c-.4.4-.88.6-1.44.6-.56 0-1.05-.2-1.47-.6-.4-.42-.6-.91-.6-1.47 0-.56.2-1.04.6-1.44.4-.420001.89-.630002 1.47-.630002s1.07.210001 1.47.630002c.4.4.6.88.6 1.44 0 .56-.21 1.05-.63 1.47zM24.474 22V7h3.24v15h-3.24zm7.0019 0V.0999994h3.24V22h-3.24zm15.492-15.39c2.06 0 3.82.76 5.28 2.28 1.46 1.52 2.19 3.39 2.19 5.61 0 2.2-.73 4.07-2.19 5.61-1.46 1.52-3.22 2.28-5.28 2.28-2.28 0-4.03-.85-5.25-2.55V22h-3.24V.999999h3.24V9.13c1.22-1.68 2.97-2.52 5.25-2.52zm-3.9 11.34c.9.9 2.03 1.35 3.39 1.35 1.36 0 2.49-.45 3.39-1.35.9-.92 1.35-2.07 1.35-3.45 0-1.38-.45-2.52-1.35-3.42-.9-.92-2.03-1.38-3.39-1.38-1.36 0-2.49.46-3.39 1.38-.9.9-1.35 2.04-1.35 3.42s.45 2.53 1.35 3.45zm16.8565-2.07c.24 1.14.79 2.02 1.65 2.64.86.6 1.91.9 3.15.9 1.72 0 3.01-.62 3.87-1.86l2.67 1.56c-1.48 2.18-3.67 3.27-6.57 3.27-2.44 0-4.41-.74-5.91-2.22-1.5-1.5-2.25-3.39-2.25-5.67 0-2.24.74-4.11 2.22-5.61 1.48-1.52 3.38-2.28 5.7-2.28 2.2 0 4 .77 5.4 2.31 1.42 1.54 2.13 3.41 2.13 5.61 0 .34-.04.79-.12 1.35h-11.94zm-.03-2.64h8.82c-.22-1.22-.73-2.14-1.53-2.76-.78-.62-1.7-.93-2.76-.93-1.2 0-2.2.33-3 .99-.8.66-1.31 1.56-1.53 2.7zm18.1809-3.72c.82-1.86 2.36-2.79 4.62-2.79v3.51c-1.24-.08-2.32.22-3.24.9-.92.66-1.38 1.76-1.38 3.3V22h-3.24V7h3.24v2.52z"/>
  <path fill="#CF000F" d="M88.6292 21.7c-.44.44-.97.66-1.59.66-.62 0-1.15-.22-1.59-.66-.44-.44-.66-.97-.66-1.59 0-.62.21-1.15.63-1.59.44-.44.98-.66 1.62-.66.62 0 1.15.22 1.59.66.44.44.66.97.66 1.59 0 .62-.22 1.15-.66 1.59z"/>
</svg>
