<?xml version="1.0" encoding="utf-8"?>
<!-- Generator: Adobe Illustrator 23.0.1, SVG Export Plug-In . SVG Version: 6.00 Build 0)  -->
<svg version="1.1" xmlns="http://www.w3.org/2000/svg" xmlns:xlink="http://www.w3.org/1999/xlink" x="0px" y="0px"
	 viewBox="0 0 150 50" style="enable-background:new 0 0 150 50;" xml:space="preserve">
<style type="text/css">
	.st0{display:none;}
	.st1{display:inline;}
	.st2{fill:#161D27;}
	.st3{fill:#DDDDDD;}
</style>
<g id="Capa_1" class="st0">
	<g class="st1">
		<g>
			<path class="st2" d="M14,35.1h-0.3c-1.6,0-2.9-1.3-2.9-2.9V17.6c0-1.6,1.3-2.9,2.9-2.9h0c1.6,0,2.9,1.3,2.9,2.9v15
				C16.6,34,15.5,35.1,14,35.1z"/>
			<path class="st2" d="M45.9,43h-0.3c-1.6,0-2.9-1.3-2.9-2.9V9.7c0-1.6,1.3-2.9,2.9-2.9h0c1.6,0,2.9,1.3,2.9,2.9v30.7
				C48.5,41.8,47.3,43,45.9,43z"/>
			<path class="st2" d="M24.7,43h-0.3c-1.6,0-2.9-1.3-2.9-2.9V9.7c0-1.6,1.3-2.9,2.9-2.9h0c1.6,0,2.9,1.3,2.9,2.9v30.7
				C27.2,41.8,26.1,43,24.7,43z"/>
			<path class="st2" d="M56.5,35.1h-0.3c-1.6,0-2.9-1.3-2.9-2.9V17.6c0-1.6,1.3-2.9,2.9-2.9h0c1.6,0,2.9,1.3,2.9,2.9v15
				C59.1,34,57.9,35.1,56.5,35.1z"/>
			<path class="st2" d="M35.3,35.8H35c-1.6,0-2.9-1.3-2.9-2.9V18.7c0-1.6,1.3-2.9,2.9-2.9h0c1.6,0,2.9,1.3,2.9,2.9v14.5
				C37.9,34.6,36.7,35.8,35.3,35.8z"/>
		</g>
		<g>
			<path class="st3" d="M78.2,30l4.9-10.6c0-0.1,0.2-0.2,0.3-0.2h0.2c0.1,0,0.2,0.1,0.3,0.2L88.7,30c0.1,0.2,0,0.4-0.3,0.4h-1.7
				c-0.3,0-0.4-0.1-0.6-0.4l-0.6-1.2h-4.3L80.8,30c-0.1,0.2-0.3,0.4-0.6,0.4h-1.7C78.2,30.4,78.1,30.2,78.2,30z M84.7,26.6L83.5,24
				h0l-1.2,2.6H84.7z"/>
			<path class="st3" d="M101.1,19.2c1.6,0,2.7,0.5,3.8,1.5c0.1,0.1,0.1,0.3,0,0.4l-1.2,1.3c-0.1,0.1-0.3,0.1-0.4,0
				c-0.6-0.5-1.4-0.8-2.1-0.8c-1.8,0-3.1,1.5-3.1,3.2c0,1.7,1.3,3.2,3.1,3.2c0.7,0,1.5-0.3,2.1-0.8c0.1-0.1,0.3-0.1,0.4,0l1.2,1.3
				c0.1,0.1,0.1,0.3,0,0.4c-1.1,1-2.4,1.5-3.8,1.5c-3.1,0-5.7-2.5-5.7-5.6S97.9,19.2,101.1,19.2z"/>
			<path class="st3" d="M114.2,19.5c0-0.1,0.2-0.3,0.3-0.3h0.3c0.1,0,0.2,0.1,0.3,0.2l3.6,6.8h0l3.6-6.8c0-0.1,0.2-0.2,0.3-0.2h0.3
				c0.1,0,0.3,0.1,0.3,0.3l1.8,10.6c0,0.2-0.1,0.3-0.3,0.3h-1.9c-0.1,0-0.3-0.1-0.3-0.3l-0.7-4.9h0l-2.6,5.1c0,0.1-0.2,0.2-0.3,0.2
				h-0.3c-0.1,0-0.2-0.1-0.3-0.2l-2.7-5.1h0l-0.7,4.9c0,0.1-0.1,0.3-0.3,0.3h-1.9c-0.2,0-0.3-0.1-0.3-0.3L114.2,19.5z"/>
			<path class="st3" d="M133.2,19.7c0-0.2,0.1-0.3,0.3-0.3h6.5c0.2,0,0.3,0.1,0.3,0.3v1.7c0,0.2-0.1,0.3-0.3,0.3h-4.4v1.9h3.6
				c0.2,0,0.3,0.1,0.3,0.3v1.7c0,0.2-0.1,0.3-0.3,0.3h-3.6v2.1h4.4c0.2,0,0.3,0.1,0.3,0.3v1.7c0,0.2-0.1,0.3-0.3,0.3h-6.5
				c-0.2,0-0.3-0.1-0.3-0.3V19.7z"/>
		</g>
	</g>
</g>
<g id="Capa_2">
	<g>
		<path class="st2" d="M24.9,18.2c-2.8,0-5.1,2.2-5.3,4.9c0,0.1,0,0.2,0,0.2v7.3c0,0.9,0.7,1.6,1.6,1.6s1.6-0.7,1.6-1.6v-1.3h4.4
			v1.3c0,0.9,0.7,1.6,1.6,1.6c0.9,0,1.6-0.7,1.6-1.6v-7.3c0-0.1,0-0.2,0-0.2C30.1,20.3,27.8,18.2,24.9,18.2z M22.8,26.1v-2.6
			c0-1.2,1-2.2,2.2-2.2s2.2,1,2.2,2.2v2.6H22.8z"/>
		<path class="st2" d="M24.9,6.3c-10.4,0-18.8,8.4-18.8,18.8S14.6,44,24.9,44s18.8-8.4,18.8-18.8S35.3,6.3,24.9,6.3z M24.9,40.8
			c-8.6,0-15.6-7-15.6-15.6s7-15.6,15.6-15.6s15.6,7,15.6,15.6S33.6,40.8,24.9,40.8z"/>
		<path class="st3" d="M58.9,18.2c-2.8,0-5.1,2.2-5.3,4.9c0,0.1,0,0.2,0,0.2v7.3c0,0.9,0.7,1.6,1.6,1.6s1.6-0.7,1.6-1.6v-1.3h4.4
			v1.3c0,0.9,0.7,1.6,1.6,1.6s1.6-0.7,1.6-1.6v-7.3c0-0.1,0-0.2,0-0.2C64,20.3,61.7,18.2,58.9,18.2z M56.7,26.1v-2.6
			c0-1.2,1-2.2,2.2-2.2s2.2,1,2.2,2.2v2.6H56.7z"/>
		<path class="st3" d="M91.6,18.2c-1.5,0-2.8,0.6-3.8,1.6c-1-1-2.3-1.6-3.8-1.6c-2.8,0-5.1,2.2-5.3,4.9c0,0.1,0,0.2,0,0.2v7.3
			c0,0.9,0.7,1.6,1.6,1.6c0.9,0,1.6-0.7,1.6-1.6v-7.1c0-1.2,1-2.2,2.2-2.2c1.2,0,2.2,1,2.2,2.2v3.9c0,0.9,0.7,1.6,1.6,1.6
			c0.9,0,1.6-0.7,1.6-1.6v-3.9c0-1.2,1-2.2,2.2-2.2c1.2,0,2.2,1,2.2,2.2v7.1c0,0.9,0.7,1.6,1.6,1.6c0.9,0,1.6-0.7,1.6-1.6v-7.3
			c0-0.1,0-0.2,0-0.2C96.7,20.3,94.4,18.2,91.6,18.2z"/>
		<path class="st3" d="M75.7,27.5c-0.8-0.4-1.7-0.2-2.2,0.6c-0.4,0.7-1.1,1.1-1.9,1.1c-1.2,0-2.2-1-2.2-2.2v-3.4c0,0,0,0,0,0
			c0-1.2,1-2.2,2.2-2.2c0.7,0,1.4,0.4,1.8,1c0.3,0.5,0.8,0.7,1.3,0.7c0.3,0,0.6-0.1,0.9-0.3c0.7-0.5,0.9-1.5,0.4-2.2
			c-1-1.5-2.7-2.4-4.4-2.4c-2.8,0-5.1,2.1-5.3,4.8c0,0.1,0,0.2,0,0.3v4.1c0,0.2,0,0.4,0.1,0.5c0.5,2.5,2.7,4.4,5.3,4.4
			c1.9,0,3.7-1,4.6-2.7C76.7,28.9,76.4,27.9,75.7,27.5z"/>
		<path class="st3" d="M129.7,27.4c-0.8-0.4-1.7-0.2-2.2,0.6c-0.4,0.7-1.1,1.1-1.9,1.1c-1.2,0-2.2-1-2.2-2.2v-3.4c0,0,0,0,0,0
			c0-1.2,1-2.2,2.2-2.2c0.7,0,1.4,0.4,1.8,1c0.3,0.5,0.8,0.7,1.3,0.7c0.3,0,0.6-0.1,0.9-0.3c0.7-0.5,0.9-1.5,0.4-2.2
			c-1-1.5-2.7-2.4-4.4-2.4c-2.8,0-5.1,2.1-5.3,4.8c0,0.1,0,0.2,0,0.3v4.1c0,0.2,0,0.4,0.1,0.5c0.5,2.5,2.7,4.4,5.3,4.4
			c1.9,0,3.7-1,4.6-2.7C130.7,28.8,130.4,27.8,129.7,27.4z"/>
		<path class="st3" d="M143,23.1C143,23.1,143,23.1,143,23.1c0-0.1,0-0.1,0-0.2c-0.1-0.9-0.4-1.7-0.9-2.4c-1-1.5-2.7-2.4-4.4-2.4
			c-2.8,0-5.1,2.1-5.3,4.9c0,0.1,0,0.2,0,0.3v4.1c0,0.2,0,0.4,0.1,0.5c0.5,2.5,2.7,4.4,5.3,4.4c0.1,0,0.1,0,0.2,0
			c1.7-0.1,3.3-0.9,4.3-2.4c0.4-0.6,0.7-1.3,0.8-2c0.1-0.2,0.1-0.4,0.1-0.6v-4.1C143,23.2,143,23.1,143,23.1z M137.6,29
			C137.6,29,137.6,29.1,137.6,29c-1.2,0-2.2-1-2.2-2.2v-3.4c0-1.2,1-2.2,2.2-2.2c0.7,0,1.4,0.4,1.8,1c0.2,0.4,0.4,0.8,0.4,1.2v3.4
			c0,0.4-0.1,0.9-0.4,1.2C139,28.7,138.4,29,137.6,29z"/>
		<path class="st3" d="M109,20.5c-1-1.5-2.7-2.4-4.4-2.4c-2.8,0-5.2,2.2-5.3,5c0,0.1,0,0.1,0,0.2v4.1c0,0.2,0.1,0.4,0.1,0.6
			c0.5,2.4,2.7,4.2,5.2,4.2c0,0,0,0,0,0c1.9,0,3.7-1,4.6-2.7c0.4-0.8,0.2-1.7-0.6-2.2c-0.8-0.4-1.7-0.2-2.2,0.6
			c-0.4,0.7-1.1,1.1-1.9,1.1c0,0,0,0,0,0c-1.2,0-2.2-1-2.2-2.2v-0.6h6c0.9,0,1.6-0.7,1.6-1.6v-1.8c0-0.2-0.1-0.5-0.1-0.7
			C109.7,21.6,109.4,21,109,20.5z M106.8,23.1h-4.3c0.2-1,1.1-1.8,2.2-1.8c0.7,0,1.4,0.4,1.8,1C106.6,22.5,106.7,22.8,106.8,23.1z"
			/>
	</g>
	<g>
	</g>
	<g>
	</g>
	<g>
	</g>
	<g>
	</g>
	<g>
	</g>
	<g>
	</g>
	<g>
	</g>
	<g>
	</g>
	<g>
	</g>
	<g>
	</g>
	<g>
	</g>
	<g>
	</g>
	<g>
	</g>
	<g>
	</g>
	<g>
	</g>
</g>
</svg>
