<?xml version="1.0" encoding="utf-8"?>
<!-- Generator: Adobe Illustrator 23.0.1, SVG Export Plug-In . SVG Version: 6.00 Build 0)  -->
<svg version="1.1" xmlns="http://www.w3.org/2000/svg" xmlns:xlink="http://www.w3.org/1999/xlink" x="0px" y="0px"
	 viewBox="0 0 1000 180" style="enable-background:new 0 0 1000 180;" xml:space="preserve">
<style type="text/css">
	.st0{display:none;}
	.st1{display:inline;}
	.st2{stroke:#FFFFFF;stroke-miterlimit:10;}
	.st3{fill:#1E2225;}
	.st4{fill:none;}
	.st5{display:none;enable-background:new    ;}
	.st6{display:inline;fill:#FFFFFF;}
	.st7{display:none;fill:none;}
	.st8{display:inline;fill:#1E2225;}
	.st9{fill:#FFFFFF;}
	.st10{enable-background:new    ;}
	.st11{fill:#151515;}
	.st12{fill:#F8F9FA;}
	.st13{fill:#1A1A1A;}
	.st14{fill:#A19975;}
</style>
<g id="Capa_2">
</g>
<g id="Capa_1">
	<g class="st0">
		<g class="st1">
			<rect x="-50" y="-45" class="st2" width="1085" height="271"/>
		</g>
		<g class="st1">
			<g id="Capa_3">
				<rect class="st3" width="1000" height="180"/>
			</g>
			<g>
				<rect x="209.2" y="51.4" class="st4" width="56.4" height="78.5"/>
				<g class="st5">
					<path class="st6" d="M105.9,128.8V51.4h20.2c2.9,0,5.5,0.1,7.7,0.4s4.5,0.9,6.7,1.8c2.2,0.9,4.1,2,5.5,3.5
						c1.4,1.4,2.6,3.4,3.5,5.9c0.8,2.3,1.2,5,1.2,8c0,0.2,0,0.4,0,0.7c-0.1,9-3.9,14.2-11.3,15.5c4.4,0.6,7.8,2.5,10.2,5.6
						s3.5,7.5,3.6,13c0,0.2,0,0.4,0,0.5c0,7.6-2,13.2-5.9,16.8c-4,3.7-9.9,5.6-17.5,5.6h-23.9V128.8z M123,82.3h3.3
						c3.7,0,6.2-0.8,7.5-2.5c1.3-1.6,2-4.3,2-7.8c0-6.1-3.3-9.1-10-9.1H123V82.3z M123,116.8h3.6c3.7,0,6.3-0.9,7.8-2.7
						s2.2-4.7,2.2-8.5c0-4.4-0.8-7.4-2.3-9.2s-4.2-2.7-8-2.7H123V116.8z"/>
				</g>
				<rect x="240.2" y="51.4" class="st7" width="705.8" height="78.5"/>
				<g class="st5">
					<path class="st8" d="M253.1,128.8V64h-11.9V51.4H282V64h-11.8v64.7h-17.1V128.8z"/>
					<path class="st8" d="M287.8,128.8V51.4h15.6v27.1c3.9-3.9,8.4-5.9,13.5-5.9c3.3,0,5.8,1.2,7.5,3.6s2.6,5.5,2.6,9.2v43.4h-15.6
						v-41c0-1.4-0.2-2.4-0.7-3.1c-0.4-0.7-1.2-1-2.4-1c-1.4,0-3,0.7-4.9,2v43.1L287.8,128.8L287.8,128.8z"/>
					<path class="st8" d="M354.5,129.8c-6.1,0-10.8-1.6-14.1-4.9c-3.3-3.3-5-7.9-5-13.8V91.2c0-5.9,1.7-10.5,5-13.8
						s8.1-4.9,14.1-4.9c6.1,0,10.7,1.6,13.8,4.7c3.1,3.2,4.6,7.8,4.6,13.9V102h-22.1v9.7c0,2.2,0.3,3.9,0.8,5.1
						c0.6,1.1,1.5,1.7,2.8,1.7c2.6,0,3.9-1.8,3.9-5.4v-3.7h14.5v3.2c0,5.5-1.6,9.7-4.8,12.6C364.8,128.3,360.3,129.8,354.5,129.8z
						 M350.8,94.8h7.6v-5.5c0-2.1-0.3-3.5-1-4.4s-1.7-1.3-2.9-1.3c-1.2,0-2.1,0.5-2.7,1.5s-0.9,2.7-0.9,5.1v4.6
						C350.9,94.8,350.8,94.8,350.8,94.8z"/>
					<path class="st8" d="M381.3,128.8V73.5h15.3V78c3.7-3.7,8.1-5.5,13.2-5.5c2.2,0,4.1,0.6,5.7,1.7s2.9,2.7,3.7,4.9
						c3.9-4.4,8.6-6.5,14.1-6.5c3.2,0,5.8,1.2,7.7,3.5c1.9,2.4,2.9,5.6,2.9,9.8v42.9h-15.3V87.4c0-1.5-0.3-2.6-0.8-3.3
						c-0.5-0.7-1.4-1-2.5-0.9c-1.7,0.1-3.4,0.7-5.1,2v0.7v42.9H405V87.4c0-1.5-0.3-2.6-0.8-3.3c-0.5-0.7-1.4-1-2.5-1
						c-1.6,0.1-3.3,0.8-5.2,2.1v43.5h-15.2V128.8z"/>
					<path class="st8" d="M471.3,129.8c-6.1,0-10.8-1.6-14.1-4.9c-3.3-3.3-5-7.9-5-13.8V91.2c0-5.9,1.7-10.5,5-13.8
						s8.1-4.9,14.1-4.9c6.1,0,10.7,1.6,13.8,4.7c3.1,3.2,4.6,7.8,4.6,13.9V102h-22.1v9.7c0,2.2,0.3,3.9,0.8,5.1
						c0.6,1.1,1.5,1.7,2.8,1.7c2.6,0,3.9-1.8,3.9-5.4v-3.7h14.5v3.2c0,5.5-1.6,9.7-4.8,12.6C481.7,128.3,477.1,129.8,471.3,129.8z
						 M467.6,94.8h7.6v-5.5c0-2.1-0.3-3.5-1-4.4s-1.7-1.3-2.9-1.3c-1.2,0-2.1,0.5-2.7,1.5s-0.9,2.7-0.9,5.1v4.6
						C467.7,94.8,467.6,94.8,467.6,94.8z"/>
					<path class="st8" d="M514.4,129.8c-4.7,0-8.6-1.1-11.7-3.3s-5.6-5.7-7.5-10.6l10.8-4.7c1.1,2.6,2.3,4.6,3.7,6.1
						c1.3,1.3,2.6,2,4,2c0.2,0,0.3,0,0.5,0c1-0.1,1.8-0.4,2.4-1.1c0.7-0.7,1-1.6,0.9-2.6c0-0.5-0.2-1.1-0.6-1.7
						c-0.4-0.6-1-1.4-2-2.3s-1.7-1.6-2.1-1.9c-0.4-0.3-1.3-1.1-2.7-2.3l-4.3-3.7c-6.3-5.3-9.4-10.5-9.4-15.5c0-3,0.8-5.7,2.4-8.1
						s3.6-4.2,6.2-5.4s5.4-1.9,8.4-1.9c4.5,0,8.3,1.2,11.3,3.7s5.2,6,6.4,10.5L521,91.7c-0.6-2.1-1.5-3.9-2.7-5.5s-2.5-2.4-4-2.5
						c-0.1,0-0.1,0-0.1,0c-1.1,0-2,0.3-2.6,0.9c-0.7,0.6-1,1.4-1.1,2.3c-0.1,1.5,2.1,4.1,6.6,7.9c0.4,0.3,0.7,0.6,0.8,0.7l4.2,3.7
						c1.6,1.4,2.8,2.5,3.6,3.3s1.8,1.9,2.9,3.3c1.2,1.4,2,2.8,2.5,4.3s0.8,3,0.8,4.7c0,3.1-0.8,5.9-2.5,8.2
						c-1.7,2.3-3.8,4.1-6.5,5.2C520.4,129.2,517.5,129.8,514.4,129.8z"/>
					<path class="st8" d="M563.9,128.8V51.4h20.2c2.9,0,5.5,0.1,7.7,0.4s4.5,0.9,6.7,1.8s4.1,2,5.5,3.5c1.4,1.4,2.6,3.4,3.5,5.9
						c0.8,2.3,1.2,5,1.2,8c0,0.2,0,0.4,0,0.7c-0.1,9-3.9,14.2-11.3,15.5c4.4,0.6,7.8,2.5,10.2,5.6s3.5,7.5,3.6,13c0,0.2,0,0.4,0,0.5
						c0,7.6-2,13.2-5.9,16.8c-4,3.7-9.9,5.6-17.5,5.6h-23.9V128.8z M581,82.3h3.3c3.7,0,6.2-0.8,7.5-2.5c1.3-1.6,2-4.3,2-7.8
						c0-6.1-3.3-9.1-10-9.1H581V82.3z M581,116.8h3.6c3.7,0,6.3-0.9,7.8-2.7s2.2-4.7,2.2-8.5c0-4.4-0.8-7.4-2.3-9.2s-4.2-2.7-8-2.7
						H581V116.8z"/>
					<path class="st8" d="M651.6,125.1c-3.4,3.1-8.2,4.7-14.2,4.7s-10.8-1.6-14.1-4.7s-5.1-7.6-5.1-13.5V90.7
						c0-5.9,1.7-10.4,5.1-13.5s8.1-4.6,14.1-4.6s10.8,1.6,14.2,4.7s5.2,7.6,5.2,13.5v20.9C656.8,117.5,655.1,122,651.6,125.1z
						 M637.4,119.3c1.5,0,2.5-0.6,3.1-1.7s0.9-2.8,0.9-5v-23c0-2.2-0.3-3.9-0.9-5c-0.6-1.1-1.6-1.7-3.1-1.7c-1.4,0-2.4,0.6-3,1.7
						s-0.9,2.8-0.9,5v23c0,2.1,0.3,3.8,0.9,4.9C635,118.7,636,119.3,637.4,119.3z"/>
					<path class="st8" d="M697.8,125.1c-3.4,3.1-8.2,4.7-14.2,4.7s-10.8-1.6-14.1-4.7c-3.4-3.1-5.1-7.6-5.1-13.5V90.7
						c0-5.9,1.7-10.4,5.1-13.5c3.4-3.1,8.1-4.6,14.1-4.6s10.8,1.6,14.2,4.7s5.2,7.6,5.2,13.5v20.9C703,117.5,701.2,122,697.8,125.1z
						 M683.6,119.3c1.5,0,2.5-0.6,3.1-1.7s0.9-2.8,0.9-5v-23c0-2.2-0.3-3.9-0.9-5c-0.6-1.1-1.6-1.7-3.1-1.7c-1.4,0-2.4,0.6-3,1.7
						s-0.9,2.8-0.9,5v23c0,2.1,0.3,3.8,0.9,4.9C681.1,118.7,682.2,119.3,683.6,119.3z"/>
					<path class="st8" d="M727.3,129.4c-1.7-0.1-3.3-0.3-4.6-0.7c-1.4-0.4-2.6-1-3.5-1.6c-1-0.7-1.8-1.5-2.5-2.5s-1.3-2-1.7-3.1
						s-0.8-2.3-1-3.7s-0.4-2.7-0.5-4s-0.1-2.7-0.1-4.4V83.7h-5.3V73.5h5.3V56.8h15.7v16.8h7.9v10.2h-7.9v28.6c0,2.9,1.7,4.4,5,4.5
						c0.4,0,0.9,0,1.4,0s0.9-0.1,1.3-0.1c0.3,0,0.7-0.1,1-0.2s0.5-0.1,0.5-0.1v12.3c-3.3,0.6-6.4,0.8-9.2,0.8
						C728.3,129.5,727.8,129.5,727.3,129.4z"/>
					<path class="st8" d="M761.6,129.8c-4.7,0-8.6-1.1-11.7-3.3s-5.6-5.7-7.5-10.6l10.8-4.7c1.1,2.6,2.3,4.6,3.7,6.1
						c1.3,1.3,2.6,2,4,2c0.2,0,0.3,0,0.5,0c1-0.1,1.8-0.4,2.4-1.1s1-1.6,0.9-2.6c0-0.5-0.2-1.1-0.6-1.7c-0.4-0.6-1-1.4-2-2.3
						s-1.7-1.6-2.1-1.9c-0.4-0.3-1.3-1.1-2.7-2.3l-4.3-3.7c-6.3-5.3-9.4-10.5-9.4-15.5c0-3,0.8-5.7,2.4-8.1c1.6-2.4,3.6-4.2,6.2-5.4
						s5.4-1.9,8.4-1.9c4.5,0,8.3,1.2,11.3,3.7s5.2,6,6.4,10.5l-10.1,4.7c-0.6-2.1-1.5-3.9-2.7-5.5s-2.5-2.4-4-2.5
						c-0.1,0-0.1,0-0.1,0c-1.1,0-2,0.3-2.6,0.9c-0.7,0.6-1,1.4-1.1,2.3c-0.1,1.5,2.1,4.1,6.6,7.9c0.4,0.3,0.7,0.6,0.8,0.7l4.2,3.7
						c1.6,1.4,2.8,2.5,3.6,3.3s1.8,1.9,2.9,3.3c1.2,1.4,2,2.8,2.5,4.3s0.8,3,0.8,4.7c0,3.1-0.8,5.9-2.5,8.2
						c-1.7,2.3-3.8,4.1-6.5,5.2C767.6,129.2,764.7,129.8,761.6,129.8z"/>
					<path class="st8" d="M801.4,129.4c-1.7-0.1-3.3-0.3-4.6-0.7c-1.4-0.4-2.6-1-3.5-1.6c-1-0.7-1.8-1.5-2.5-2.5s-1.3-2-1.7-3.1
						s-0.8-2.3-1-3.7s-0.4-2.7-0.5-4s-0.1-2.7-0.1-4.4V83.7h-5.3V73.5h5.3V56.8h15.7v16.8h7.9v10.2h-7.9v28.6c0,2.9,1.7,4.4,5,4.5
						c0.4,0,0.9,0,1.4,0s0.9-0.1,1.3-0.1c0.3,0,0.7-0.1,1-0.2s0.5-0.1,0.5-0.1v12.3c-3.3,0.6-6.4,0.8-9.2,0.8
						C802.5,129.5,802,129.5,801.4,129.4z"/>
					<path class="st8" d="M819.7,128.8V73.5h15.6v9.2c3.4-6.6,7.1-9.9,11.1-9.9c0.6,0,1.3,0.1,2.2,0.4V87c-0.9-0.2-1.7-0.3-2.6-0.3
						c-4.3,0.2-7.8,2.4-10.7,6.7v35.4L819.7,128.8L819.7,128.8z"/>
					<path class="st8" d="M866.1,129.8c-3.9-0.1-7-1.5-9.4-4.2c-2.3-2.7-3.5-5.8-3.5-9.3c0-1.8,0.2-3.5,0.7-5.1s1-2.9,1.6-4.1
						s1.5-2.3,2.7-3.4s2.2-2,3.1-2.6c0.9-0.7,2.2-1.4,3.7-2.1c1.5-0.8,2.8-1.3,3.7-1.7c0.9-0.4,2.2-0.9,3.8-1.5s2.7-1,3.4-1.3V89
						c0-1.6-0.2-2.8-0.7-3.6s-1.3-1.3-2.6-1.3c-2.1,0-3.2,1.5-3.4,4.4l-0.4,4.1L854.4,92c0-0.1,0-0.4,0-0.9s0-0.8,0-0.9
						c0.5-6,2.3-10.5,5.6-13.3c3.3-2.9,8-4.3,14.1-4.3c5.4,0,9.6,1.5,12.4,4.5c2.8,3,4.3,7,4.3,12.1v25.7c0,3.5,0.3,8.2,1,13.9H878
						c-0.8-4.5-1.2-7.1-1.3-7.8c-0.7,2.5-2,4.6-3.8,6.3C871.1,128.9,868.8,129.8,866.1,129.8z M871.7,119c0.7,0,1.5-0.3,2.3-0.8
						s1.4-1.1,1.9-1.8v-15.1c-2.5,1.2-4.5,3-6.1,5.3s-2.4,4.5-2.4,6.6c0,1.8,0.4,3.2,1.2,4.3C869.4,118.5,870.5,119,871.7,119z"/>
					<path class="st8" d="M900.2,147V73.5h15.6v4.1c3.8-3.3,7.6-5,11.5-5c0.2,0,0.4,0,0.5,0c4,0.1,6.9,1.7,8.9,4.8
						c1.9,3,2.9,6.9,2.9,11.6v23.6c0,5.3-1,9.5-3.2,12.6c-2.1,3.1-5.1,4.7-9,4.7s-7.7-1.7-11.7-5.1V147H900.2z M920,119.6
						C920,119.6,920.1,119.6,920,119.6c1.4,0,2.4-0.6,3-1.7c0.6-1.2,0.9-2.7,1-4.5V87.7c0-1.7-0.3-3.1-1-4.2c-0.6-1-1.5-1.5-2.7-1.5
						c-0.1,0-0.3,0-0.4,0c-1.2,0.1-2.5,0.7-4.1,1.8v34.3C917.3,119.1,918.7,119.6,920,119.6z"/>
				</g>
			</g>
			<g>
				<g>
					<circle class="st9" cx="128.5" cy="90" r="77.5"/>
				</g>
				<rect x="101.2" y="50.9" class="st4" width="56.4" height="78.5"/>
				<g class="st10">
					<path class="st11" d="M106.9,128.3V50.9h20.2c2.9,0,5.5,0.1,7.7,0.4s4.5,0.9,6.7,1.8c2.2,0.9,4.1,2,5.5,3.5
						c1.4,1.4,2.6,3.4,3.5,5.9c0.8,2.3,1.2,5,1.2,8c0,0.2,0,0.4,0,0.7c-0.1,9-3.9,14.2-11.3,15.5c4.4,0.6,7.8,2.5,10.2,5.6
						s3.5,7.5,3.6,13c0,0.2,0,0.4,0,0.5c0,7.6-2,13.2-5.9,16.8c-4,3.7-9.9,5.6-17.5,5.6h-23.9V128.3z M124,81.8h3.3
						c3.7,0,6.2-0.8,7.5-2.5c1.3-1.6,2-4.3,2-7.8c0-6.1-3.3-9.1-10-9.1H124V81.8z M124,116.3h3.6c3.7,0,6.3-0.9,7.8-2.7
						s2.2-4.7,2.2-8.5c0-4.4-0.8-7.4-2.3-9.2s-4.2-2.7-8-2.7H124V116.3z"/>
				</g>
				<rect x="241.2" y="50.9" class="st4" width="705.8" height="78.5"/>
				<g class="st10">
					<path class="st9" d="M254.1,128.3V63.5h-11.9V50.9H283v12.6h-11.8v64.7h-17.1V128.3z"/>
					<path class="st9" d="M288.8,128.3V50.9h15.6V78c3.9-3.9,8.4-5.9,13.5-5.9c3.3,0,5.8,1.2,7.5,3.6s2.6,5.5,2.6,9.2v43.4h-15.6
						v-41c0-1.4-0.2-2.4-0.7-3.1c-0.4-0.7-1.2-1-2.4-1c-1.4,0-3,0.7-4.9,2v43.1L288.8,128.3L288.8,128.3z"/>
					<path class="st9" d="M355.5,129.3c-6.1,0-10.8-1.6-14.1-4.9c-3.3-3.3-5-7.9-5-13.8V90.7c0-5.9,1.7-10.5,5-13.8
						s8.1-4.9,14.1-4.9c6.1,0,10.7,1.6,13.8,4.7c3.1,3.2,4.6,7.8,4.6,13.9v10.9h-22.1v9.7c0,2.2,0.3,3.9,0.8,5.1
						c0.6,1.1,1.5,1.7,2.8,1.7c2.6,0,3.9-1.8,3.9-5.4V109h14.5v3.2c0,5.5-1.6,9.7-4.8,12.6C365.8,127.8,361.3,129.3,355.5,129.3z
						 M351.8,94.3h7.6v-5.5c0-2.1-0.3-3.5-1-4.4s-1.7-1.3-2.9-1.3c-1.2,0-2.1,0.5-2.7,1.5s-0.9,2.7-0.9,5.1v4.6
						C351.9,94.3,351.8,94.3,351.8,94.3z"/>
					<path class="st9" d="M382.3,128.3V73h15.3v4.5c3.7-3.7,8.1-5.5,13.2-5.5c2.2,0,4.1,0.6,5.7,1.7s2.9,2.7,3.7,4.9
						c3.9-4.4,8.6-6.5,14.1-6.5c3.2,0,5.8,1.2,7.7,3.5c1.9,2.4,2.9,5.6,2.9,9.8v42.9h-15.3V86.9c0-1.5-0.3-2.6-0.8-3.3
						c-0.5-0.7-1.4-1-2.5-0.9c-1.7,0.1-3.4,0.7-5.1,2v0.7v42.9H406V86.9c0-1.5-0.3-2.6-0.8-3.3c-0.5-0.7-1.4-1-2.5-1
						c-1.6,0.1-3.3,0.8-5.2,2.1v43.5h-15.2V128.3z"/>
					<path class="st9" d="M472.3,129.3c-6.1,0-10.8-1.6-14.1-4.9c-3.3-3.3-5-7.9-5-13.8V90.7c0-5.9,1.7-10.5,5-13.8
						s8.1-4.9,14.1-4.9c6.1,0,10.7,1.6,13.8,4.7c3.1,3.2,4.6,7.8,4.6,13.9v10.9h-22.1v9.7c0,2.2,0.3,3.9,0.8,5.1
						c0.6,1.1,1.5,1.7,2.8,1.7c2.6,0,3.9-1.8,3.9-5.4V109h14.5v3.2c0,5.5-1.6,9.7-4.8,12.6C482.7,127.8,478.1,129.3,472.3,129.3z
						 M468.6,94.3h7.6v-5.5c0-2.1-0.3-3.5-1-4.4s-1.7-1.3-2.9-1.3c-1.2,0-2.1,0.5-2.7,1.5s-0.9,2.7-0.9,5.1v4.6
						C468.7,94.3,468.6,94.3,468.6,94.3z"/>
					<path class="st9" d="M515.4,129.3c-4.7,0-8.6-1.1-11.7-3.3s-5.6-5.7-7.5-10.6l10.8-4.7c1.1,2.6,2.3,4.6,3.7,6.1
						c1.3,1.3,2.6,2,4,2c0.2,0,0.3,0,0.5,0c1-0.1,1.8-0.4,2.4-1.1c0.7-0.7,1-1.6,0.9-2.6c0-0.5-0.2-1.1-0.6-1.7
						c-0.4-0.6-1-1.4-2-2.3s-1.7-1.6-2.1-1.9c-0.4-0.3-1.3-1.1-2.7-2.3l-4.3-3.7c-6.3-5.3-9.4-10.5-9.4-15.5c0-3,0.8-5.7,2.4-8.1
						s3.6-4.2,6.2-5.4s5.4-1.9,8.4-1.9c4.5,0,8.3,1.2,11.3,3.7s5.2,6,6.4,10.5l-10,4.5c-0.6-2.1-1.5-3.9-2.7-5.5s-2.5-2.4-4-2.5
						c-0.1,0-0.1,0-0.1,0c-1.1,0-2,0.3-2.6,0.9c-0.7,0.6-1,1.4-1.1,2.3c-0.1,1.5,2.1,4.1,6.6,7.9c0.4,0.3,0.7,0.6,0.8,0.7l4.2,3.7
						c1.6,1.4,2.8,2.5,3.6,3.3s1.8,1.9,2.9,3.3c1.2,1.4,2,2.8,2.5,4.3s0.8,3,0.8,4.7c0,3.1-0.8,5.9-2.5,8.2
						c-1.7,2.3-3.8,4.1-6.5,5.2C521.4,128.7,518.5,129.3,515.4,129.3z"/>
					<path class="st9" d="M564.9,128.3V50.9h20.2c2.9,0,5.5,0.1,7.7,0.4s4.5,0.9,6.7,1.8s4.1,2,5.5,3.5c1.4,1.4,2.6,3.4,3.5,5.9
						c0.8,2.3,1.2,5,1.2,8c0,0.2,0,0.4,0,0.7c-0.1,9-3.9,14.2-11.3,15.5c4.4,0.6,7.8,2.5,10.2,5.6s3.5,7.5,3.6,13c0,0.2,0,0.4,0,0.5
						c0,7.6-2,13.2-5.9,16.8c-4,3.7-9.9,5.6-17.5,5.6h-23.9V128.3z M582,81.8h3.3c3.7,0,6.2-0.8,7.5-2.5c1.3-1.6,2-4.3,2-7.8
						c0-6.1-3.3-9.1-10-9.1H582V81.8z M582,116.3h3.6c3.7,0,6.3-0.9,7.8-2.7s2.2-4.7,2.2-8.5c0-4.4-0.8-7.4-2.3-9.2s-4.2-2.7-8-2.7
						H582V116.3z"/>
					<path class="st9" d="M652.6,124.6c-3.4,3.1-8.2,4.7-14.2,4.7s-10.8-1.6-14.1-4.7s-5.1-7.6-5.1-13.5V90.2
						c0-5.9,1.7-10.4,5.1-13.5s8.1-4.6,14.1-4.6s10.8,1.6,14.2,4.7s5.2,7.6,5.2,13.5v20.9C657.8,117,656.1,121.5,652.6,124.6z
						 M638.4,118.8c1.5,0,2.5-0.6,3.1-1.7s0.9-2.8,0.9-5v-23c0-2.2-0.3-3.9-0.9-5c-0.6-1.1-1.6-1.7-3.1-1.7c-1.4,0-2.4,0.6-3,1.7
						s-0.9,2.8-0.9,5v23c0,2.1,0.3,3.8,0.9,4.9C636,118.2,637,118.8,638.4,118.8z"/>
					<path class="st9" d="M698.8,124.6c-3.4,3.1-8.2,4.7-14.2,4.7s-10.8-1.6-14.1-4.7c-3.4-3.1-5.1-7.6-5.1-13.5V90.2
						c0-5.9,1.7-10.4,5.1-13.5c3.4-3.1,8.1-4.6,14.1-4.6s10.8,1.6,14.2,4.7s5.2,7.6,5.2,13.5v20.9C704,117,702.2,121.5,698.8,124.6z
						 M684.6,118.8c1.5,0,2.5-0.6,3.1-1.7s0.9-2.8,0.9-5v-23c0-2.2-0.3-3.9-0.9-5c-0.6-1.1-1.6-1.7-3.1-1.7c-1.4,0-2.4,0.6-3,1.7
						s-0.9,2.8-0.9,5v23c0,2.1,0.3,3.8,0.9,4.9C682.1,118.2,683.2,118.8,684.6,118.8z"/>
					<path class="st9" d="M728.3,128.9c-1.7-0.1-3.3-0.3-4.6-0.7c-1.4-0.4-2.6-1-3.5-1.6c-1-0.7-1.8-1.5-2.5-2.5s-1.3-2-1.7-3.1
						s-0.8-2.3-1-3.7s-0.4-2.7-0.5-4s-0.1-2.7-0.1-4.4V83.2h-5.3V73h5.3V56.3h15.7V73h7.9v10.2h-7.9v28.6c0,2.9,1.7,4.4,5,4.5
						c0.4,0,0.9,0,1.4,0s0.9-0.1,1.3-0.1c0.3,0,0.7-0.1,1-0.2s0.5-0.1,0.5-0.1v12.3c-3.3,0.6-6.4,0.8-9.2,0.8
						C729.3,129,728.8,129,728.3,128.9z"/>
					<path class="st9" d="M762.6,129.3c-4.7,0-8.6-1.1-11.7-3.3s-5.6-5.7-7.5-10.6l10.8-4.7c1.1,2.6,2.3,4.6,3.7,6.1
						c1.3,1.3,2.6,2,4,2c0.2,0,0.3,0,0.5,0c1-0.1,1.8-0.4,2.4-1.1s1-1.6,0.9-2.6c0-0.5-0.2-1.1-0.6-1.7c-0.4-0.6-1-1.4-2-2.3
						s-1.7-1.6-2.1-1.9c-0.4-0.3-1.3-1.1-2.7-2.3L754,103c-6.3-5.3-9.4-10.5-9.4-15.5c0-3,0.8-5.7,2.4-8.1c1.6-2.4,3.6-4.2,6.2-5.4
						s5.4-1.9,8.4-1.9c4.5,0,8.3,1.2,11.3,3.7s5.2,6,6.4,10.5l-10,4.7c-0.6-2.1-1.5-3.9-2.7-5.5s-2.5-2.4-4-2.5c-0.1,0-0.1,0-0.1,0
						c-1.1,0-2,0.3-2.6,0.9c-0.7,0.6-1,1.4-1.1,2.3c-0.1,1.5,2.1,4.1,6.6,7.9c0.4,0.3,0.7,0.6,0.8,0.7l4.2,3.7
						c1.6,1.4,2.8,2.5,3.6,3.3s1.8,1.9,2.9,3.3c1.2,1.4,2,2.8,2.5,4.3s0.8,3,0.8,4.7c0,3.1-0.8,5.9-2.5,8.2
						c-1.7,2.3-3.8,4.1-6.5,5.2C768.6,128.7,765.7,129.3,762.6,129.3z"/>
					<path class="st9" d="M802.4,128.9c-1.7-0.1-3.3-0.3-4.6-0.7c-1.4-0.4-2.6-1-3.5-1.6c-1-0.7-1.8-1.5-2.5-2.5s-1.3-2-1.7-3.1
						s-0.8-2.3-1-3.7s-0.4-2.7-0.5-4s-0.1-2.7-0.1-4.4V83.2h-5.3V73h5.3V56.3h15.7V73h7.9v10.2h-7.9v28.6c0,2.9,1.7,4.4,5,4.5
						c0.4,0,0.9,0,1.4,0s0.9-0.1,1.3-0.1c0.3,0,0.7-0.1,1-0.2s0.5-0.1,0.5-0.1v12.3c-3.3,0.6-6.4,0.8-9.2,0.8
						C803.5,129,803,129,802.4,128.9z"/>
					<path class="st9" d="M820.7,128.3V73h15.6v9.2c3.4-6.6,7.1-9.9,11.1-9.9c0.6,0,1.3,0.1,2.2,0.4v13.8c-0.9-0.2-1.7-0.3-2.6-0.3
						c-4.3,0.2-7.8,2.4-10.7,6.7v35.4L820.7,128.3L820.7,128.3z"/>
					<path class="st9" d="M867.1,129.3c-3.9-0.1-7-1.5-9.4-4.2c-2.3-2.7-3.5-5.8-3.5-9.3c0-1.8,0.2-3.5,0.7-5.1s1-2.9,1.6-4.1
						s1.5-2.3,2.7-3.4s2.2-2,3.1-2.6c0.9-0.7,2.2-1.4,3.7-2.1c1.5-0.8,2.8-1.3,3.7-1.7c0.9-0.4,2.2-0.9,3.8-1.5s2.7-1,3.4-1.3v-5.5
						c0-1.6-0.2-2.8-0.7-3.6s-1.3-1.3-2.6-1.3c-2.1,0-3.2,1.5-3.4,4.4l-0.4,4.1l-14.6-0.6c0-0.1,0-0.4,0-0.9s0-0.8,0-0.9
						c0.5-6,2.3-10.5,5.6-13.3c3.3-2.9,8-4.3,14.1-4.3c5.4,0,9.6,1.5,12.4,4.5c2.8,3,4.3,7,4.3,12.1v25.7c0,3.5,0.3,8.2,1,13.9H879
						c-0.8-4.5-1.2-7.1-1.3-7.8c-0.7,2.5-2,4.6-3.8,6.3C872.1,128.4,869.8,129.3,867.1,129.3z M872.7,118.5c0.7,0,1.5-0.3,2.3-0.8
						s1.4-1.1,1.9-1.8v-15.1c-2.5,1.2-4.5,3-6.1,5.3s-2.4,4.5-2.4,6.6c0,1.8,0.4,3.2,1.2,4.3C870.4,118,871.5,118.5,872.7,118.5z"/>
					<path class="st9" d="M901.2,146.5V73h15.6v4.1c3.8-3.3,7.6-5,11.5-5c0.2,0,0.4,0,0.5,0c4,0.1,6.9,1.7,8.9,4.8
						c1.9,3,2.9,6.9,2.9,11.6V112c0,5.3-1,9.5-3.2,12.6c-2.1,3.1-5.1,4.7-9,4.7s-7.7-1.7-11.7-5.1v22.4h-15.5V146.5z M921,119.1
						C921,119.1,921.1,119.1,921,119.1c1.4,0,2.4-0.6,3-1.7c0.6-1.2,0.9-2.7,1-4.5V87.2c0-1.7-0.3-3.1-1-4.2c-0.6-1-1.5-1.5-2.7-1.5
						c-0.1,0-0.3,0-0.4,0c-1.2,0.1-2.5,0.7-4.1,1.8v34.3C918.3,118.6,919.7,119.1,921,119.1z"/>
				</g>
			</g>
		</g>
		<g id="Capa_3_1_" class="st1">
			<g>
				<rect x="356" y="56" class="st4" width="626" height="108"/>
				<path class="st12" d="M363.4,126V58h23.5l12,49.6l12-49.6h23.5v68h-13.8V73.4h-1.5L405.8,123H392l-13.3-49.6h-1.5V126H363.4z"/>
				<path class="st12" d="M450.1,81.6c3.5-4.6,9.4-6.9,17.7-6.9c8.3,0,14.2,2.3,17.7,6.9s5.3,11,5.3,19.2c0,17.5-7.7,26.3-23,26.3
					s-23-8.8-23-26.3C444.8,92.6,446.6,86.2,450.1,81.6z M460.4,112.2c1.4,2.4,3.8,3.6,7.4,3.6c3.5,0,6-1.2,7.4-3.6s2-6.2,2-11.3
					c0-5.1-0.7-8.9-2-11.2c-1.4-2.3-3.8-3.5-7.4-3.5c-3.5,0-6,1.2-7.4,3.5s-2,6.1-2,11.2C458.4,106,459.1,109.8,460.4,112.2z"/>
				<path class="st12" d="M524.8,74.8c7,0,12.1,1.9,15.3,5.8c3.2,3.8,4.9,10.7,4.9,20.6s-1.9,16.7-5.6,20.4
					c-3.7,3.8-10.2,5.7-19.3,5.7c-2.9,0-8.1-0.3-15.7-1l-3.8-0.4V56H514v21.5C518.3,75.7,521.9,74.8,524.8,74.8z M520.1,115.2
					c4.5,0,7.5-1.1,9-3.2c1.5-2.2,2.3-6,2.3-11.7c0-9-2.8-13.5-8.4-13.5c-2.7,0-5.2,0.3-7.6,1l-1.4,0.3v26.7
					C517.1,115.1,519.1,115.2,520.1,115.2z"/>
				<path class="st12" d="M555,69.6V56h13.4v13.6H555z M555,126V76h13.4v50H555z"/>
				<path class="st12" d="M581.4,126V56h13.4v70H581.4z"/>
				<path class="st12" d="M621.2,113.3c1.6,1.4,3.8,2,6.8,2c6.2,0,11.7-0.2,16.6-0.6l2.8-0.3l0.2,9.9c-7.7,1.9-14.6,2.8-20.8,2.8
					c-7.5,0-13-2-16.4-6s-5.1-10.5-5.1-19.5c0-17.9,7.4-26.9,22.1-26.9c14.5,0,21.8,7.5,21.8,22.6l-1,9.3h-29.4
					C618.9,109.8,619.7,112,621.2,113.3z M636,96.5c0-4-0.6-6.8-1.9-8.4c-1.3-1.6-3.5-2.4-6.7-2.4s-5.4,0.8-6.7,2.5
					c-1.3,1.6-2,4.4-2,8.3H636z"/>
				<path class="st12" d="M676.3,126l15.3-68h26.2l15.3,68h-13.8l-2.7-12.3h-23.8l-2.7,12.3H676.3z M702.3,69.4l-6.9,32.3H714
					l-6.9-32.3C707.1,69.4,702.3,69.4,702.3,69.4z"/>
				<path class="st12" d="M741,147V76h13.3v2.7c4.3-2.6,8.1-3.9,11.4-3.9c6.7,0,11.7,2,14.9,6.1c3.2,4,4.8,10.9,4.8,20.5
					c0,9.7-1.8,16.4-5.3,20.1c-3.5,3.8-9.3,5.7-17.4,5.7c-2.2,0-4.6-0.2-7.1-0.6l-1.2-0.2V147H741z M763.1,86.8
					c-2.5,0-5,0.5-7.5,1.5l-1.2,0.5V115c3,0.4,5.4,0.6,7.3,0.6c3.9,0,6.5-1.1,7.9-3.4s2.2-6.1,2.2-11.6
					C771.8,91.4,768.9,86.8,763.1,86.8z"/>
				<path class="st12" d="M795.4,147V76h13.3v2.7c4.3-2.6,8.1-3.9,11.4-3.9c6.7,0,11.7,2,14.9,6.1c3.2,4,4.8,10.9,4.8,20.5
					c0,9.7-1.8,16.4-5.3,20.1c-3.5,3.8-9.3,5.7-17.4,5.7c-2.2,0-4.6-0.2-7.1-0.6l-1.2-0.2V147H795.4z M817.5,86.8
					c-2.5,0-5,0.5-7.5,1.5l-1.2,0.5V115c3,0.4,5.4,0.6,7.3,0.6c3.9,0,6.5-1.1,7.9-3.4s2.2-6.1,2.2-11.6
					C826.2,91.4,823.3,86.8,817.5,86.8z"/>
			</g>
			<g>
				<circle class="st12" cx="236.5" cy="90.5" r="77.5"/>
			</g>
			<g>
				<rect x="193" y="55.4" class="st4" width="89.6" height="108"/>
				<path class="st13" d="M200.4,125.4v-68h23.5l12,49.6l12-49.6h23.5v68h-13.8V72.8h-1.5l-13.3,49.6H229l-13.3-49.6h-1.5v52.6
					H200.4z"/>
			</g>
		</g>
		<g id="Capa_4" class="st1">
			<g>
				<rect x="356" y="56" class="st4" width="626" height="108"/>
				<path class="st13" d="M363.4,126V58h23.5l12,49.6l12-49.6h23.5v68h-13.8V73.4h-1.5L405.8,123H392l-13.3-49.6h-1.5V126H363.4z"/>
				<path class="st13" d="M450.1,81.6c3.5-4.6,9.4-6.9,17.7-6.9c8.3,0,14.2,2.3,17.7,6.9s5.3,11,5.3,19.2c0,17.5-7.7,26.3-23,26.3
					s-23-8.8-23-26.3C444.8,92.6,446.6,86.2,450.1,81.6z M460.4,112.2c1.4,2.4,3.8,3.6,7.4,3.6c3.5,0,6-1.2,7.4-3.6s2-6.2,2-11.3
					c0-5.1-0.7-8.9-2-11.2c-1.4-2.3-3.8-3.5-7.4-3.5c-3.5,0-6,1.2-7.4,3.5s-2,6.1-2,11.2C458.4,106,459.1,109.8,460.4,112.2z"/>
				<path class="st13" d="M524.8,74.8c7,0,12.1,1.9,15.3,5.8c3.2,3.8,4.9,10.7,4.9,20.6s-1.9,16.7-5.6,20.4
					c-3.7,3.8-10.2,5.7-19.3,5.7c-2.9,0-8.1-0.3-15.7-1l-3.8-0.4V56H514v21.5C518.3,75.7,521.9,74.8,524.8,74.8z M520.1,115.2
					c4.5,0,7.5-1.1,9-3.2c1.5-2.2,2.3-6,2.3-11.7c0-9-2.8-13.5-8.4-13.5c-2.7,0-5.2,0.3-7.6,1l-1.4,0.3v26.7
					C517.1,115.1,519.1,115.2,520.1,115.2z"/>
				<path class="st13" d="M555,69.6V56h13.4v13.6H555z M555,126V76h13.4v50H555z"/>
				<path class="st13" d="M581.4,126V56h13.4v70H581.4z"/>
				<path class="st13" d="M621.2,113.3c1.6,1.4,3.8,2,6.8,2c6.2,0,11.7-0.2,16.6-0.6l2.8-0.3l0.2,9.9c-7.7,1.9-14.6,2.8-20.8,2.8
					c-7.5,0-13-2-16.4-6s-5.1-10.5-5.1-19.5c0-17.9,7.4-26.9,22.1-26.9c14.5,0,21.8,7.5,21.8,22.6l-1,9.3h-29.4
					C618.9,109.8,619.7,112,621.2,113.3z M636,96.5c0-4-0.6-6.8-1.9-8.4c-1.3-1.6-3.5-2.4-6.7-2.4s-5.4,0.8-6.7,2.5
					c-1.3,1.6-2,4.4-2,8.3H636z"/>
				<path class="st13" d="M676.3,126l15.3-68h26.2l15.3,68h-13.8l-2.7-12.3h-23.8l-2.7,12.3H676.3z M702.3,69.4l-6.9,32.3H714
					l-6.9-32.3C707.1,69.4,702.3,69.4,702.3,69.4z"/>
				<path class="st13" d="M741,147V76h13.3v2.7c4.3-2.6,8.1-3.9,11.4-3.9c6.7,0,11.7,2,14.9,6.1c3.2,4,4.8,10.9,4.8,20.5
					c0,9.7-1.8,16.4-5.3,20.1c-3.5,3.8-9.3,5.7-17.4,5.7c-2.2,0-4.6-0.2-7.1-0.6l-1.2-0.2V147H741z M763.1,86.8
					c-2.5,0-5,0.5-7.5,1.5l-1.2,0.5V115c3,0.4,5.4,0.6,7.3,0.6c3.9,0,6.5-1.1,7.9-3.4s2.2-6.1,2.2-11.6
					C771.8,91.4,768.9,86.8,763.1,86.8z"/>
				<path class="st13" d="M795.4,147V76h13.3v2.7c4.3-2.6,8.1-3.9,11.4-3.9c6.7,0,11.7,2,14.9,6.1c3.2,4,4.8,10.9,4.8,20.5
					c0,9.7-1.8,16.4-5.3,20.1c-3.5,3.8-9.3,5.7-17.4,5.7c-2.2,0-4.6-0.2-7.1-0.6l-1.2-0.2V147H795.4z M817.5,86.8
					c-2.5,0-5,0.5-7.5,1.5l-1.2,0.5V115c3,0.4,5.4,0.6,7.3,0.6c3.9,0,6.5-1.1,7.9-3.4s2.2-6.1,2.2-11.6
					C826.2,91.4,823.3,86.8,817.5,86.8z"/>
			</g>
			<g>
				<circle class="st13" cx="236.5" cy="90.5" r="77.5"/>
			</g>
			<g>
				<rect x="193" y="55.4" class="st4" width="89.6" height="108"/>
				<path class="st12" d="M200.4,125.4v-68h23.5l12,49.6l12-49.6h23.5v68h-13.8V72.8h-1.5l-13.3,49.6H229l-13.3-49.6h-1.5v52.6
					H200.4z"/>
			</g>
		</g>
	</g>
	<g>
		<g>
			<circle class="st14" cx="92.5" cy="89.5" r="77.5"/>
		</g>
		<g>
			<rect x="68.6" y="54.2" class="st4" width="57.8" height="98"/>
		</g>
	</g>
	<g>
		<rect x="198.6" y="49.7" class="st4" width="772.9" height="88.3"/>
		<path class="st9" d="M231.6,99.2h-14v21.3h-11.1V52h25.1c15.5,0,23.3,7.7,23.3,23c0,7.9-1.9,13.9-5.8,18
			C245.1,97.2,239.3,99.2,231.6,99.2z M217.6,89.6h13.9c8,0,12-4.9,12-14.6c0-4.7-1-8.1-2.9-10.2s-5-3.2-9.1-3.2h-13.9V89.6z"/>
		<path class="st9" d="M299.9,111.5l2.8-0.3l0.2,8.1c-7.6,1.5-14.3,2.3-20.2,2.3c-7.4,0-12.7-2-16-6.1c-3.2-4.1-4.8-10.6-4.8-19.5
			c0-17.7,7.2-26.6,21.7-26.6c14,0,21,7.6,21,22.9l-0.7,7.8h-31c0.1,4.1,1,7.2,2.7,9.1s5,2.9,9.7,2.9
			C290,112.1,294.9,111.9,299.9,111.5z M293.9,91.7c0-4.9-0.8-8.4-2.4-10.3c-1.6-2-4.2-3-8-3c-3.7,0-6.4,1-8.1,3.1
			s-2.6,5.5-2.6,10.2C272.8,91.7,293.9,91.7,293.9,91.7z"/>
		<path class="st9" d="M315.1,120.5v-50h10.8v6c5.7-3.7,11.3-6,17-7.1v10.9c-5.7,1.1-10.6,2.6-14.7,4.4l-2.2,0.9v34.9
			C326,120.5,315.1,120.5,315.1,120.5z"/>
		<path class="st9" d="M385.9,80.8c-7.9-1.1-13.6-1.6-17.1-1.6s-6,0.4-7.4,1.2c-1.4,0.8-2.1,2.1-2.1,3.9s0.8,3.1,2.2,3.8
			c1.5,0.7,5,1.6,10.6,2.6s9.5,2.5,11.9,4.5c2.3,2.1,3.5,5.7,3.5,11s-1.7,9.1-5,11.6c-3.4,2.5-8.3,3.7-14.8,3.7
			c-4.1,0-9.2-0.6-15.4-1.7l-3.1-0.5l0.4-9.1c8,1.1,13.8,1.6,17.3,1.6s6.1-0.4,7.6-1.3s2.2-2.3,2.2-4.3s-0.7-3.4-2.2-4.1
			c-1.4-0.8-4.9-1.6-10.3-2.5s-9.4-2.3-12-4.2c-2.5-1.9-3.8-5.5-3.8-10.6s1.8-9,5.2-11.5c3.5-2.5,8-3.8,13.5-3.8
			c4.3,0,9.5,0.5,15.7,1.6l3.1,0.6L385.9,80.8z"/>
		<path class="st9" d="M400.8,75.9c3.4-4.3,9.1-6.5,17.1-6.5s13.7,2.2,17.1,6.5s5.1,10.8,5.1,19.5s-1.7,15.2-5,19.6
			s-9.1,6.6-17.3,6.6s-14-2.2-17.3-6.6s-5-10.9-5-19.6C395.7,86.8,397.4,80.3,400.8,75.9z M409,108.4c1.5,2.7,4.5,4,9,4s7.5-1.3,9-4
			s2.3-7,2.3-13.1s-0.8-10.4-2.4-12.9s-4.6-3.8-8.9-3.8s-7.2,1.3-8.9,3.8c-1.6,2.5-2.4,6.8-2.4,12.9S407.5,105.8,409,108.4z"/>
		<path class="st9" d="M462,120.5h-10.9v-50h10.8v3.1c4.9-2.8,9.5-4.2,13.8-4.2c6.7,0,11.2,1.9,13.6,5.6c2.4,3.8,3.6,10,3.6,18.6
			v26.8h-10.8V94c0-5.4-0.6-9.2-1.8-11.5c-1.2-2.3-3.6-3.4-7.2-3.4c-3.4,0-6.7,0.7-9.8,2l-1.5,0.6v38.8H462z"/>
		<path class="st9" d="M542.7,85.9v22.8c0.1,1.5,0.5,2.6,1.2,3.2c0.7,0.7,1.8,1.2,3.2,1.3l-0.3,8.3c-5.7,0-10.2-1.2-13.3-3.7
			c-5.3,2.5-10.7,3.7-16.1,3.7c-9.9,0-14.9-5.3-14.9-15.9c0-5.1,1.3-8.7,4-11s6.8-3.6,12.5-4.1l12.9-1.1v-3.6c0-2.7-0.6-4.5-1.8-5.6
			s-2.9-1.6-5.1-1.6c-4.3,0-9.6,0.3-16,0.8l-3.2,0.2l-0.4-7.7c7.3-1.7,14-2.6,20-2.6c6.1,0,10.5,1.3,13.2,4
			C541.3,76,542.7,80.2,542.7,85.9z M520.3,98.3c-4.6,0.4-6.9,2.9-6.9,7.5s2,6.9,6.1,6.9c3.3,0,6.9-0.5,10.6-1.6l1.8-0.6V97.2
			L520.3,98.3z"/>
		<path class="st9" d="M557,120.5V49.7h10.9v70.8H557z"/>
		<path class="st9" d="M630.1,99.2h-14v21.3H605V52h25.1c15.5,0,23.3,7.7,23.3,23c0,7.9-2,13.9-5.8,18
			C643.6,97.2,637.8,99.2,630.1,99.2z M616.1,89.6H630c8,0,12-4.9,12-14.6c0-4.7-1-8.1-2.9-10.2s-5-3.2-9.1-3.2h-13.9V89.6z"/>
		<path class="st9" d="M665.5,75.9c3.4-4.3,9.2-6.5,17.2-6.5s13.7,2.2,17.2,6.5c3.4,4.3,5.1,10.8,5.1,19.5s-1.7,15.2-5,19.6
			s-9.1,6.6-17.3,6.6s-14-2.2-17.3-6.6s-5-10.9-5-19.6C660.4,86.8,662.1,80.3,665.5,75.9z M673.7,108.4c1.5,2.7,4.5,4,9,4
			s7.5-1.3,9-4s2.3-7,2.3-13.1s-0.8-10.4-2.5-12.9c-1.6-2.5-4.6-3.8-8.8-3.8c-4.3,0-7.2,1.3-8.8,3.8s-2.5,6.8-2.5,12.9
			S672.2,105.8,673.7,108.4z"/>
		<path class="st9" d="M715.8,120.5v-50h10.8v6c5.7-3.7,11.3-6,17-7.1v10.9c-5.7,1.1-10.6,2.6-14.7,4.4l-2.2,0.9v34.9
			C726.7,120.5,715.8,120.5,715.8,120.5z"/>
		<path class="st9" d="M778.8,79.8H765v22c0,4.1,0.3,6.8,0.9,8.1c0.6,1.3,2.1,2,4.6,2l8.2-0.3l0.5,8.7c-4.5,0.9-7.9,1.3-10.2,1.3
			c-5.7,0-9.5-1.3-11.7-3.9c-2.1-2.6-3.1-7.5-3.1-14.7V79.8h-6.4v-9.3h6.4V56H765v14.5h13.8V79.8z"/>
		<path class="st9" d="M800.8,79.8v40.7H790V79.8h-5.8v-9.3h5.8v-3.2c0-7.1,1-12,3.1-14.7s5.7-4,11-4l10.8,1l-0.1,8.9
			c-3.3-0.1-6-0.2-8.2-0.2s-3.7,0.7-4.5,2c-0.9,1.3-1.3,3.7-1.3,7.1v3.1H814v9.3H800.8z"/>
		<path class="st9" d="M824.4,75.9c3.4-4.3,9.2-6.5,17.2-6.5s13.7,2.2,17.2,6.5c3.4,4.3,5.1,10.8,5.1,19.5s-1.7,15.2-5,19.6
			s-9.1,6.6-17.3,6.6s-14-2.2-17.3-6.6s-5-10.9-5-19.6C819.3,86.8,821,80.3,824.4,75.9z M832.6,108.4c1.5,2.7,4.5,4,9,4s7.5-1.3,9-4
			s2.3-7,2.3-13.1s-0.8-10.4-2.5-12.9c-1.6-2.5-4.6-3.8-8.8-3.8c-4.3,0-7.2,1.3-8.8,3.8s-2.5,6.8-2.5,12.9S831.1,105.8,832.6,108.4z
			"/>
		<path class="st9" d="M875.3,120.5V49.7h10.9v70.8H875.3z"/>
		<path class="st9" d="M900,62V50.5h10.9V62H900z M900,120.5v-50h10.9v50H900z"/>
		<path class="st9" d="M926.8,75.9c3.4-4.3,9.2-6.5,17.2-6.5s13.7,2.2,17.2,6.5c3.4,4.3,5.1,10.8,5.1,19.5s-1.7,15.2-5,19.6
			s-9.1,6.6-17.3,6.6s-14-2.2-17.3-6.6s-5-10.9-5-19.6C921.7,86.8,923.4,80.3,926.8,75.9z M935,108.4c1.5,2.7,4.5,4,9,4s7.5-1.3,9-4
			s2.3-7,2.3-13.1s-0.8-10.4-2.5-12.9c-1.6-2.5-4.6-3.8-8.8-3.8c-4.3,0-7.2,1.3-8.8,3.8s-2.5,6.8-2.5,12.9S933.5,105.8,935,108.4z"
			/>
	</g>
	<g>
		<rect x="66.6" y="53.7" class="st4" width="62.6" height="88.3"/>
		<path class="st9" d="M99.6,103.2h-14v21.3H74.5V56h25.1c15.5,0,23.3,7.7,23.3,23c0,7.9-1.9,13.9-5.8,18
			C113.1,101.2,107.3,103.2,99.6,103.2z M85.6,93.6h13.9c8,0,12-4.9,12-14.6c0-4.7-1-8.1-2.9-10.2s-5-3.2-9.1-3.2H85.6V93.6z"/>
	</g>
</g>
</svg>
