<?xml version="1.0" encoding="utf-8"?>
<!-- Generator: Adobe Illustrator 23.0.1, SVG Export Plug-In . SVG Version: 6.00 Build 0)  -->
<svg version="1.1" id="Capa_1" xmlns="http://www.w3.org/2000/svg" xmlns:xlink="http://www.w3.org/1999/xlink" x="0px" y="0px"
	 viewBox="0 0 150 50" style="enable-background:new 0 0 150 50;" xml:space="preserve">
<style type="text/css">
	.st0{fill:#161D27;}
	.st1{fill:#DDDDDD;}
</style>
<g>
	<g>
		<path class="st0" d="M14,35.1h-0.3c-1.6,0-2.9-1.3-2.9-2.9V17.6c0-1.6,1.3-2.9,2.9-2.9h0c1.6,0,2.9,1.3,2.9,2.9v15
			C16.6,34,15.5,35.1,14,35.1z"/>
		<path class="st0" d="M45.9,43h-0.3c-1.6,0-2.9-1.3-2.9-2.9V9.7c0-1.6,1.3-2.9,2.9-2.9h0c1.6,0,2.9,1.3,2.9,2.9v30.7
			C48.5,41.8,47.3,43,45.9,43z"/>
		<path class="st0" d="M24.7,43h-0.3c-1.6,0-2.9-1.3-2.9-2.9V9.7c0-1.6,1.3-2.9,2.9-2.9h0c1.6,0,2.9,1.3,2.9,2.9v30.7
			C27.2,41.8,26.1,43,24.7,43z"/>
		<path class="st0" d="M56.5,35.1h-0.3c-1.6,0-2.9-1.3-2.9-2.9V17.6c0-1.6,1.3-2.9,2.9-2.9h0c1.6,0,2.9,1.3,2.9,2.9v15
			C59.1,34,57.9,35.1,56.5,35.1z"/>
		<path class="st0" d="M35.3,35.8H35c-1.6,0-2.9-1.3-2.9-2.9V18.7c0-1.6,1.3-2.9,2.9-2.9h0c1.6,0,2.9,1.3,2.9,2.9v14.5
			C37.9,34.6,36.7,35.8,35.3,35.8z"/>
	</g>
	<g>
		<path class="st1" d="M78.2,30l4.9-10.6c0-0.1,0.2-0.2,0.3-0.2h0.2c0.1,0,0.2,0.1,0.3,0.2L88.7,30c0.1,0.2,0,0.4-0.3,0.4h-1.7
			c-0.3,0-0.4-0.1-0.6-0.4l-0.6-1.2h-4.3L80.8,30c-0.1,0.2-0.3,0.4-0.6,0.4h-1.7C78.2,30.4,78.1,30.2,78.2,30z M84.7,26.6L83.5,24h0
			l-1.2,2.6H84.7z"/>
		<path class="st1" d="M101.1,19.2c1.6,0,2.7,0.5,3.8,1.5c0.1,0.1,0.1,0.3,0,0.4l-1.2,1.3c-0.1,0.1-0.3,0.1-0.4,0
			c-0.6-0.5-1.4-0.8-2.1-0.8c-1.8,0-3.1,1.5-3.1,3.2c0,1.7,1.3,3.2,3.1,3.2c0.7,0,1.5-0.3,2.1-0.8c0.1-0.1,0.3-0.1,0.4,0l1.2,1.3
			c0.1,0.1,0.1,0.3,0,0.4c-1.1,1-2.4,1.5-3.8,1.5c-3.1,0-5.7-2.5-5.7-5.6S97.9,19.2,101.1,19.2z"/>
		<path class="st1" d="M114.2,19.5c0-0.1,0.2-0.3,0.3-0.3h0.3c0.1,0,0.2,0.1,0.3,0.2l3.6,6.8h0l3.6-6.8c0-0.1,0.2-0.2,0.3-0.2h0.3
			c0.1,0,0.3,0.1,0.3,0.3l1.8,10.6c0,0.2-0.1,0.3-0.3,0.3h-1.9c-0.1,0-0.3-0.1-0.3-0.3l-0.7-4.9h0l-2.6,5.1c0,0.1-0.2,0.2-0.3,0.2
			h-0.3c-0.1,0-0.2-0.1-0.3-0.2l-2.7-5.1h0l-0.7,4.9c0,0.1-0.1,0.3-0.3,0.3h-1.9c-0.2,0-0.3-0.1-0.3-0.3L114.2,19.5z"/>
		<path class="st1" d="M133.2,19.7c0-0.2,0.1-0.3,0.3-0.3h6.5c0.2,0,0.3,0.1,0.3,0.3v1.7c0,0.2-0.1,0.3-0.3,0.3h-4.4v1.9h3.6
			c0.2,0,0.3,0.1,0.3,0.3v1.7c0,0.2-0.1,0.3-0.3,0.3h-3.6v2.1h4.4c0.2,0,0.3,0.1,0.3,0.3v1.7c0,0.2-0.1,0.3-0.3,0.3h-6.5
			c-0.2,0-0.3-0.1-0.3-0.3V19.7z"/>
	</g>
</g>
<g>
</g>
<g>
</g>
<g>
</g>
<g>
</g>
<g>
</g>
<g>
</g>
<g>
</g>
<g>
</g>
<g>
</g>
<g>
</g>
<g>
</g>
<g>
</g>
<g>
</g>
<g>
</g>
<g>
</g>
</svg>
