<svg width="142" height="36" viewBox="0 0 142 36" fill="none" xmlns="http://www.w3.org/2000/svg">
<g opacity="0.7">
<path d="M46.128 26.868C45.4142 26.9067 44.7082 26.7038 44.124 26.292C43.8798 26.111 43.6834 25.8733 43.5517 25.5994C43.42 25.3255 43.3569 25.0237 43.368 24.72V13.596C43.3621 13.5489 43.3671 13.5011 43.3825 13.4562C43.398 13.4113 43.4234 13.3705 43.457 13.337C43.4905 13.3034 43.5313 13.278 43.5762 13.2625C43.6211 13.2471 43.6689 13.2421 43.716 13.248H45.732C45.96 13.248 46.068 13.368 46.068 13.596V23.856C46.068 24.312 46.272 24.54 46.692 24.54C46.87 24.5473 47.0481 24.5271 47.22 24.48C47.46 24.48 47.592 24.552 47.604 24.768L47.784 26.268C47.7926 26.3117 47.7918 26.3568 47.7816 26.4002C47.7713 26.4436 47.7519 26.4843 47.7246 26.5195C47.6973 26.5548 47.6628 26.5837 47.6233 26.6045C47.5839 26.6253 47.5405 26.6374 47.496 26.64C47.0544 26.7858 46.593 26.8627 46.128 26.868V26.868Z" fill="#5E6E80"/>
<path d="M57.468 25.584C56.455 26.421 55.1821 26.8788 53.868 26.8788C52.554 26.8788 51.281 26.421 50.268 25.584C49.3777 24.6852 48.8782 23.4712 48.8782 22.206C48.8782 20.9408 49.3777 19.7268 50.268 18.828C51.283 17.9954 52.5552 17.5403 53.868 17.5403C55.1808 17.5403 56.4531 17.9954 57.468 18.828C58.3379 19.7351 58.8235 20.9432 58.8235 22.2C58.8235 23.4568 58.3379 24.6649 57.468 25.572V25.584ZM52.164 24C52.6341 24.4258 53.2457 24.6617 53.88 24.6617C54.5143 24.6617 55.1259 24.4258 55.596 24C56.0215 23.5108 56.2558 22.8843 56.2558 22.236C56.2558 21.5877 56.0215 20.9612 55.596 20.472C55.1259 20.0462 54.5143 19.8103 53.88 19.8103C53.2457 19.8103 52.6341 20.0462 52.164 20.472C51.7386 20.9612 51.5042 21.5877 51.5042 22.236C51.5042 22.8843 51.7386 23.5108 52.164 24Z" fill="#5E6E80"/>
<path d="M69.924 17.8439C70.152 17.8439 70.26 17.9639 70.26 18.1919V26.7959C70.281 27.3766 70.1723 27.9547 69.9419 28.4882C69.7115 29.0216 69.3651 29.4971 68.928 29.8799C67.9577 30.7073 66.7099 31.1361 65.436 31.0799C64.2854 31.1204 63.1501 30.8062 62.184 30.1799C61.7715 29.909 61.419 29.5562 61.1486 29.1433C60.8782 28.7304 60.6955 28.2664 60.612 27.7799C60.612 27.5399 60.612 27.4319 60.936 27.4319H62.952C63.0376 27.4348 63.1205 27.4624 63.1908 27.5114C63.2611 27.5604 63.3157 27.6286 63.348 27.7079C63.4788 28.0724 63.7394 28.3758 64.08 28.5599C64.4951 28.7741 64.957 28.8813 65.424 28.8719C65.7058 28.8874 65.9878 28.8465 66.2536 28.7517C66.5194 28.6569 66.7636 28.5101 66.972 28.3199C67.1624 28.1209 67.3105 27.8854 67.4075 27.6276C67.5044 27.3698 67.5481 27.0951 67.536 26.8199V26.0639C66.8142 26.5948 65.9357 26.8694 65.04 26.8439C64.4131 26.8667 63.7881 26.7626 63.2025 26.5378C62.6168 26.3131 62.0827 25.9723 61.632 25.5359C60.7669 24.6409 60.2833 23.4447 60.2833 22.1999C60.2833 20.9551 60.7669 19.759 61.632 18.8639C62.0849 18.4314 62.6197 18.0939 63.205 17.8713C63.7903 17.6488 64.4142 17.5456 65.04 17.5679C65.9616 17.5436 66.8637 17.8358 67.596 18.3959V18.2039C67.5905 18.1579 67.5953 18.1113 67.6101 18.0674C67.6248 18.0235 67.6492 17.9834 67.6813 17.9501C67.7135 17.9168 67.7527 17.891 67.7961 17.8748C67.8394 17.8585 67.8859 17.852 67.932 17.8559L69.924 17.8439ZM65.268 24.7079C65.5772 24.7175 65.8847 24.659 66.1687 24.5367C66.4528 24.4144 66.7065 24.2311 66.912 23.9999C67.311 23.4847 67.5274 22.8515 67.5274 22.1999C67.5274 21.5483 67.311 20.9151 66.912 20.3999C66.7073 20.1718 66.4551 19.9913 66.1731 19.8711C65.8912 19.7509 65.5863 19.6938 65.28 19.7039C64.9673 19.6941 64.6562 19.7523 64.3682 19.8746C64.0802 19.9968 63.8222 20.1801 63.612 20.4119C63.17 20.9048 62.9376 21.5505 62.964 22.2119C62.9424 22.8669 63.1696 23.5058 63.6 23.9999C63.8107 24.2311 64.0688 24.414 64.3567 24.5362C64.6445 24.6584 64.9554 24.717 65.268 24.7079V24.7079Z" fill="#5E6E80"/>
<path d="M80.616 25.584C79.601 26.4167 78.3288 26.8718 77.016 26.8718C75.7032 26.8718 74.431 26.4167 73.416 25.584C72.5454 24.6749 72.0594 23.4648 72.0594 22.206C72.0594 20.9473 72.5454 19.7371 73.416 18.828C74.4319 17.9975 75.7038 17.5438 77.016 17.5438C78.3282 17.5438 79.6 17.9975 80.616 18.828C81.4858 19.7351 81.9714 20.9433 81.9714 22.2C81.9714 23.4568 81.4858 24.6649 80.616 25.572V25.584ZM75.3 24C75.53 24.2189 75.8012 24.3899 76.0978 24.5032C76.3945 24.6165 76.7106 24.6698 77.028 24.66C77.3433 24.6682 77.6572 24.6141 77.9517 24.5009C78.2461 24.3876 78.5154 24.2174 78.744 24C79.1625 23.5076 79.3923 22.8823 79.3923 22.236C79.3923 21.5897 79.1625 20.9645 78.744 20.472C78.5154 20.2546 78.2461 20.0845 77.9517 19.9712C77.6572 19.858 77.3433 19.8039 77.028 19.812C76.7106 19.8023 76.3945 19.8556 76.0978 19.9689C75.8012 20.0822 75.53 20.2532 75.3 20.472C74.8815 20.9645 74.6517 21.5897 74.6517 22.236C74.6517 22.8823 74.8815 23.5076 75.3 24V24Z" fill="#5E6E80"/>
<path d="M86.304 15.804C85.9868 16.0817 85.5796 16.2347 85.158 16.2347C84.7364 16.2347 84.3292 16.0817 84.012 15.804C83.8682 15.6683 83.7536 15.5046 83.6753 15.3231C83.597 15.1415 83.5566 14.9458 83.5566 14.748C83.5566 14.5503 83.597 14.3546 83.6753 14.173C83.7536 13.9914 83.8682 13.8278 84.012 13.692C84.3325 13.4213 84.7385 13.2728 85.158 13.2728C85.5775 13.2728 85.9835 13.4213 86.304 13.692C86.4478 13.8278 86.5624 13.9914 86.6407 14.173C86.719 14.3546 86.7594 14.5503 86.7594 14.748C86.7594 14.9458 86.719 15.1415 86.6407 15.3231C86.5624 15.5046 86.4478 15.6683 86.304 15.804V15.804ZM86.556 26.868C85.8427 26.903 85.1379 26.7004 84.552 26.292C84.3116 26.1084 84.1186 25.8699 83.9891 25.5964C83.8597 25.3229 83.7976 25.0224 83.808 24.72V18.192C83.8022 18.1449 83.8072 18.0971 83.8226 18.0523C83.838 18.0074 83.8635 17.9666 83.897 17.9331C83.9306 17.8995 83.9713 17.874 84.0162 17.8586C84.0611 17.8432 84.1089 17.8382 84.156 17.844H86.172C86.4 17.844 86.508 17.964 86.508 18.192V23.856C86.508 24.312 86.712 24.54 87.12 24.54C87.302 24.5466 87.4839 24.5264 87.66 24.48C87.9 24.48 88.032 24.552 88.044 24.768L88.224 26.268C88.2326 26.3118 88.2318 26.3568 88.2216 26.4002C88.2113 26.4436 88.1919 26.4843 88.1646 26.5196C88.1373 26.5548 88.1028 26.5838 88.0634 26.6046C88.0239 26.6254 87.9805 26.6375 87.936 26.64C87.4905 26.7867 87.025 26.8636 86.556 26.868V26.868Z" fill="#5E6E80"/>
<path d="M95.64 17.556C96.2697 17.5311 96.898 17.633 97.4875 17.8557C98.0771 18.0783 98.6159 18.4171 99.072 18.852C99.9206 19.7627 100.392 20.9612 100.392 22.206C100.392 23.4508 99.9206 24.6493 99.072 25.56C98.6181 25.9988 98.0799 26.3409 97.49 26.5657C96.9001 26.7906 96.2708 26.8934 95.64 26.868C94.7414 26.888 93.8608 26.6141 93.132 26.088V30.42C93.132 30.648 93.012 30.756 92.784 30.756H90.768C90.722 30.7646 90.6746 30.7619 90.6299 30.748C90.5852 30.7342 90.5445 30.7096 90.5114 30.6766C90.4784 30.6435 90.4538 30.6028 90.44 30.5581C90.4261 30.5134 90.4234 30.466 90.432 30.42V20.58C90.4461 20.4838 90.4376 20.3855 90.407 20.2932C90.3764 20.2009 90.3246 20.1169 90.2558 20.0482C90.1871 19.9794 90.1031 19.9276 90.0108 19.897C89.9185 19.8665 89.8202 19.8579 89.724 19.872H89.328C89.064 19.872 88.932 19.776 88.932 19.584V18.168C88.9258 18.0804 88.9498 17.9933 89 17.9212C89.0502 17.8492 89.1236 17.7965 89.208 17.772C89.6231 17.6211 90.0624 17.5479 90.504 17.556C90.9444 17.517 91.3863 17.6104 91.7733 17.8242C92.1603 18.038 92.4746 18.3625 92.676 18.756C93.0625 18.365 93.5247 18.0569 94.0344 17.8506C94.544 17.6443 95.0903 17.544 95.64 17.556ZM93.768 24C93.982 24.2236 94.239 24.4016 94.5236 24.5232C94.8082 24.6447 95.1145 24.7074 95.424 24.7074C95.7335 24.7074 96.0398 24.6447 96.3244 24.5232C96.609 24.4016 96.866 24.2236 97.08 24C97.5307 23.4973 97.7675 22.8386 97.74 22.164C97.7714 21.4888 97.5341 20.8287 97.08 20.328C96.866 20.1044 96.609 19.9264 96.3244 19.8049C96.0398 19.6833 95.7335 19.6206 95.424 19.6206C95.1145 19.6206 94.8082 19.6833 94.5236 19.8049C94.239 19.9264 93.982 20.1044 93.768 20.328C93.3314 20.8375 93.1041 21.4936 93.132 22.164C93.1076 22.8339 93.3345 23.4887 93.768 24Z" fill="#5E6E80"/>
<path d="M106.056 26.868C104.979 26.9123 103.911 26.6546 102.972 26.124C102.595 25.8972 102.275 25.5885 102.034 25.2208C101.793 24.8531 101.638 24.4359 101.58 24C101.58 23.76 101.664 23.64 101.928 23.64H103.692C103.776 23.6433 103.857 23.6697 103.927 23.7163C103.997 23.7629 104.053 23.8278 104.088 23.904C104.34 24.552 105 24.876 106.056 24.876C106.424 24.8929 106.791 24.8187 107.124 24.66C107.239 24.6082 107.337 24.5261 107.409 24.4225C107.481 24.3189 107.524 24.1978 107.532 24.072C107.532 23.76 107.34 23.544 106.956 23.4C106.5 23.2484 106.03 23.1478 105.552 23.1C104.986 23.036 104.425 22.9358 103.872 22.8C103.334 22.6783 102.845 22.3983 102.468 21.996C102.246 21.7227 102.082 21.4065 101.988 21.0672C101.893 20.7279 101.869 20.3728 101.917 20.0239C101.966 19.675 102.085 19.3398 102.269 19.0391C102.452 18.7384 102.696 18.4787 102.984 18.276C103.849 17.7251 104.864 17.4567 105.888 17.508C106.88 17.4745 107.861 17.7198 108.72 18.216C109.066 18.4122 109.364 18.683 109.593 19.009C109.821 19.3349 109.974 19.7076 110.04 20.1C110.04 20.34 109.932 20.46 109.716 20.46H107.94C107.865 20.4645 107.791 20.4462 107.727 20.4077C107.662 20.3691 107.611 20.3121 107.58 20.244C107.461 19.9598 107.238 19.7321 106.956 19.608C106.638 19.4417 106.283 19.3591 105.924 19.368C105.572 19.3489 105.221 19.4191 104.904 19.572C104.792 19.6152 104.696 19.6908 104.627 19.7892C104.559 19.8876 104.522 20.0042 104.52 20.124C104.528 20.2881 104.588 20.4455 104.691 20.5729C104.795 20.7003 104.937 20.7912 105.096 20.832C105.557 21.0057 106.036 21.1265 106.524 21.192C107.085 21.2659 107.642 21.37 108.192 21.504C108.73 21.6258 109.219 21.9058 109.596 22.308C109.798 22.5296 109.954 22.789 110.054 23.0712C110.155 23.3534 110.199 23.6528 110.184 23.952C110.194 24.3669 110.097 24.7773 109.901 25.1432C109.706 25.5092 109.419 25.8182 109.068 26.04C108.171 26.6156 107.121 26.9044 106.056 26.868V26.868Z" fill="#5E6E80"/>
<path d="M122.868 26.268C122.875 26.3106 122.873 26.3541 122.863 26.396C122.852 26.438 122.834 26.4774 122.808 26.512C122.783 26.5467 122.75 26.5759 122.713 26.5978C122.676 26.6198 122.635 26.6341 122.592 26.64C122.154 26.783 121.697 26.8599 121.236 26.868C120.78 26.9152 120.319 26.8439 119.899 26.661C119.478 26.4781 119.112 26.1898 118.836 25.824C117.988 26.5528 116.892 26.9267 115.776 26.868C115.258 26.8919 114.74 26.8071 114.256 26.619C113.773 26.4309 113.334 26.1438 112.968 25.776C112.605 25.3906 112.323 24.9358 112.139 24.4389C111.956 23.942 111.874 23.4131 111.9 22.884V18.192C111.9 17.964 112.008 17.844 112.236 17.844H114.252C114.48 17.844 114.588 17.964 114.588 18.192V22.524C114.566 23.0637 114.751 23.5915 115.104 24C115.28 24.1871 115.495 24.3343 115.733 24.4316C115.971 24.5289 116.227 24.574 116.484 24.564C116.747 24.5755 117.01 24.5348 117.257 24.4441C117.504 24.3535 117.731 24.2148 117.924 24.036C118.107 23.8475 118.249 23.6236 118.342 23.378C118.435 23.1324 118.476 22.8703 118.464 22.608V18.192C118.464 17.964 118.572 17.844 118.8 17.844H120.84C121.068 17.844 121.176 17.964 121.176 18.192V23.844C121.176 24.312 121.38 24.54 121.776 24.54C121.962 24.5472 122.148 24.527 122.328 24.48C122.373 24.4673 122.421 24.465 122.467 24.4733C122.514 24.4816 122.558 24.5004 122.596 24.5281C122.634 24.5558 122.665 24.5918 122.687 24.6333C122.71 24.6749 122.722 24.7209 122.724 24.768L122.868 26.268Z" fill="#5E6E80"/>
<path d="M141.936 26.268C141.947 26.311 141.948 26.3558 141.939 26.3992C141.93 26.4427 141.912 26.4836 141.886 26.5192C141.859 26.5547 141.825 26.584 141.786 26.6049C141.747 26.6258 141.704 26.6378 141.66 26.6401C141.214 26.7851 140.749 26.862 140.28 26.868C139.566 26.9049 138.861 26.7021 138.276 26.292C138.023 26.1164 137.817 25.881 137.677 25.6068C137.537 25.3326 137.466 25.028 137.472 24.72V21.9001C137.497 21.3619 137.317 20.8343 136.968 20.4241C136.8 20.2365 136.592 20.0886 136.359 19.9911C136.127 19.8936 135.876 19.8488 135.624 19.8601C135.397 19.8515 135.171 19.8945 134.963 19.986C134.755 20.0775 134.571 20.2149 134.424 20.3881C134.107 20.7902 133.945 21.2927 133.968 21.804V26.2321C133.968 26.4601 133.86 26.5801 133.632 26.5801H131.604C131.557 26.5859 131.509 26.5809 131.464 26.5655C131.419 26.5501 131.379 26.5246 131.345 26.491C131.311 26.4575 131.286 26.4167 131.271 26.3718C131.255 26.3269 131.25 26.2791 131.256 26.2321V21.9001C131.282 21.3678 131.116 20.8439 130.788 20.4241C130.642 20.2477 130.458 20.1057 130.251 20.0082C130.043 19.9107 129.817 19.8601 129.588 19.8601C129.343 19.8502 129.099 19.8921 128.872 19.9831C128.644 20.0741 128.438 20.2121 128.268 20.3881C127.925 20.7773 127.748 21.2858 127.776 21.804V26.2321C127.782 26.2791 127.777 26.3269 127.761 26.3718C127.746 26.4167 127.721 26.4575 127.687 26.491C127.653 26.5246 127.613 26.5501 127.568 26.5655C127.523 26.5809 127.475 26.5859 127.428 26.5801H125.472C125.244 26.5801 125.136 26.4601 125.136 26.2321V20.5801C125.15 20.4838 125.142 20.3856 125.111 20.2932C125.08 20.2009 125.029 20.117 124.96 20.0482C124.891 19.9794 124.807 19.9277 124.715 19.8971C124.622 19.8665 124.524 19.8579 124.428 19.8721H124.032C123.768 19.8721 123.636 19.7761 123.636 19.5841V18.1681C123.63 18.0804 123.654 17.9933 123.704 17.9213C123.754 17.8492 123.828 17.7965 123.912 17.7721C124.327 17.6212 124.766 17.5479 125.208 17.5561C125.632 17.5199 126.057 17.6044 126.435 17.7998C126.813 17.9951 127.128 18.2933 127.344 18.6601C127.749 18.2763 128.228 17.9803 128.753 17.7903C129.277 17.6003 129.835 17.5206 130.392 17.5561C130.933 17.5297 131.472 17.6311 131.966 17.8521C132.46 18.0731 132.895 18.4074 133.236 18.8281C133.633 18.3964 134.121 18.0584 134.665 17.8384C135.209 17.6185 135.794 17.522 136.38 17.5561C136.904 17.5315 137.427 17.6159 137.916 17.8039C138.406 17.9918 138.851 18.2793 139.224 18.6481C139.589 19.0326 139.871 19.4873 140.055 19.9844C140.238 20.4815 140.319 21.0108 140.292 21.5401V23.8561C140.292 24.3121 140.496 24.5401 140.88 24.5401C141.066 24.5487 141.252 24.5285 141.432 24.4801C141.68 24.4801 141.812 24.576 141.828 24.768L141.936 26.268Z" fill="#5E6E80"/>
<path d="M1.22399 16.2841C2.10932 12.7257 4.1597 9.56575 7.04868 7.30747C9.93765 5.04919 13.4991 3.82239 17.166 3.82239C20.8329 3.82239 24.3943 5.04919 27.2833 7.30747C30.1723 9.56575 32.2227 12.7257 33.108 16.2841H31.668C29.2388 16.2483 26.8594 16.9743 24.864 18.3601C24.7488 18.4434 24.6286 18.5196 24.504 18.5881H24.336C24.2114 18.5196 24.0912 18.4434 23.976 18.3601C21.9629 17.0063 19.5919 16.2833 17.166 16.2833C14.74 16.2833 12.3691 17.0063 10.356 18.3601C10.2408 18.4434 10.1206 18.5196 9.996 18.5881H9.828C9.70339 18.5196 9.58316 18.4434 9.468 18.3601C7.47256 16.9743 5.09318 16.2483 2.664 16.2841H1.22399ZM29.076 23.8081C29.8152 23.2324 30.7314 22.9312 31.668 22.9561H33.6V19.104H31.668C30.0183 19.0841 28.4062 19.5976 27.072 20.5681C26.3212 21.1216 25.4128 21.4202 24.48 21.4202C23.5472 21.4202 22.6388 21.1216 21.888 20.5681C20.5199 19.6157 18.8929 19.1052 17.226 19.1052C15.5591 19.1052 13.9321 19.6157 12.564 20.5681C11.8132 21.1216 10.9048 21.4202 9.97199 21.4202C9.03916 21.4202 8.13083 21.1216 7.38 20.5681C6.02927 19.5852 4.39415 19.071 2.72399 19.104H0.731995V22.9561H2.664C3.60061 22.9312 4.51678 23.2324 5.25599 23.8081C6.6216 24.761 8.24675 25.272 9.912 25.272C11.5772 25.272 13.2024 24.761 14.568 23.8081C15.3082 23.2341 16.2237 22.9332 17.16 22.9561C18.0969 22.9292 19.0137 23.2306 19.752 23.8081C21.1201 24.7604 22.7471 25.2709 24.414 25.2709C26.0809 25.2709 27.7079 24.7604 29.076 23.8081V23.8081ZM29.076 30.6961C29.8152 30.1204 30.7314 29.8192 31.668 29.844H33.6V25.9921H31.668C30.0183 25.9721 28.4062 26.4856 27.072 27.4561C26.3212 28.0096 25.4128 28.3082 24.48 28.3082C23.5472 28.3082 22.6388 28.0096 21.888 27.4561C20.5199 26.5037 18.8929 25.9932 17.226 25.9932C15.5591 25.9932 13.9321 26.5037 12.564 27.4561C11.8132 28.0096 10.9048 28.3082 9.97199 28.3082C9.03916 28.3082 8.13083 28.0096 7.38 27.4561C6.02927 26.4732 4.39415 25.959 2.72399 25.9921H0.731995V29.844H2.664C3.60061 29.8192 4.51678 30.1204 5.25599 30.6961C6.6216 31.649 8.24675 32.16 9.912 32.16C11.5772 32.16 13.2024 31.649 14.568 30.6961C15.3082 30.1221 16.2237 29.8212 17.16 29.844C18.0969 29.8172 19.0137 30.1186 19.752 30.6961C21.1201 31.6484 22.7471 32.1589 24.414 32.1589C26.0809 32.1589 27.7079 31.6484 29.076 30.6961V30.6961Z" fill="#5E6E80"/>
</g>
</svg>
