<svg width="149" height="36" viewBox="0 0 149 36" fill="none" xmlns="http://www.w3.org/2000/svg">
<g opacity="0.7">
<path d="M32.476 12.8521C32.908 12.8521 33.052 13.0081 33.052 13.4281V22.9321H37.936C38.356 22.9321 38.512 23.0881 38.512 23.5081V24.3481C38.512 24.7681 38.356 24.9241 37.936 24.9241H31.504C31.084 24.9241 30.916 24.7681 30.916 24.3481V13.4281C30.916 13.0081 31.084 12.8521 31.504 12.8521H32.476Z" fill="#5E6E80"/>
<path d="M42.772 17.04C42.772 14.268 44.524 12.6 47.572 12.6C50.62 12.6 52.372 14.268 52.372 17.04V20.736C52.372 23.508 50.608 25.176 47.572 25.176C44.536 25.176 42.772 23.508 42.772 20.736V17.04ZM50.356 17.04C50.356 15.48 49.384 14.64 47.632 14.64C45.88 14.64 44.92 15.492 44.92 17.04V20.76C44.92 22.332 45.88 23.16 47.632 23.16C49.384 23.16 50.356 22.296 50.356 20.76V17.04Z" fill="#5E6E80"/>
<path d="M66.664 18.312C67.132 18.312 67.24 18.468 67.24 18.888V21.168C67.2527 21.705 67.1451 22.2381 66.925 22.7282C66.7049 23.2182 66.3779 23.6528 65.968 24C64.95 24.8106 63.6665 25.2128 62.368 25.128C59.26 25.128 57.568 23.46 57.568 20.688V16.968C57.568 14.232 59.32 12.552 62.368 12.552C64.768 12.552 66.328 13.5 66.988 15.396C67.0249 15.4672 67.0447 15.5461 67.0458 15.6263C67.0469 15.7066 67.0293 15.7859 66.9943 15.8582C66.9594 15.9304 66.9081 15.9935 66.8445 16.0424C66.7809 16.0913 66.7068 16.1247 66.628 16.14L65.692 16.464C65.284 16.608 65.116 16.524 64.972 16.104C64.7732 15.5914 64.4092 15.1598 63.9376 14.8772C63.466 14.5947 62.9137 14.4775 62.368 14.544C60.604 14.544 59.644 15.396 59.644 16.944V20.76C59.644 22.332 60.616 23.16 62.368 23.16C64.12 23.16 65.2 22.356 65.2 21.18V20.292H62.596C62.164 20.292 62.008 20.124 62.008 19.704V18.888C62.008 18.468 62.164 18.312 62.596 18.312H66.664Z" fill="#5E6E80"/>
<path d="M72.196 17.04C72.196 14.268 73.948 12.6 76.996 12.6C80.044 12.6 81.796 14.268 81.796 17.04V20.736C81.796 23.508 80.032 25.176 76.996 25.176C73.96 25.176 72.196 23.508 72.196 20.736V17.04ZM79.768 17.04C79.768 15.48 78.796 14.64 77.056 14.64C75.316 14.64 74.332 15.492 74.332 17.04V20.76C74.332 22.332 75.304 23.16 77.056 23.16C78.808 23.16 79.768 22.296 79.768 20.76V17.04Z" fill="#5E6E80"/>
<path d="M87.448 13.2001C87.448 12.9361 87.532 12.8521 87.796 12.8521H88.348C88.612 12.8521 88.672 12.9361 88.672 13.2001V24.5761C88.672 24.8401 88.672 24.9241 88.348 24.9241H87.796C87.532 24.9241 87.448 24.8401 87.448 24.5761V13.2001Z" fill="#5E6E80"/>
<path d="M99.604 12.8521C100.603 12.8521 101.562 13.249 102.268 13.9557C102.975 14.6623 103.372 15.6207 103.372 16.6201C103.372 17.6194 102.975 18.5778 102.268 19.2844C101.562 19.9911 100.603 20.3881 99.604 20.3881H96.004V24.5761C96.004 24.8401 95.944 24.9241 95.692 24.9241H95.128C94.876 24.9241 94.78 24.8401 94.78 24.5761V13.2001C94.78 12.9361 94.876 12.8521 95.128 12.8521H99.604ZM99.496 19.2001C99.8396 19.2001 100.18 19.1324 100.497 19.0009C100.815 18.8695 101.103 18.6768 101.346 18.4338C101.589 18.1909 101.781 17.9025 101.913 17.5852C102.044 17.2678 102.112 16.9276 102.112 16.5841C102.112 16.2405 102.044 15.9003 101.913 15.5829C101.781 15.2656 101.589 14.9772 101.346 14.7343C101.103 14.4913 100.815 14.2986 100.497 14.1672C100.18 14.0357 99.8396 13.9681 99.496 13.9681H95.896V19.2001H99.496Z" fill="#5E6E80"/>
<path d="M112.744 12.612C113.67 12.5097 114.605 12.709 115.409 13.1803C116.214 13.6516 116.844 14.3697 117.208 15.228C117.304 15.42 117.208 15.576 117.016 15.672L116.488 15.912C116.272 15.996 116.188 15.984 116.056 15.756C115.784 15.119 115.317 14.585 114.721 14.2312C114.126 13.8774 113.433 13.7222 112.744 13.788C110.716 13.788 109.612 14.592 109.612 16.032C109.6 16.4721 109.748 16.9015 110.028 17.2412C110.308 17.5808 110.702 17.8077 111.136 17.88C111.781 18.0905 112.451 18.2195 113.128 18.264C113.948 18.3077 114.757 18.4735 115.528 18.756C116.119 18.943 116.628 19.3278 116.969 19.8457C117.31 20.3636 117.462 20.983 117.4 21.6C117.4 23.844 115.768 25.2 112.768 25.2C111.784 25.3125 110.791 25.0845 109.955 24.5539C109.119 24.0233 108.489 23.2222 108.172 22.284C108.151 22.2412 108.139 22.1943 108.138 22.1466C108.137 22.0988 108.147 22.0515 108.167 22.0079C108.186 21.9644 108.215 21.9256 108.251 21.8945C108.287 21.8634 108.33 21.8407 108.376 21.828L108.904 21.636C108.946 21.619 108.99 21.6108 109.035 21.612C109.08 21.6132 109.124 21.6237 109.165 21.6429C109.205 21.6621 109.242 21.6895 109.271 21.7235C109.301 21.7574 109.323 21.7971 109.336 21.84C109.604 22.5179 110.082 23.0927 110.699 23.4811C111.316 23.8694 112.041 24.0512 112.768 24C115.036 24 116.152 23.208 116.152 21.6C116.173 21.1773 116.044 20.7608 115.787 20.4246C115.529 20.0884 115.161 19.8543 114.748 19.764C114.127 19.5788 113.487 19.466 112.84 19.428L111.544 19.26C111.138 19.1739 110.738 19.0657 110.344 18.936C109.955 18.8185 109.592 18.627 109.276 18.372C108.958 18.0837 108.707 17.729 108.541 17.3329C108.375 16.9368 108.298 16.509 108.316 16.08C108.4 13.98 109.972 12.612 112.744 12.612Z" fill="#5E6E80"/>
<path d="M123.868 20.8201C123.919 21.6687 124.292 22.4658 124.911 23.0487C125.53 23.6315 126.348 23.9561 127.198 23.9561C128.048 23.9561 128.866 23.6315 129.485 23.0487C130.104 22.4658 130.477 21.6687 130.528 20.8201V13.2001C130.528 12.9361 130.612 12.8521 130.876 12.8521H131.428C131.692 12.8521 131.776 12.9361 131.776 13.2001V20.8081C131.776 23.5321 130.168 25.1761 127.204 25.1761C124.24 25.1761 122.632 23.5321 122.632 20.8081V13.2001C122.632 12.9361 122.716 12.8521 122.968 12.8521H123.532C123.784 12.8521 123.868 12.9361 123.868 13.2001V20.8201Z" fill="#5E6E80"/>
<path d="M148.336 12.852C148.6 12.852 148.684 12.936 148.684 13.2V24.576C148.684 24.84 148.6 24.924 148.336 24.924H147.832C147.58 24.924 147.496 24.84 147.496 24.576V17.652C147.496 16.6446 147.564 15.6383 147.7 14.64H147.628C147.253 15.5529 146.816 16.439 146.32 17.292L143.74 21.84C143.708 21.9189 143.654 21.9864 143.583 22.0336C143.512 22.0807 143.429 22.1053 143.344 22.104H143.008C142.922 22.1045 142.837 22.0797 142.765 22.0328C142.692 21.9859 142.635 21.9189 142.6 21.84L139.984 17.244C139.519 16.4032 139.118 15.5287 138.784 14.628H138.712C138.835 15.6355 138.899 16.6492 138.904 17.664V24.576C138.904 24.84 138.82 24.924 138.556 24.924H138.088C137.824 24.924 137.74 24.84 137.74 24.576V13.2C137.74 12.936 137.824 12.852 138.088 12.852H138.52C138.619 12.8428 138.718 12.8644 138.804 12.9139C138.89 12.9633 138.958 13.0381 139 13.128L143.2 20.592L147.376 13.2C147.508 12.948 147.58 12.912 147.844 12.912L148.336 12.852Z" fill="#5E6E80"/>
<path d="M11.128 22.26V30.936C11.128 31.2686 10.9959 31.5875 10.7607 31.8227C10.5255 32.0579 10.2066 32.19 9.87401 32.19C9.54143 32.19 9.22247 32.0579 8.9873 31.8227C8.75213 31.5875 8.62001 31.2686 8.62001 30.936V22.272C8.96916 22.527 9.38781 22.6693 9.82001 22.68C10.2912 22.6935 10.7528 22.5452 11.128 22.26V22.26ZM21.808 19.752C21.4897 19.752 21.1845 19.8784 20.9595 20.1035C20.7344 20.3285 20.608 20.6337 20.608 20.952V22.464C20.608 22.7966 20.7401 23.1155 20.9753 23.3507C21.2105 23.5859 21.5294 23.718 21.862 23.718C22.1946 23.718 22.5136 23.5859 22.7487 23.3507C22.9839 23.1155 23.116 22.7966 23.116 22.464V21.012C23.1253 20.8399 23.0975 20.6679 23.0344 20.5075C22.9713 20.3472 22.8744 20.2023 22.7503 20.0827C22.6262 19.9632 22.4778 19.8718 22.3152 19.8147C22.1526 19.7576 21.9796 19.7362 21.808 19.752V19.752ZM5.89601 25.548C5.46421 25.5351 5.04621 25.3929 4.69601 25.14V33.84C4.69601 34.1742 4.82876 34.4947 5.06505 34.7309C5.30135 34.9672 5.62184 35.1 5.95601 35.1C6.29018 35.1 6.61067 34.9672 6.84696 34.7309C7.08326 34.4947 7.21601 34.1742 7.21601 33.84V25.2C6.82415 25.4533 6.36181 25.5752 5.89601 25.548V25.548ZM17.896 17.148C17.7334 17.1399 17.5709 17.1649 17.4183 17.2215C17.2658 17.2782 17.1263 17.3653 17.0084 17.4775C16.8906 17.5898 16.7968 17.7248 16.7327 17.8745C16.6687 18.0241 16.6358 18.1852 16.636 18.348V25.032C16.636 25.3662 16.7688 25.6867 17.0051 25.9229C17.2414 26.1592 17.5618 26.292 17.896 26.292C18.2302 26.292 18.5507 26.1592 18.787 25.9229C19.0233 25.6867 19.156 25.3662 19.156 25.032V18.432C19.1656 18.2588 19.1375 18.0856 19.0737 17.9243C19.0099 17.7631 18.9119 17.6175 18.7864 17.4978C18.6609 17.378 18.511 17.2869 18.3469 17.2306C18.1829 17.1744 18.0086 17.1544 17.836 17.172L17.896 17.148ZM13.912 19.716C13.46 19.7129 13.02 19.5704 12.652 19.308V28.032C12.652 28.3662 12.7848 28.6867 13.0211 28.9229C13.2573 29.1592 13.5778 29.292 13.912 29.292C14.2462 29.292 14.5667 29.1592 14.803 28.9229C15.0393 28.6867 15.172 28.3662 15.172 28.032V19.32C14.7913 19.6036 14.3266 19.7514 13.852 19.74L13.912 19.716ZM3.17201 26.4V2.02799C3.16885 1.73091 3.04861 1.44707 2.83741 1.23812C2.62621 1.02917 2.34111 0.91197 2.04401 0.911987H1.78001C1.48291 0.91197 1.19781 1.02917 0.986606 1.23812C0.775406 1.44707 0.655169 1.73091 0.652008 2.02799V26.4C0.652008 26.6992 0.770851 26.9861 0.982392 27.1976C1.19393 27.4092 1.48084 27.528 1.78001 27.528H2.04401C2.34317 27.528 2.63009 27.4092 2.84163 27.1976C3.05317 26.9861 3.17201 26.6992 3.17201 26.4V26.4ZM6.02801 24.624H5.76401C5.46484 24.624 5.17793 24.5051 4.96639 24.2936C4.75485 24.0821 4.63601 23.7952 4.63601 23.496V4.93199C4.63917 4.63491 4.75941 4.35107 4.97061 4.14212C5.1818 3.93317 5.46691 3.81597 5.76401 3.81599H6.02801C6.32511 3.81597 6.61021 3.93317 6.82141 4.14212C7.03261 4.35107 7.15285 4.63491 7.15601 4.93199V23.52C7.15601 23.8192 7.03716 24.1061 6.82562 24.3176C6.61408 24.5291 6.32717 24.648 6.02801 24.648V24.624ZM10 21.768H9.72401C9.42803 21.768 9.14417 21.6504 8.93488 21.4411C8.72559 21.2318 8.60801 20.948 8.60801 20.652V7.81199C8.60642 7.66443 8.63412 7.51802 8.68949 7.38123C8.74486 7.24444 8.82682 7.11999 8.9306 7.01509C9.03439 6.91019 9.15795 6.82691 9.29414 6.77007C9.43033 6.71324 9.57644 6.68398 9.72401 6.68399H10C10.2971 6.68715 10.5809 6.80739 10.7899 7.01859C10.9988 7.22979 11.116 7.51489 11.116 7.81199V20.652C11.116 20.948 10.9984 21.2318 10.7891 21.4411C10.5798 21.6504 10.296 21.768 10 21.768V21.768ZM13.972 18.828H13.72C13.4229 18.828 13.1378 18.7108 12.9266 18.5019C12.7154 18.2929 12.5952 18.0091 12.592 17.712V10.8C12.5822 10.6459 12.604 10.4915 12.6563 10.3462C12.7086 10.2009 12.7901 10.0679 12.8958 9.95541C13.0016 9.84292 13.1293 9.75333 13.271 9.69219C13.4128 9.63106 13.5656 9.59968 13.72 9.59999H13.984C14.2832 9.59999 14.5701 9.71883 14.7816 9.93037C14.9932 10.1419 15.112 10.4288 15.112 10.728V17.688C15.1136 17.8371 15.0856 17.9851 15.0296 18.1233C14.9736 18.2616 14.8908 18.3874 14.7859 18.4934C14.681 18.5994 14.5561 18.6836 14.4185 18.741C14.2808 18.7984 14.1332 18.828 13.984 18.828H13.972ZM17.956 16.248H17.692C17.3928 16.248 17.1059 16.1291 16.8944 15.9176C16.6829 15.7061 16.564 15.4192 16.564 15.12V13.332C16.5672 13.0349 16.6874 12.7511 16.8986 12.5421C17.1098 12.3332 17.3949 12.216 17.692 12.216H17.956C18.2531 12.216 18.5382 12.3332 18.7494 12.5421C18.9606 12.7511 19.0808 13.0349 19.084 13.332V15.12C19.084 15.4171 18.9668 15.7022 18.7579 15.9134C18.5489 16.1246 18.2651 16.2448 17.968 16.248H17.956Z" fill="#5E6E80"/>
</g>
</svg>
