<svg width="158" height="36" viewBox="0 0 158 36" fill="none" xmlns="http://www.w3.org/2000/svg">
<g opacity="0.7">
<path d="M24.7109 16.0452C24.2561 16.5027 23.9079 17.0549 23.6909 17.6625C23.4739 18.27 23.3936 18.9179 23.4557 19.56L23.4341 19.5384C23.4979 20.2942 23.396 21.0549 23.1355 21.7672C22.8749 22.4796 22.4621 23.1265 21.9258 23.6629C21.3894 24.1992 20.7425 24.6121 20.0301 24.8726C19.3177 25.1331 18.5571 25.235 17.8013 25.1712L17.8229 25.1928C16.9188 25.1086 16.0107 25.3054 15.2225 25.7562C14.4343 26.207 13.8044 26.89 13.4185 27.712C13.0327 28.5339 12.9098 29.4549 13.0665 30.3493C13.2232 31.2436 13.652 32.0679 14.2944 32.7097C14.9367 33.3515 15.7614 33.7795 16.6559 33.9354C17.5504 34.0914 18.4713 33.9676 19.2929 33.581C20.1145 33.1944 20.7969 32.5639 21.247 31.7753C21.6971 30.9867 21.8931 30.0784 21.8081 29.1744L21.8309 29.196C21.7671 28.4402 21.869 27.6795 22.1295 26.9672C22.39 26.2548 22.8029 25.6079 23.3392 25.0715C23.8756 24.5352 24.5225 24.1223 25.2349 23.8618C25.9472 23.6013 26.7079 23.4994 27.4637 23.5632L27.4409 23.5416C28.1794 23.608 28.9228 23.4869 29.6021 23.1896C30.2813 22.8922 30.8746 22.4282 31.3268 21.8405C31.779 21.2528 32.0755 20.5605 32.1889 19.8277C32.3022 19.0949 32.2288 18.3453 31.9754 17.6484C31.7219 16.9516 31.2967 16.33 30.739 15.8412C30.1814 15.3525 29.5094 15.0124 28.7853 14.8525C28.0612 14.6926 27.3085 14.7181 26.5969 14.9266C25.8853 15.1351 25.2378 15.5198 24.7145 16.0452H24.7109Z" fill="#5E6E80"/>
<path d="M15.8585 22.3631L15.8357 22.3415C16.4781 22.4063 17.1268 22.3274 17.735 22.1107C18.3432 21.894 18.8956 21.5448 19.3524 21.0885C19.8091 20.6321 20.1587 20.0799 20.3758 19.4719C20.593 18.8639 20.6723 18.2152 20.6081 17.5727L20.6309 17.5943C20.5671 16.8385 20.669 16.0779 20.9295 15.3655C21.19 14.6531 21.6029 14.0062 22.1392 13.4699C22.6756 12.9335 23.3225 12.5207 24.0349 12.2602C24.7472 11.9997 25.5079 11.8977 26.2637 11.9615L26.2409 11.9399C27.1451 12.0249 28.0534 11.8288 28.8421 11.3785C29.6307 10.9282 30.2613 10.2455 30.6477 9.42368C31.0341 8.60183 31.1576 7.6808 31.0013 6.78619C30.845 5.89158 30.4166 5.06696 29.7744 4.4248C29.1323 3.78263 28.3077 3.3542 27.413 3.19792C26.5184 3.04165 25.5974 3.16514 24.7756 3.55156C23.9537 3.93798 23.2711 4.56852 22.8208 5.35717C22.3705 6.14581 22.1744 7.05417 22.2593 7.95835L22.2377 7.93555C22.3017 8.69141 22.1999 9.45215 21.9395 10.1646C21.6791 10.8771 21.2662 11.5241 20.7298 12.0605C20.1934 12.5969 19.5464 13.0097 18.834 13.2702C18.1215 13.5306 17.3608 13.6324 16.6049 13.5683L16.6265 13.5911C15.9841 13.5264 15.3353 13.6053 14.7272 13.822C14.119 14.0387 13.5665 14.3879 13.1098 14.8442C12.6531 15.3006 12.3035 15.8528 12.0864 16.4608C11.8692 17.0688 11.7898 17.7175 11.8541 18.3599L11.8325 18.3383C11.8961 19.0941 11.794 19.8547 11.5334 20.5669C11.2728 21.2792 10.86 21.9261 10.3237 22.4624C9.7874 22.9987 9.14056 23.4115 8.42829 23.6721C7.71601 23.9327 6.95546 24.0347 6.19969 23.9711L6.22129 23.9927C5.31711 23.9078 4.40875 24.1039 3.62011 24.5542C2.83146 25.0045 2.20093 25.6872 1.8145 26.509C1.42808 27.3309 1.30459 28.2519 1.46086 29.1465C1.61714 30.0411 2.04558 30.8657 2.68774 31.5079C3.3299 32.1501 4.15452 32.5785 5.04913 32.7348C5.94374 32.891 6.86478 32.7676 7.68662 32.3811C8.50846 31.9947 9.1911 31.3642 9.64141 30.5755C10.0917 29.7869 10.2878 28.8785 10.2029 27.9743L10.2257 27.9959C10.1619 27.2401 10.2638 26.4795 10.5243 25.7671C10.7848 25.0547 11.1977 24.4078 11.734 23.8715C12.2704 23.3351 12.9173 22.9223 13.6297 22.6618C14.342 22.4013 15.1027 22.2993 15.8585 22.3631V22.3631Z" fill="#5E6E80"/>
<path d="M7.81611 19.9548C8.27094 19.4973 8.61916 18.9451 8.83593 18.3375C9.0527 17.7299 9.13266 17.082 9.07011 16.44L9.09291 16.4615C9.02906 15.7055 9.13102 14.9446 9.39167 14.2321C9.65232 13.5195 10.0654 12.8725 10.602 12.3361C11.1386 11.7997 11.7859 11.3869 12.4985 11.1266C13.2112 10.8662 13.9721 10.7646 14.7281 10.8287L14.7053 10.8072C15.6092 10.8918 16.5172 10.6956 17.3054 10.2454C18.0937 9.79508 18.7239 9.11261 19.1101 8.29102C19.4963 7.46944 19.6197 6.54873 19.4634 5.65446C19.3071 4.76019 18.8788 3.93588 18.2369 3.29395C17.595 2.65202 16.7707 2.22372 15.8764 2.06745C14.9821 1.91118 14.0614 2.03456 13.2398 2.42075C12.4183 2.80693 11.7358 3.43714 11.2855 4.22542C10.8352 5.0137 10.639 5.92169 10.7237 6.82555L10.7021 6.80395C10.7659 7.55977 10.664 8.32041 10.4035 9.03278C10.143 9.74515 9.73014 10.3921 9.19379 10.9284C8.65744 11.4648 8.01051 11.8776 7.29814 12.1381C6.58577 12.3986 5.82513 12.5006 5.06931 12.4367L5.09091 12.4584C4.3524 12.3921 3.60911 12.5134 2.92994 12.8109C2.25076 13.1084 1.65766 13.5725 1.20561 14.1603C0.753558 14.748 0.457174 15.4403 0.343923 16.1731C0.230673 16.9059 0.30422 17.6554 0.557749 18.3522C0.811279 19.049 1.23659 19.6705 1.79426 20.1592C2.35194 20.6478 3.02394 20.9878 3.74799 21.1476C4.47205 21.3074 5.22472 21.2819 5.93627 21.0734C6.64783 20.8648 7.29524 20.4801 7.81851 19.9548H7.81611Z" fill="#5E6E80"/>
<path d="M44.9885 7.98596H48.5525V25.3296H44.9885V7.98596Z" fill="#5E6E80"/>
<path d="M50.5708 19.3908C50.5659 18.1444 50.9309 16.9246 51.6197 15.8859C52.3085 14.8471 53.2901 14.0362 54.4402 13.5558C55.5903 13.0753 56.8571 12.947 58.0801 13.1871C59.3031 13.4272 60.4274 14.0249 61.3105 14.9045C62.1936 15.784 62.7958 16.9059 63.0408 18.128C63.2858 19.35 63.1625 20.6173 62.6867 21.7693C62.2109 22.9213 61.4039 23.9061 60.3679 24.5991C59.332 25.2921 58.1136 25.662 56.8673 25.662C56.0399 25.6714 55.219 25.5159 54.4524 25.2044C53.6859 24.8929 52.9892 24.4317 52.4029 23.8478C51.8167 23.2639 51.3528 22.569 51.0382 21.8038C50.7236 21.0385 50.5647 20.2182 50.5708 19.3908V19.3908ZM59.5996 19.3908C59.5848 18.8536 59.4119 18.3326 59.1026 17.8931C58.7932 17.4536 58.3612 17.1151 57.8606 16.9197C57.3599 16.7244 56.8127 16.681 56.2875 16.795C55.7623 16.9089 55.2823 17.1752 54.9075 17.5604C54.5328 17.9457 54.28 18.4329 54.1806 18.961C54.0813 19.4892 54.1398 20.035 54.3489 20.5301C54.558 21.0252 54.9085 21.4476 55.3564 21.7446C55.8043 22.0417 56.3298 22.2 56.8673 22.2C57.2353 22.2098 57.6014 22.1433 57.9425 22.0046C58.2836 21.8659 58.5922 21.658 58.8489 21.394C59.1056 21.1301 59.3049 20.8158 59.4341 20.4711C59.5633 20.1263 59.6197 19.7585 59.5996 19.3908V19.3908Z" fill="#5E6E80"/>
<path d="M77.3681 13.4507V24.7307C77.3681 28.7219 74.2553 30.4091 71.0957 30.4091C69.9832 30.4924 68.8693 30.2677 67.8761 29.7597C66.8829 29.2516 66.0488 28.4799 65.4653 27.5291L68.5061 25.7711C68.7513 26.2667 69.1421 26.6756 69.6262 26.943C70.1102 27.2105 70.6643 27.3237 71.2145 27.2675C71.5661 27.3162 71.9241 27.2853 72.2621 27.1769C72.6001 27.0686 72.9095 26.8856 73.1672 26.6416C73.425 26.3975 73.6246 26.0987 73.7512 25.7671C73.8778 25.4355 73.9283 25.0797 73.8989 24.7259V23.6399C73.4815 24.1506 72.9503 24.5563 72.3478 24.8245C71.7454 25.0927 71.0884 25.2159 70.4297 25.1843C68.8622 25.1349 67.3755 24.4775 66.2843 23.3513C65.193 22.225 64.5828 20.7183 64.5828 19.1501C64.5828 17.5819 65.193 16.0752 66.2843 14.949C67.3755 13.8228 68.8622 13.1654 70.4297 13.1159C71.0884 13.0843 71.7454 13.2076 72.3478 13.4758C72.9503 13.744 73.4815 14.1497 73.8989 14.6603V13.4483L77.3681 13.4507ZM73.9001 19.1519C73.924 18.5776 73.7755 18.0092 73.4737 17.5199C73.1719 17.0306 72.7306 16.6429 72.2065 16.4065C71.6825 16.1702 71.0997 16.0961 70.5332 16.1938C69.9667 16.2915 69.4424 16.5565 69.0277 16.9547C68.6131 17.3529 68.3271 17.866 68.2066 18.4281C68.086 18.9902 68.1365 19.5755 68.3514 20.1087C68.5664 20.6419 68.936 21.0986 69.4126 21.4199C69.8893 21.7413 70.4512 21.9126 71.0261 21.9119C71.4005 21.9381 71.7763 21.8855 72.1292 21.7576C72.4821 21.6296 72.8043 21.4292 73.0751 21.1692C73.3458 20.9092 73.5591 20.5954 73.7012 20.2479C73.8433 19.9005 73.911 19.5271 73.9001 19.1519V19.1519Z" fill="#5E6E80"/>
<path d="M79.3864 19.3908C79.3814 18.1444 79.7464 16.9246 80.4353 15.8859C81.1241 14.8471 82.1057 14.0362 83.2558 13.5558C84.4058 13.0753 85.6726 12.947 86.8957 13.1871C88.1187 13.4272 89.243 14.0249 90.126 14.9045C91.0091 15.784 91.6113 16.9059 91.8563 18.128C92.1013 19.35 91.9781 20.6173 91.5023 21.7693C91.0265 22.9213 90.2195 23.9061 89.1835 24.5991C88.1475 25.2921 86.9292 25.662 85.6828 25.662C84.8554 25.6714 84.0345 25.5159 83.268 25.2044C82.5015 24.8929 81.8047 24.4317 81.2185 23.8478C80.6323 23.2639 80.1683 22.569 79.8537 21.8038C79.5392 21.0385 79.3803 20.2182 79.3864 19.3908V19.3908ZM88.4152 19.3908C88.4003 18.8536 88.2274 18.3326 87.9181 17.8931C87.6088 17.4536 87.1768 17.1151 86.6761 16.9197C86.1754 16.7244 85.6282 16.681 85.103 16.795C84.5778 16.9089 84.0978 17.1752 83.7231 17.5604C83.3484 17.9457 83.0955 18.4329 82.9962 18.961C82.8968 19.4892 82.9553 20.035 83.1645 20.5301C83.3736 21.0252 83.724 21.4476 84.1719 21.7446C84.6198 22.0417 85.1454 22.2 85.6828 22.2C86.0509 22.2098 86.417 22.1433 86.758 22.0046C87.0991 21.8659 87.4077 21.658 87.6645 21.394C87.9212 21.1301 88.1204 20.8158 88.2496 20.4711C88.3789 20.1263 88.4352 19.7585 88.4152 19.3908Z" fill="#5E6E80"/>
<path d="M93.6412 10.2672C93.6412 9.84425 93.7667 9.43082 94.0016 9.07916C94.2366 8.7275 94.5706 8.45341 94.9613 8.29156C95.352 8.12971 95.782 8.08736 96.1968 8.16987C96.6116 8.25238 96.9926 8.45605 97.2917 8.75511C97.5908 9.05417 97.7944 9.43519 97.8769 9.85C97.9595 10.2648 97.9171 10.6948 97.7553 11.0855C97.5934 11.4763 97.3193 11.8102 96.9677 12.0452C96.616 12.2802 96.2026 12.4056 95.7796 12.4056C95.2142 12.4 94.6736 12.1729 94.2738 11.773C93.874 11.3732 93.6469 10.8326 93.6412 10.2672V10.2672ZM94.0012 13.4508H97.5664V25.3308H93.9964L94.0012 13.4508Z" fill="#5E6E80"/>
<path d="M112.955 19.3908C112.996 20.176 112.882 20.9615 112.619 21.7023C112.355 22.443 111.948 23.1244 111.42 23.7072C110.892 24.29 110.255 24.7627 109.544 25.0982C108.833 25.4337 108.062 25.6253 107.277 25.662C106.616 25.6981 105.956 25.5867 105.344 25.336C104.732 25.0852 104.183 24.7015 103.738 24.2124V30.0816H100.174V13.4508H103.738V14.5668C104.184 14.0782 104.732 13.6947 105.344 13.4442C105.956 13.1937 106.617 13.0824 107.277 13.1184C108.062 13.155 108.833 13.3465 109.544 13.682C110.255 14.0175 110.893 14.4904 111.421 15.0734C111.949 15.6563 112.356 16.3379 112.619 17.0789C112.883 17.8198 112.997 18.6056 112.955 19.3908V19.3908ZM109.391 19.3908C109.377 18.8348 109.2 18.2953 108.881 17.8398C108.562 17.3842 108.115 17.0329 107.598 16.8298C107.08 16.6266 106.514 16.5807 105.97 16.6978C105.426 16.8148 104.929 17.0896 104.541 17.4878C104.153 17.886 103.89 18.3899 103.787 18.9363C103.684 19.4828 103.744 20.0476 103.96 20.5601C104.176 21.0726 104.538 21.5099 105.002 21.8174C105.465 22.1249 106.009 22.2889 106.565 22.2888C106.947 22.3058 107.328 22.2419 107.684 22.1013C108.039 21.9607 108.361 21.7466 108.627 21.4729C108.894 21.1993 109.1 20.8723 109.232 20.5135C109.364 20.1547 109.418 19.7721 109.391 19.3908V19.3908Z" fill="#5E6E80"/>
<path d="M123.953 21.7656C123.953 24.498 121.578 25.662 119.013 25.662C117.976 25.7559 116.935 25.5367 116.025 25.0327C115.114 24.5287 114.375 23.7631 113.904 22.8348L116.992 21.0768C117.117 21.5059 117.385 21.8791 117.752 22.1342C118.119 22.3893 118.562 22.5108 119.008 22.4784C119.862 22.4784 120.291 22.2168 120.291 21.7428C120.291 20.4348 114.446 21.1248 114.446 17.0148C114.446 14.424 116.632 13.1184 119.103 13.1184C120.032 13.0891 120.951 13.3094 121.766 13.7564C122.581 14.2034 123.261 14.8608 123.735 15.66L120.694 17.2992C120.561 16.9881 120.339 16.723 120.056 16.5372C119.773 16.3513 119.441 16.2528 119.103 16.254C118.485 16.254 118.104 16.494 118.104 16.9188C118.109 18.2736 123.953 17.37 123.953 21.7656Z" fill="#5E6E80"/>
<path d="M136.972 13.4508V25.3308H133.408V24.2136C132.997 24.7066 132.475 25.095 131.884 25.347C131.294 25.599 130.652 25.7074 130.012 25.6632C127.612 25.6632 125.572 23.9532 125.572 20.7432V13.4508H129.136V20.2212C129.106 20.5042 129.138 20.7902 129.23 21.0594C129.322 21.3287 129.472 21.5746 129.669 21.7802C129.865 21.9858 130.104 22.1461 130.369 22.2498C130.634 22.3536 130.918 22.3985 131.202 22.3812C132.509 22.3812 133.412 21.6216 133.412 19.9344V13.4544L136.972 13.4508Z" fill="#5E6E80"/>
<path d="M157.408 18.036V25.3296H153.844V18.3444C153.844 17.1564 153.274 16.3968 152.134 16.3968C150.946 16.3968 150.28 17.2284 150.28 18.63V25.3296H146.717V18.3444C146.717 17.1564 146.147 16.3968 145.006 16.3968C143.818 16.3968 143.153 17.2284 143.153 18.63V25.3296H139.589V13.4496H143.153V14.5416C143.523 14.0571 144.008 13.6729 144.564 13.4241C145.12 13.1753 145.729 13.0697 146.337 13.1172C146.947 13.0873 147.554 13.216 148.099 13.4907C148.644 13.7653 149.109 14.1766 149.448 14.6844C149.843 14.1531 150.367 13.7308 150.969 13.4567C151.572 13.1826 152.234 13.0658 152.894 13.1172C155.621 13.1184 157.408 15.066 157.408 18.036Z" fill="#5E6E80"/>
</g>
</svg>
