<svg width="154" height="36" viewBox="0 0 154 36" fill="none" xmlns="http://www.w3.org/2000/svg">
<g opacity="0.7">
<path d="M44.148 11.1119H48V26.7119H44.148V11.1119ZM49.536 20.8439C49.536 16.9799 51.936 14.6639 55.536 14.6639C59.136 14.6639 61.536 16.9799 61.536 20.8439C61.536 24.7079 59.22 27.0479 55.536 27.0479C51.852 27.0479 49.536 24.7919 49.536 20.8439ZM57.72 20.8439C57.72 18.7199 56.892 17.4719 55.572 17.4719C54.252 17.4719 53.436 18.6719 53.436 20.8439C53.436 23.0159 54.252 24.2039 55.572 24.2039C56.892 24.2039 57.744 23.0159 57.744 20.8559L57.72 20.8439ZM63.072 27.5159H66.792C66.9614 27.9164 67.2571 28.2505 67.6341 28.4672C68.0111 28.6839 68.4487 28.7712 68.88 28.7159C70.356 28.7159 71.124 27.9239 71.124 26.7479V24.5879H71.136C70.8181 25.2605 70.3041 25.8211 69.6615 26.196C69.0189 26.5708 68.2779 26.7423 67.536 26.6879C64.716 26.6879 62.844 24.5399 62.844 20.8439C62.844 17.1479 64.632 14.8439 67.644 14.8439C68.4049 14.8032 69.1598 14.9995 69.8045 15.4057C70.4493 15.8119 70.9522 16.408 71.244 17.1119H71.136V14.9399H74.952V26.6279C74.952 29.4479 72.456 31.2119 68.784 31.2119C65.448 31.1999 63.312 29.6759 63.096 27.5279L63.072 27.5159ZM71.136 20.8439C71.136 18.9599 70.272 17.7719 68.904 17.7719C67.536 17.7719 66.696 18.9719 66.696 20.8439C66.696 22.7159 67.524 23.8199 68.904 23.8199C70.284 23.8199 71.136 22.7999 71.136 20.8439ZM76.476 20.8439C76.476 16.9799 78.876 14.6639 82.476 14.6639C86.076 14.6639 88.476 16.9799 88.476 20.8439C88.476 24.7079 86.148 27.0479 82.476 27.0479C78.804 27.0479 76.5 24.7919 76.5 20.8439H76.476ZM84.66 20.8439C84.66 18.7199 83.82 17.4719 82.512 17.4719C81.204 17.4719 80.376 18.6719 80.376 20.8439C80.376 23.0159 81.192 24.2039 82.512 24.2039C83.832 24.2039 84.684 23.0159 84.684 20.8559L84.66 20.8439ZM90.036 12.0959C90.0192 11.7036 90.1203 11.3151 90.3261 10.9807C90.5319 10.6462 90.8331 10.3809 91.1909 10.219C91.5487 10.0571 91.9467 10.0059 92.3339 10.0721C92.721 10.1383 93.0794 10.3188 93.3631 10.5904C93.6468 10.8619 93.8428 11.2122 93.9258 11.5961C94.0088 11.9799 93.975 12.3798 93.8288 12.7444C93.6827 13.1089 93.4308 13.4213 93.1056 13.6415C92.7804 13.8617 92.3967 13.9796 92.004 13.9799C91.753 13.9863 91.5033 13.9428 91.2692 13.8519C91.0352 13.7609 90.8216 13.6244 90.6407 13.4503C90.4599 13.2761 90.3154 13.0678 90.2157 12.8374C90.116 12.6069 90.0631 12.359 90.06 12.1079L90.036 12.0959ZM90.036 14.9279H93.936V26.7599H90.096L90.036 14.9279ZM107.964 20.8439C107.964 24.6959 106.236 26.9279 103.296 26.9279C102.543 26.9744 101.795 26.7887 101.151 26.396C100.507 26.0033 99.9992 25.4224 99.696 24.7319H99.624V30.5639H95.772V14.9639H99.6V17.0759H99.672C99.9648 16.3719 100.468 15.7752 101.112 15.3672C101.756 14.9592 102.51 14.7597 103.272 14.7959C106.296 14.7719 108.036 16.9919 108.036 20.8559L107.964 20.8439ZM104.04 20.8439C104.04 18.9719 103.164 17.7599 101.808 17.7599C100.452 17.7599 99.6 18.9599 99.588 20.8439C99.576 22.7279 100.452 23.9159 101.808 23.9159C103.164 23.9159 104.112 22.7999 104.112 20.8559L104.04 20.8439ZM114.54 14.6519C117.768 14.6519 119.772 16.1759 119.796 18.6239H116.28C116.28 17.7719 115.572 17.2439 114.516 17.2439C113.46 17.2439 112.956 17.6519 112.956 18.2639C112.956 18.8759 113.4 19.0679 114.288 19.2479L116.76 19.7519C119.16 20.2559 120.12 21.2159 120.12 23.0039C120.12 25.4039 117.9 27.0359 114.6 27.0359C111.3 27.0359 109.152 25.4519 108.996 23.0399H112.728C112.836 23.9159 113.532 24.4319 114.66 24.4319C115.788 24.4319 116.316 24.0719 116.316 23.4359C116.316 22.7999 115.956 22.6919 115.032 22.4999L112.8 22.0319C110.484 21.5399 109.272 20.3279 109.272 18.5159C109.344 16.1639 111.36 14.6639 114.612 14.6639L114.54 14.6519ZM133.02 26.7479H129.288V24.5279H129.216C129.007 25.2684 128.552 25.9156 127.926 26.3628C127.3 26.81 126.54 27.0305 125.772 26.9879C125.192 27.0068 124.615 26.9029 124.078 26.6828C123.541 26.4628 123.056 26.1318 122.656 25.7113C122.256 25.2909 121.95 24.7907 121.757 24.2434C121.563 23.6962 121.488 23.1143 121.536 22.5359V14.9399H125.388V21.7079C125.388 23.0999 126.12 23.8559 127.32 23.8559C127.602 23.8538 127.879 23.7913 128.135 23.6727C128.39 23.554 128.617 23.3819 128.8 23.1681C128.983 22.9543 129.118 22.7036 129.196 22.4331C129.274 22.1626 129.293 21.8785 129.252 21.5999V14.9399H133.092L133.02 26.7479ZM134.88 14.9279H138.624V17.2079H138.708C138.915 16.4776 139.358 15.8364 139.968 15.3847C140.578 14.9331 141.321 14.6965 142.08 14.7119C142.842 14.6457 143.601 14.866 144.209 15.3299C144.817 15.7937 145.23 16.4676 145.368 17.2199H145.536C145.776 16.4636 146.259 15.8077 146.91 15.3542C147.561 14.9006 148.343 14.6748 149.136 14.7119C149.663 14.6919 150.188 14.7833 150.677 14.9802C151.166 15.1771 151.608 15.4751 151.974 15.8545C152.34 16.234 152.621 16.6865 152.8 17.1824C152.979 17.6782 153.051 18.2063 153.012 18.7319V26.7599H149.136V19.7159C149.136 18.5159 148.572 17.8439 147.48 17.8439C147.238 17.84 146.998 17.8884 146.776 17.986C146.554 18.0835 146.356 18.2278 146.195 18.4091C146.035 18.5903 145.915 18.8041 145.845 19.0359C145.774 19.2677 145.755 19.512 145.788 19.7519V26.7599H142.116V19.6799C142.116 18.4799 141.528 17.8439 140.472 17.8439C140.227 17.842 139.985 17.8924 139.761 17.9918C139.538 18.0913 139.338 18.2374 139.175 18.4203C139.013 18.6033 138.891 18.819 138.819 19.0528C138.747 19.2866 138.725 19.5332 138.756 19.7759V26.7599H134.904L134.88 14.9279Z" fill="#5E6E80"/>
<path d="M36.528 12.132C36.5281 9.7436 35.8069 7.41088 34.4588 5.43935C33.1107 3.46781 31.1986 1.9494 28.9729 1.083C26.7472 0.21659 24.3118 0.0425871 21.9855 0.583778C19.6593 1.12497 17.5507 2.35612 15.936 4.11597H0.960022V35.724H32.58V20.952C33.8211 19.8419 34.8142 18.4827 35.4944 16.9629C36.1747 15.4432 36.5269 13.797 36.528 12.132V12.132ZM30.444 12.132C30.4464 13.2764 30.1092 14.3959 29.4751 15.3487C28.841 16.3014 27.9385 17.0446 26.8818 17.4842C25.8251 17.9239 24.6618 18.0401 23.539 17.8183C22.4162 17.5965 21.3845 17.0465 20.5744 16.2381C19.7643 15.4297 19.2122 14.3991 18.988 13.2768C18.7639 12.1545 18.8777 10.9909 19.3152 9.93331C19.7526 8.87572 20.4939 7.97167 21.4454 7.33559C22.3968 6.6995 23.5155 6.35997 24.66 6.35997C26.192 6.35996 27.6613 6.9677 28.7457 8.04982C29.8301 9.13193 30.4408 10.6 30.444 12.132V12.132ZM26.496 29.64H7.04402V10.2H12.972C12.8575 10.8377 12.7973 11.484 12.792 12.132C12.7952 15.2786 14.0466 18.2954 16.2716 20.5204C18.4966 22.7454 21.5134 23.9968 24.66 24C25.2752 23.9967 25.8891 23.9446 26.496 23.844V29.64Z" fill="#5E6E80"/>
</g>
</svg>
