<svg width="144" height="144" viewBox="0 0 144 144" fill="none" xmlns="http://www.w3.org/2000/svg">
<mask id="mask0" mask-type="alpha" maskUnits="userSpaceOnUse" x="0" y="0" width="144" height="144">
<path fill-rule="evenodd" clip-rule="evenodd" d="M0.390671 0.390671H143.609V143.609H0.390671V0.390671Z" fill="#FFCF6E"/>
</mask>
<g mask="url(#mask0)">
<path fill-rule="evenodd" clip-rule="evenodd" d="M0.390671 0.390671H143.609V143.609H0.390671V0.390671Z" fill="#FFCF6E"/>
<path d="M95.2719 118.366V101.055H50.7596V118.366L73.0157 138.149L95.2719 118.366Z" fill="#FFE4BA"/>
<path fill-rule="evenodd" clip-rule="evenodd" d="M135.34 130.167C128.353 137.708 118.512 142.557 107.445 143.089C96.6737 143.607 84.4141 144 71.9966 144C59.5791 144 47.3195 143.607 36.5487 143.089C26.1151 142.587 16.7725 138.249 9.88271 131.437C11.1887 128.991 13.5016 127.133 16.3451 126.464L46.9456 119.264C47.8149 119.059 48.5802 118.628 49.1968 118.047L73.0148 133.204L97.7994 118.746C98.1972 118.97 98.6222 119.155 99.0844 119.264L129.685 126.464C132.012 127.011 133.984 128.356 135.34 130.167Z" fill="#81E3F0"/>
<path d="M50.7596 101.056V119.319C78.7963 129.421 95.2719 104.139 95.2719 104.139V101.055H50.7596V101.056Z" fill="#F7C894"/>
<path d="M40.8675 44.1782L43.0224 91.5876C43.2236 96.0165 45.3953 100.124 48.942 102.784L59.1669 110.453C61.7353 112.379 64.8589 113.42 68.0694 113.42H77.9612C81.1717 113.42 84.2954 112.379 86.8638 110.453L97.0887 102.784C100.635 100.123 102.807 96.0168 103.008 91.5876L105.163 44.1782C105.163 44.1782 40.8675 44.1782 40.8675 44.1782Z" fill="#FFE4BA"/>
<path fill-rule="evenodd" clip-rule="evenodd" d="M78.0559 143.97C76.0443 143.989 74.0227 144 71.9969 144C70.6532 144 69.3113 143.995 67.9729 143.986L68.3782 138.15H77.6517L78.0559 143.97Z" fill="#5B5D6E"/>
<path d="M79.1971 133.204H66.8325V137.858C66.8325 139.385 68.0702 140.623 69.5973 140.623H76.4321C77.9592 140.623 79.1969 139.385 79.1969 137.858V133.204H79.1971Z" fill="#515262"/>
<path d="M50.4113 112.86L73.0148 133.203C73.0148 133.203 66.6846 136.399 58.8729 142.84C57.2615 144.168 54.8239 143.63 53.9597 141.729L43.34 118.366L46.6996 113.327C47.5356 112.072 49.2904 111.851 50.4113 112.86Z" fill="white"/>
<path d="M95.6196 112.86L73.0161 133.203C73.0161 133.203 79.3463 136.399 87.158 142.84C88.7694 144.168 91.207 143.63 92.0713 141.729L102.691 118.366L99.3313 113.327C98.4951 112.072 96.7402 111.851 95.6196 112.86Z" fill="white"/>
<path d="M88.0078 27.7952L90.326 44.1784C100.909 46.295 102.434 62.9029 102.653 67.6464C102.693 68.5073 102.968 69.3385 103.435 70.0627L107.473 76.3263C107.473 76.3263 106.091 65.9708 112.419 59.0158C112.419 59.0158 114.592 17.9034 88.0078 27.7952Z" fill="#4E1E30"/>
<path d="M109.954 75.2712L107.162 86.4383C106.831 87.7621 105.642 88.6902 104.278 88.6902C102.778 88.6902 101.513 87.5738 101.327 86.0859L99.8994 74.6642C99.5173 71.6069 101.901 68.9068 104.982 68.9068H104.984C108.317 68.9071 110.762 72.0383 109.954 75.2712Z" fill="#FFE4BA"/>
<path d="M43.2368 23.3644L46.8945 25.8631C30.357 38.0732 33.4479 59.0159 33.4479 59.0159C38.3936 63.9616 38.3936 76.3264 38.3936 76.3264L43.3394 71.3806C43.3394 71.3806 41.4307 57.0935 50.758 51.5972C59.4132 46.4968 66.9865 49.1243 74.7144 49.1243C95.425 49.1243 101.221 41.319 100.216 31.8138C99.6964 26.8954 92.1766 16.6503 73.0144 16.9761C65.2812 17.1075 50.7586 19.449 43.2368 23.3644Z" fill="#66273F"/>
<path d="M41.7941 46.9601C41.7941 46.9601 39.1665 36.6046 46.8945 25.8631C30.357 38.0732 33.4479 59.0159 33.4479 59.0159C38.3936 63.9617 38.3936 76.3264 38.3936 76.3264L43.3394 71.3806C43.3394 71.3806 41.4307 57.0935 50.758 51.5972C59.4132 46.4968 66.9865 49.1243 74.7144 49.1243C78.0826 49.1243 81.0178 48.8988 83.6321 48.5122C67.6827 49.0467 58.2806 36.9652 41.7941 46.9601Z" fill="#4E1E30"/>
<path d="M36.0788 75.2712L38.8704 86.4383C39.2013 87.7621 40.3903 88.6902 41.7549 88.6902C43.2545 88.6902 44.5191 87.5738 44.7051 86.0859L46.133 74.6642C46.5152 71.6069 44.1316 68.9068 41.0506 68.9068H41.0483C37.7157 68.9071 35.2705 72.0383 36.0788 75.2712Z" fill="#FFE4BA"/>
</g>
</svg>
