<svg width="117" height="36" viewBox="0 0 117 36" fill="none" xmlns="http://www.w3.org/2000/svg">
<path d="M0 18.0161C0 8.07496 8.05887 0 18 0H23.9571C30.5727 0 35.9357 5.36299 35.9357 11.9786V18.0321C35.9357 27.9555 27.8912 36 17.9679 36V36C8.04448 36 0 27.9395 0 18.0161V18.0161Z" fill="url(#paint0_linear)"/>
<path d="M21.7909 10.2141C22.0057 10.2141 22.2132 10.2512 22.4132 10.3254C22.6132 10.3997 22.7873 10.4999 22.9355 10.626C23.0911 10.7522 23.2133 10.9043 23.3022 11.0825C23.3911 11.2532 23.4356 11.4387 23.4356 11.6391C23.4356 11.7356 23.4282 11.8284 23.4134 11.9174C23.4059 11.9991 23.3948 12.0733 23.38 12.1401C23.3578 12.2217 23.3393 12.2922 23.3244 12.3516C22.8207 14.3333 22.2946 16.3557 21.7464 18.419C21.1982 20.4749 20.6722 22.4899 20.1684 24.4641C20.0572 24.7165 19.9091 24.9391 19.7239 25.1321C19.5683 25.3028 19.3645 25.4586 19.1126 25.5997C18.8682 25.7333 18.5607 25.8 18.1903 25.8H17.8347C17.4642 25.8 17.1531 25.7333 16.9012 25.5997C16.6493 25.4586 16.4455 25.3028 16.29 25.1321C16.1047 24.9391 15.9603 24.7165 15.8566 24.4641L12.7005 12.3516C12.6783 12.2922 12.6597 12.2217 12.6449 12.1401C12.6079 11.9917 12.5894 11.8247 12.5894 11.6391C12.5894 11.4387 12.6301 11.2532 12.7116 11.0825C12.8005 10.9043 12.919 10.7522 13.0672 10.626C13.2154 10.4999 13.3895 10.3997 13.5895 10.3254C13.7896 10.2512 14.0044 10.2141 14.2341 10.2141C14.5897 10.2141 14.8749 10.292 15.0898 10.4479C15.312 10.6038 15.4861 10.7782 15.6121 10.9711C15.7528 11.1938 15.8566 11.4461 15.9232 11.7282C16.0121 12.0844 16.1085 12.4889 16.2122 12.9417C16.3159 13.387 16.4196 13.8508 16.5233 14.3333C16.6271 14.8157 16.7308 15.3092 16.8345 15.8139C16.9456 16.3112 17.0493 16.7936 17.1457 17.2612C17.3753 18.3596 17.605 19.484 17.8347 20.6344H18.1903C18.4422 19.484 18.6867 18.3596 18.9237 17.2612C19.02 16.7936 19.1201 16.3112 19.2238 15.8139C19.3349 15.3092 19.4423 14.8157 19.5461 14.3333C19.6498 13.8508 19.7498 13.387 19.8461 12.9417C19.9424 12.4889 20.0276 12.0844 20.1017 11.7282C20.1758 11.4461 20.2832 11.1938 20.424 10.9711C20.5499 10.7782 20.7203 10.6038 20.9352 10.4479C21.15 10.292 21.4352 10.2141 21.7909 10.2141Z" fill="white"/>
<path d="M46.9258 7.42004H51.268V24.22H62.3482V28H46.9258V7.42004Z" fill="#44566C"/>
<path d="M72.3601 28.36C69.6649 28.36 67.6585 27.69 66.3409 26.35C65.0233 25.01 64.3644 22.93 64.3644 20.11C64.3644 17.29 65.0233 15.21 66.3409 13.87C67.6585 12.53 69.6649 11.86 72.3601 11.86C75.0553 11.86 77.0617 12.53 78.3794 13.87C79.717 15.21 80.3858 17.29 80.3858 20.11C80.3858 22.93 79.717 25.01 78.3794 26.35C77.0617 27.69 75.0553 28.36 72.3601 28.36ZM72.3601 25C73.6977 25 74.666 24.62 75.2649 23.86C75.8639 23.08 76.1633 21.91 76.1633 20.35V19.87C76.1633 18.31 75.8639 17.15 75.2649 16.39C74.666 15.61 73.6977 15.22 72.3601 15.22C71.0225 15.22 70.0543 15.61 69.4553 16.39C68.8764 17.15 68.5869 18.31 68.5869 19.87V20.35C68.5869 21.91 68.8764 23.08 69.4553 23.86C70.0543 24.62 71.0225 25 72.3601 25Z" fill="#44566C"/>
<path d="M86.1753 33.46C85.0772 33.46 84.1489 33.12 83.3902 32.44C82.6316 31.76 82.2523 30.89 82.2523 29.83C82.2523 28.43 83.0608 27.36 84.6779 26.62C83.6598 26.1 83.1507 25.31 83.1507 24.25C83.1507 23.59 83.4102 23.02 83.9293 22.54C84.4483 22.04 85.1172 21.69 85.9357 21.49C84.3984 20.55 83.6298 19.13 83.6298 17.23C83.6298 15.57 84.2287 14.26 85.4266 13.3C86.6444 12.34 88.3713 11.86 90.6073 11.86C91.8252 11.86 92.8833 12.01 93.7817 12.31C94.3806 11.93 94.8098 11.48 95.0693 10.96C95.3488 10.42 95.4886 9.96004 95.4886 9.58004H99.5014C99.5014 10.68 99.202 11.57 98.603 12.25C98.0241 12.91 97.1955 13.36 96.1175 13.6C97.1157 14.54 97.6148 15.75 97.6148 17.23C97.6148 18.89 97.0258 20.2 95.848 21.16C94.69 22.12 93.023 22.6 90.8469 22.6H88.4512C88.0918 22.6 87.8023 22.68 87.5827 22.84C87.3831 23 87.2833 23.22 87.2833 23.5C87.2833 23.74 87.3731 23.95 87.5528 24.13C87.7325 24.29 87.972 24.37 88.2715 24.37H95.4287C96.5866 24.37 97.5549 24.76 98.3335 25.54C99.1121 26.32 99.5014 27.34 99.5014 28.6C99.5014 29.56 99.2419 30.41 98.7228 31.15C98.2037 31.89 97.495 32.46 96.5966 32.86C95.6982 33.26 94.71 33.46 93.6319 33.46H86.1753ZM90.6073 19.81C91.5656 19.81 92.2943 19.59 92.7934 19.15C93.2925 18.69 93.5421 18.05 93.5421 17.23C93.5421 16.41 93.2925 15.78 92.7934 15.34C92.2943 14.88 91.5656 14.65 90.6073 14.65C89.649 14.65 88.9203 14.88 88.4212 15.34C87.9421 15.78 87.7025 16.41 87.7025 17.23C87.7025 18.05 87.9421 18.69 88.4212 19.15C88.9203 19.59 89.649 19.81 90.6073 19.81ZM93.572 30.61C94.0911 30.61 94.5203 30.48 94.8597 30.22C95.1991 29.96 95.3688 29.62 95.3688 29.2C95.3688 28.76 95.2091 28.42 94.8897 28.18C94.5902 27.94 94.2109 27.82 93.7517 27.82H87.972C87.5328 27.82 87.1535 27.95 86.8341 28.21C86.5346 28.47 86.3849 28.8 86.3849 29.2C86.3849 29.62 86.5346 29.96 86.8341 30.22C87.1335 30.48 87.5129 30.61 87.972 30.61H93.572Z" fill="#44566C"/>
<path d="M108.974 28.36C106.279 28.36 104.273 27.69 102.955 26.35C101.637 25.01 100.979 22.93 100.979 20.11C100.979 17.29 101.637 15.21 102.955 13.87C104.273 12.53 106.279 11.86 108.974 11.86C111.669 11.86 113.676 12.53 114.994 13.87C116.331 15.21 117 17.29 117 20.11C117 22.93 116.331 25.01 114.994 26.35C113.676 27.69 111.669 28.36 108.974 28.36ZM108.974 25C110.312 25 111.28 24.62 111.879 23.86C112.478 23.08 112.778 21.91 112.778 20.35V19.87C112.778 18.31 112.478 17.15 111.879 16.39C111.28 15.61 110.312 15.22 108.974 15.22C107.637 15.22 106.668 15.61 106.07 16.39C105.491 17.15 105.201 18.31 105.201 19.87V20.35C105.201 21.91 105.491 23.08 106.07 23.86C106.668 24.62 107.637 25 108.974 25Z" fill="#44566C"/>
<defs>
<linearGradient id="paint0_linear" x1="31.3454" y1="36" x2="0.916481" y2="33.8782" gradientUnits="userSpaceOnUse">
<stop stop-color="#0045FF"/>
<stop offset="1" stop-color="#0081FF"/>
</linearGradient>
</defs>
</svg>
