<svg width="40" height="40" viewBox="0 0 40 40" fill="none" xmlns="http://www.w3.org/2000/svg">
<path d="M35.3998 28.2549C35.1804 28.1637 34.9279 28.2141 34.76 28.3825L28.3439 34.8193C28.176 34.9878 28.1257 35.2411 28.2167 35.4612C28.3075 35.6814 28.5217 35.8248 28.7591 35.8248H35.1752C35.4995 35.8248 35.7623 35.5611 35.7623 35.2358V28.799C35.7622 28.5609 35.6192 28.3461 35.3998 28.2549V28.2549ZM30.1763 34.6469L34.5879 30.221V34.6469H30.1763Z" fill="#0045FF"/>
<path d="M39.6377 18.814C39.4183 18.7228 39.1658 18.7732 38.9978 18.9416L37.2394 20.7057V8.71161C37.2394 8.38628 36.9766 8.12261 36.6523 8.12261H32.1413L33.7788 6.47985C33.7791 6.47962 33.7793 6.47929 33.7795 6.47906L35.3573 4.89617C35.6954 4.55704 35.8816 4.10591 35.8816 3.62624C35.8816 3.14658 35.6954 2.6956 35.3573 2.35631L33.5328 0.525906C33.1948 0.186771 32.7451 0 32.2669 0C31.7888 0 31.3392 0.186771 31.0011 0.525906L29.4225 2.10958L27.515 4.02322L23.4288 8.12254H5.2047V2.29564C5.2047 1.9703 4.94181 1.70665 4.61759 1.70665C2.07149 1.70681 0 3.7848 0 6.33924V31.3559C0 31.3994 0.00500001 31.4417 0.0139063 31.4825C0.0950002 32.5664 0.562423 33.5734 1.3436 34.3379C2.1786 35.1549 3.28087 35.6048 4.44743 35.6048H22.3879L19.0091 38.9946C18.8412 39.163 18.791 39.4162 18.8818 39.6364C18.9727 39.8565 19.1868 40 19.4243 40H39.413C39.7372 40 40.0001 39.7364 40.0001 39.411V19.3582C40.0001 19.12 39.857 18.9052 39.6377 18.814V18.814ZM31.8315 1.35897C32.0715 1.11804 32.4626 1.11804 32.7026 1.35897L34.5272 3.18945C34.7673 3.4303 34.7673 3.82242 34.5272 4.06335L33.3638 5.23053L30.668 2.52615L31.8315 1.35897V1.35897ZM29.8377 3.35913L32.5334 6.06343L31.4562 7.14417L28.7606 4.43987L29.8377 3.35913V3.35913ZM38.826 25.9764H37.7428C37.4185 25.9764 37.1557 26.2401 37.1557 26.5654C37.1557 26.8908 37.4185 27.1544 37.7428 27.1544H38.826V28.9293H37.7428C37.4185 28.9293 37.1557 29.1931 37.1557 29.5184C37.1557 29.8437 37.4185 30.1074 37.7428 30.1074H38.826V31.8822H37.7428C37.4185 31.8822 37.1557 32.1458 37.1557 32.4712C37.1557 32.7965 37.4185 33.0602 37.7428 33.0602H38.826V34.8351H37.7428C37.4185 34.8351 37.1557 35.0988 37.1557 35.4241C37.1557 35.7495 37.4185 36.0131 37.7428 36.0131H38.826V38.8222H20.8416L26.7719 32.873C27.0012 32.6428 27.0012 32.27 26.7719 32.04C26.7456 32.0135 26.7173 31.9906 26.6877 31.9703C26.4591 31.8133 26.1446 31.8363 25.9415 32.04L23.5622 34.427H4.44751C2.66688 34.427 1.23344 33.0324 1.17703 31.2493C1.18039 31.1373 1.18906 31.0263 1.20297 30.9166C1.20305 30.916 1.20313 30.9154 1.20321 30.9147C1.20977 30.8626 1.21766 30.8107 1.22664 30.7592C1.22766 30.7533 1.22875 30.7473 1.22977 30.7415C1.23797 30.6955 1.24719 30.6497 1.25727 30.6041C1.26008 30.5914 1.26305 30.5787 1.26602 30.5661C1.27492 30.5275 1.28453 30.4892 1.29485 30.451C1.30047 30.4303 1.30633 30.4099 1.31235 30.3893C1.32094 30.3593 1.32985 30.3295 1.3393 30.2999C1.34875 30.2704 1.35883 30.2411 1.36907 30.2119C1.37617 30.1915 1.38321 30.171 1.39086 30.1507C1.40516 30.1121 1.42032 30.074 1.43594 30.0361C1.44039 30.0252 1.44477 30.0142 1.44938 30.0033C1.46946 29.9562 1.49032 29.9098 1.51235 29.8638C1.51328 29.8619 1.51414 29.8599 1.51508 29.858C1.9743 28.9046 2.85751 28.1938 3.91743 27.9732C3.9204 27.9726 3.92337 27.9719 3.92634 27.9712C3.97493 27.9613 4.02399 27.9528 4.07337 27.9449C4.08157 27.9436 4.08977 27.9418 4.09813 27.9406C4.14274 27.9338 4.18782 27.9285 4.2329 27.9234C4.24556 27.922 4.25813 27.92 4.27087 27.9188C4.31438 27.9144 4.35829 27.9115 4.4022 27.9087C4.4161 27.9078 4.43001 27.9064 4.44392 27.9057C4.50142 27.9028 4.55938 27.9013 4.61759 27.9013C4.94181 27.9013 5.2047 27.6377 5.2047 27.3123V23.0416C5.2047 22.7163 4.94181 22.4527 4.61759 22.4527C4.29337 22.4527 4.03048 22.7163 4.03048 23.0416V26.7604C3.03907 26.8862 2.11883 27.3298 1.39321 28.0407C1.31688 28.1154 1.24453 28.1932 1.17406 28.2722V6.33924C1.17406 4.63526 2.41047 3.21531 4.0304 2.93488V20.6858C4.0304 21.011 4.29329 21.2748 4.61751 21.2748C4.94173 21.2748 5.20462 21.011 5.20462 20.6858V9.30061H22.2547L19.009 12.5567C18.7797 12.7868 18.7797 13.1597 19.009 13.3897C19.2383 13.6196 19.61 13.6196 19.8393 13.3897L24.0872 9.12811C24.0873 9.12796 24.0874 9.1278 24.0875 9.12772L27.9301 5.27278L30.6257 7.97715L30.3094 8.29441C30.3092 8.29465 30.3089 8.29488 30.3087 8.29513L18.4705 20.1715L15.7749 17.4672L18.1083 15.1263C18.3376 14.8961 18.3376 14.5233 18.1083 14.2933C17.879 14.0634 17.5073 14.0634 17.2781 14.2933L14.5294 17.0507C14.5147 17.0655 14.501 17.081 14.4881 17.097C14.4838 17.1024 14.48 17.1081 14.4759 17.1136C14.4676 17.1247 14.4595 17.1358 14.4519 17.1474C14.4476 17.1542 14.4437 17.1611 14.4396 17.168C14.4332 17.179 14.4269 17.1902 14.4212 17.2015C14.4175 17.2088 14.4141 17.2164 14.4107 17.224C14.4054 17.2355 14.4006 17.2473 14.3961 17.259C14.3946 17.2632 14.3925 17.2671 14.391 17.2712L13.2472 20.522L12.4674 22.7384C12.4571 22.7678 12.4496 22.7978 12.4441 22.828H10.4916C10.1674 22.828 9.90447 23.0916 9.90447 23.4169C9.90447 23.7423 10.1674 24.0059 10.4916 24.0059H26.7505C27.0748 24.0059 27.3376 23.7423 27.3376 23.4169C27.3376 23.0916 27.0748 22.828 26.7505 22.828H15.0854L18.6659 21.5599C18.6689 21.5589 18.6717 21.5574 18.6746 21.5563C18.6886 21.5511 18.7022 21.5452 18.7157 21.5391C18.7211 21.5366 18.7265 21.5342 18.7318 21.5316C18.7458 21.5246 18.7596 21.5169 18.7732 21.5085C18.7776 21.5058 18.7821 21.5034 18.7864 21.5007C18.8006 21.4916 18.8143 21.4816 18.8279 21.4711C18.8312 21.4686 18.8347 21.4663 18.838 21.4636C18.8543 21.4504 18.8703 21.4363 18.8855 21.421L30.9671 9.30069H36.0652V21.8837L27.667 30.3089C27.4377 30.5391 27.4377 30.9119 27.667 31.1419C27.6813 31.1563 27.6962 31.1698 27.7116 31.1823C27.8193 31.2704 27.9508 31.3145 28.0822 31.3145C28.2136 31.3145 28.3451 31.2704 28.4527 31.1823C28.4681 31.1698 28.483 31.1563 28.4973 31.1419L28.4976 31.1417L38.826 20.7799V25.9764ZM17.3967 20.76L15.715 21.3556L14.5945 20.2315L15.1882 18.5444L17.3967 20.76Z" fill="#0045FF"/>
<path fill-rule="evenodd" clip-rule="evenodd" d="M39.6377 18.814C39.4183 18.7228 39.1658 18.7732 38.9978 18.9416L37.2394 20.7057V8.71161C37.2394 8.38628 36.9766 8.12261 36.6523 8.12261H32.1413L33.7788 6.47985L33.7795 6.47906L35.3573 4.89617C35.6954 4.55704 35.8816 4.10591 35.8816 3.62624C35.8816 3.14658 35.6954 2.6956 35.3573 2.35631L33.5328 0.525906C33.1948 0.186771 32.7451 0 32.2669 0C31.7888 0 31.3392 0.186771 31.0011 0.525906L29.4225 2.10958L27.515 4.02322L23.4288 8.12254H5.2047V2.29564C5.2047 1.9703 4.94181 1.70665 4.61759 1.70665C2.07149 1.70681 0 3.7848 0 6.33924V31.3559C0 31.3994 0.00500001 31.4417 0.0139063 31.4825C0.0950002 32.5664 0.562423 33.5734 1.3436 34.3379C2.1786 35.1549 3.28087 35.6048 4.44743 35.6048H22.3879L19.0091 38.9946C18.8412 39.163 18.791 39.4162 18.8818 39.6364C18.9727 39.8565 19.1868 40 19.4243 40H39.413C39.7372 40 40.0001 39.7364 40.0001 39.411V19.3582C40.0001 19.12 39.857 18.9052 39.6377 18.814ZM31.8315 1.35897C32.0715 1.11804 32.4626 1.11804 32.7026 1.35897L34.5272 3.18945C34.7673 3.4303 34.7673 3.82242 34.5272 4.06335L33.3638 5.23053L30.668 2.52615L31.8315 1.35897ZM29.8377 3.35913L32.5334 6.06343L31.4562 7.14417L28.7606 4.43987L29.8377 3.35913ZM17.3967 20.76L15.715 21.3556L14.5945 20.2315L15.1882 18.5444L17.3967 20.76ZM34.8293 29.1707L29.1707 34.8293C29.1077 34.8923 29.1523 35 29.2414 35H35V29.2414C35 29.1523 34.8923 29.1077 34.8293 29.1707ZM15 17.5L18.5 21L31.5 8L28 4.5L15 17.5Z" fill="#0045FF" fill-opacity="0.05"/>
</svg>
