<svg width="35" height="23" viewBox="0 0 35 23" fill="none" xmlns="http://www.w3.org/2000/svg">
<path fill-rule="evenodd" clip-rule="evenodd" d="M9.66779 0.307283L11.1521 1.19556C11.4158 1.35335 11.4759 1.7092 11.2808 1.94663C9.11819 4.57922 7.15447 7.43401 7.15427 10.9715C10.1092 10.9715 13.1543 13.3773 13.1543 16.4573C13.1543 20.7597 9.65413 23.4392 6.15413 22.9405C2.65413 22.4418 0.583415 19.9483 0.15427 16.956C-0.830259 10.0913 3.00292 3.90979 8.64509 0.31447C8.95585 0.116445 9.35159 0.118056 9.66779 0.307283ZM30.6678 0.307283L32.1521 1.19556C32.4158 1.35335 32.4759 1.7092 32.2808 1.94663C30.1182 4.57922 28.1545 7.43401 28.1543 10.9715C31.1092 10.9715 34.1543 13.3773 34.1543 16.4573C34.1543 20.7597 30.6541 23.4392 27.1541 22.9405C23.6541 22.4418 21.5834 19.9483 21.1543 16.956C20.1697 10.0913 24.0029 3.90979 29.6451 0.31447C29.9558 0.116445 30.3516 0.118056 30.6678 0.307283Z" fill="#0045FF"/>
</svg>
